<ttFont>
        <CharString name=".notdef">
          -1200 190 886 rmoveto
          -19 0 -14 9 -10 18 -77 221 -39 118 0 15 8 39 22 19 36 0 rrcurveto
          364 hlineto
          32 0 16 -15 0 -29 0 -6 -1 -7 -2 -8 -2 -8 -89 -117 -174 -226 -14 -15 -17 -8 -20 0 rrcurveto
          28 -737 rmoveto
          -365 hlineto
          -33 1 -16 15 0 28 0 5 1 6 1 6 3 12 88 118 175 224 16 17 16 9 17 0 22 0 15 -10 8 -21 77 -218 39 -118 0 -17 -7 -38 -21 -19 -36 0 rrcurveto
          -429 264 rmoveto
          -35 0 -17 15 0 29 rrcurveto
          116 550 rlineto
          8 35 22 17 37 0 20 0 14 -8 10 -16 83 -182 41 -100 0 -15 0 -12 -83 -101 -167 -191 -15 -14 -16 -7 -18 0 rrcurveto
          603 hmoveto
          -17 0 -14 8 -13 15 -81 185 -40 100 0 15 0 11 83 101 165 191 16 13 17 7 17 0 33 0 17 -15 0 -30 rrcurveto
          -116 -550 rlineto
          -7 -34 -23 -17 -37 0 rrcurveto
          -14 -391 rmoveto
          28 0 26 10 22 21 23 20 13 22 4 24 177 832 89 419 0 8 0 16 -4 15 -9 14 -13 18 -19 9 -27 0 rrcurveto
          -756 hlineto
          -26 0 -24 -10 -23 -19 -22 -20 -14 -24 -5 -27 -177 -831 -89 -419 0 -6 0 -15 5 -14 9 -15 13 -19 18 -9 25 0 rrcurveto
          endchar
        </CharString>
        <CharString name="A">
          0 875 497 rmoveto
          -332 hlineto
          -31 0 -15 15 0 29 0 9 2 9 5 9 rrcurveto
          281 539 rlineto
          13 23 18 12 24 0 27 0 15 -13 3 -27 rrcurveto
          51 -540 1 -5 rlineto
          -2 -18 -6 -15 -12 -11 -12 -11 -14 -5 -16 0 rrcurveto
          168 -512 rmoveto
          22 0 21 8 18 16 25 21 12 25 0 27 rrcurveto
          -120 1226 rlineto
          -3 33 -13 25 -22 20 -21 19 -27 10 -31 0 -32 0 -31 -10 -32 -21 -32 -20 -25 -27 -19 -34 rrcurveto
          -638 -1220 rlineto
          -7 -14 -3 -13 0 -13 0 -13 4 -12 8 -11 11 -15 16 -7 21 0 17 0 17 5 17 10 16 10 13 14 9 18 rrcurveto
          142 266 rlineto
          15 27 21 13 28 0 rrcurveto
          462 hlineto
          31 0 17 -15 4 -30 rrcurveto
          28 -266 rlineto
          3 -16 6 -13 11 -9 10 -9 14 -5 17 0 rrcurveto
          endchar
        </CharString>
        <CharString name="B">
          0 676 165 rmoveto
          -224 hlineto
          -17 0 -13 5 -8 11 -8 11 -4 11 0 12 0 4 27 127 52 248 4 16 8 13 13 10 12 10 14 5 16 0 rrcurveto
          226 1 rlineto
          81 -4 59 -22 35 -39 35 -39 18 -41 0 -44 0 -13 -2 -13 -2 -13 -17 -71 -39 -60 -62 -50 -61 -50 -68 -25 -75 0 rrcurveto
          135 634 rmoveto
          -225 hlineto
          -32 0 -17 16 0 32 0 5 23 111 46 217 4 16 8 13 13 10 12 10 14 5 15 0 rrcurveto
          225 hlineto
          60 0 45 -17 31 -33 30 -33 16 -38 0 -42 0 -13 -2 -14 -2 -14 -15 -60 -33 -54 -52 -47 -52 -47 -55 -23 -57 0 rrcurveto
          -174 -784 rmoveto
          78 0 74 18 72 37 72 37 61 50 51 62 51 62 34 69 17 76 6 26 3 25 0 24 0 80 -33 63 -65 45 rrcurveto
          -12 7 rlineto
          -13 9 -6 10 0 12 0 12 4 9 9 7 8 6 7 5 4 2 5 3 3 2 1 2 82 56 52 88 22 118 4 20 2 20 0 19 0 35 -6 35 -13 34 -20 52 -34 44 -48 36 rrcurveto
          -47 35 -59 18 -69 0 rrcurveto
          -353 hlineto
          -22 0 -21 -8 -20 -16 -19 -16 -12 -20 -5 -22 -173 -813 -86 -409 0 -6 0 -15 4 -13 9 -11 11 -14 16 -7 21 0 rrcurveto
          endchar
        </CharString>
        <CharString name="C">
          0 729 -15 rmoveto
          86 0 84 13 79 25 53 17 27 35 0 51 0 32 -16 16 -33 0 -6 0 -7 -2 -7 -3 -51 -23 -72 -12 -92 0 -120 3 -87 51 -53 99 -29 57 -15 69 0 83 0 61 8 69 16 76 rrcurveto
          39 182 69 140 99 96 98 97 103 49 107 3 108 0 69 -9 29 -18 6 -4 6 -2 5 0 15 0 14 5 13 10 27 21 13 25 0 29 0 59 -91 30 -183 0 -164 0 -145 -65 -127 -129 rrcurveto
          -124 -131 -87 -178 -51 -224 -18 -80 -8 -75 0 -69 0 -110 21 -96 43 -82 71 -127 116 -64 162 0 rrcurveto
          endchar
        </CharString>
        <CharString name="D">
          0 483 165 rmoveto
          -32 hlineto
          -17 0 -13 5 -7 11 -8 11 -4 11 0 11 0 5 68 322 135 639 4 16 8 13 13 10 12 10 14 5 16 0 52 0 49 -2 46 -3 46 -3 42 -8 38 -14 96 -37 48 -77 0 -119 rrcurveto
          0 -75 -16 -108 -31 -139 -35 -170 -62 -123 -88 -77 -88 -76 -125 -38 -161 0 rrcurveto
          -38 -150 rmoveto
          141 0 120 21 99 43 100 42 81 68 63 94 63 94 48 124 32 154 rrcurveto
          29 136 rlineto
          17 79 9 71 0 63 0 154 -54 107 -106 58 -75 41 -102 21 -128 0 rrcurveto
          -201 hlineto
          -22 0 -20 -8 -20 -16 -19 -16 -12 -20 -5 -22 -173 -813 -87 -409 0 -6 0 -15 4 -13 9 -11 11 -14 16 -7 21 0 rrcurveto
          endchar
        </CharString>
        <CharString name="E">
          0 967 15 rmoveto
          22 0 20 8 18 15 25 20 12 24 0 27 0 14 -4 12 -8 10 -11 13 -15 7 -20 0 rrcurveto
          -525 hlineto
          -32 0 -17 16 0 32 0 5 25 119 49 234 4 16 8 13 13 10 12 10 14 5 16 0 rrcurveto
          468 hlineto
          21 0 20 8 18 15 25 20 12 24 0 27 0 14 -4 12 -8 10 -10 13 -16 7 -20 0 rrcurveto
          -468 hlineto
          -17 0 -13 5 -8 11 -8 11 -4 11 0 12 0 4 25 119 50 232 4 15 8 13 12 11 12 11 14 5 16 0 rrcurveto
          525 hlineto
          21 0 20 8 18 15 25 20 12 24 0 27 0 14 -4 12 -8 10 -10 13 -16 7 -20 0 rrcurveto
          -653 hlineto
          -22 0 -21 -8 -20 -16 -19 -15 -12 -20 -5 -22 -173 -814 -87 -410 0 -6 0 -14 4 -13 9 -11 11 -14 16 -7 21 0 rrcurveto
          endchar
        </CharString>
        <CharString name="F">
          0 304 -15 rmoveto
          21 0 20 8 18 15 18 15 12 18 5 22 rrcurveto
          108 508 rlineto
          4 16 8 13 13 10 12 10 14 5 16 0 rrcurveto
          460 hlineto
          21 0 20 8 18 15 25 20 12 24 0 27 0 14 -4 12 -8 10 -10 13 -16 7 -20 0 rrcurveto
          -460 hlineto
          -17 0 -13 5 -8 11 -8 11 -4 11 0 12 0 4 25 119 50 232 4 15 8 13 12 11 12 11 14 5 16 0 rrcurveto
          537 hlineto
          21 0 20 8 18 15 25 20 12 24 0 27 0 14 -4 12 -8 10 -10 13 -16 7 -20 0 rrcurveto
          -665 hlineto
          -22 0 -21 -8 -20 -16 -19 -15 -12 -20 -5 -22 -178 -836 -89 -421 0 -5 0 -14 4 -12 9 -11 10 -13 15 -7 20 0 rrcurveto
          endchar
        </CharString>
        <CharString name="G">
          0 600 -15 rmoveto
          142 0 130 54 119 107 28 26 17 31 8 37 64 302 32 152 0 3 0 6 -1 4 -2 3 -4 5 -5 3 -7 0 rrcurveto
          -320 hlineto
          -17 0 -18 -6 -18 -13 -24 -18 -12 -25 0 -31 0 -16 5 -12 8 -10 13 -15 14 -7 16 0 rrcurveto
          150 hlineto
          32 0 16 -14 0 -28 0 -5 -18 -85 -35 -166 -6 -27 -14 -21 -24 -16 -68 -45 -70 -22 -73 0 -115 0 -75 46 -35 91 -18 47 -9 55 0 63 0 55 7 61 13 67 rrcurveto
          35 167 rlineto
          16 73 24 71 32 68 41 88 48 67 57 44 57 44 65 22 74 0 123 0 67 -74 10 -147 2 -34 19 -17 37 0 20 0 18 7 16 15 24 21 11 24 0 28 rrcurveto
          11 vlineto
          -10 211 -102 105 -196 0 -122 0 -101 -32 -78 -64 -147 -119 -101 -180 -54 -240 rrcurveto
          -35 -165 rlineto
          -12 -63 -6 -61 0 -61 0 -156 36 -119 71 -81 53 -59 78 -30 104 0 rrcurveto
          endchar
        </CharString>
        <CharString name="H">
          0 944 -15 rmoveto
          21 0 20 8 18 15 18 15 12 18 5 22 183 858 91 432 0 6 0 14 -4 12 -8 10 -10 13 -16 7 -20 0 -21 0 -20 -8 -18 -15 -18 -15 -12 -18 -5 -22 rrcurveto
          -108 -507 rlineto
          -4 -16 -8 -13 -13 -10 -12 -11 -14 -5 -16 0 rrcurveto
          -434 hlineto
          -17 0 -13 5 -7 11 -8 11 -4 11 0 11 0 4 18 89 37 173 36 174 19 90 0 5 0 14 -4 12 -8 10 -10 13 -16 7 -20 0 -21 0 -20 -8 -18 -15 -18 -15 -12 -18 -5 -22 rrcurveto
          -183 -858 -91 -432 0 -5 0 -14 4 -12 9 -11 10 -13 15 -7 20 0 22 0 20 8 18 15 18 15 11 18 5 22 rrcurveto
          108 508 rlineto
          4 16 8 13 13 10 12 10 14 5 16 0 rrcurveto
          434 hlineto
          17 0 12 -5 8 -10 9 -11 4 -11 0 -11 0 -4 -19 -89 -36 -173 -37 -175 -19 -89 0 -5 0 -14 4 -12 9 -11 10 -13 15 -7 20 0 rrcurveto
          endchar
        </CharString>
        <CharString name="I">
          0 920 15 rmoveto
          21 0 20 8 18 15 25 20 12 24 0 27 0 14 -4 12 -8 10 -11 13 -15 7 -20 0 rrcurveto
          -187 hlineto
          -17 0 -13 5 -8 11 -8 11 -4 11 0 12 0 4 68 322 136 639 4 16 8 13 13 10 12 10 14 5 16 0 rrcurveto
          187 hlineto
          21 0 20 8 18 15 25 20 12 24 0 27 0 15 -4 12 -8 10 -10 13 -16 7 -20 0 rrcurveto
          -640 hlineto
          -21 0 -20 -8 -18 -15 -24 -20 -13 -24 0 -27 0 -14 4 -12 9 -11 10 -13 15 -7 20 0 rrcurveto
          187 hlineto
          17 0 12 -5 8 -10 9 -11 4 -11 0 -11 0 -5 -68 -322 -136 -639 -4 -16 -8 -13 -13 -10 -12 -11 -14 -5 -16 0 rrcurveto
          -187 hlineto
          -21 0 -20 -8 -18 -15 -24 -20 -13 -23 0 -27 0 -14 4 -12 9 -11 10 -13 15 -7 20 0 rrcurveto
          endchar
        </CharString>
        <CharString name="J">
          0 583 -15 rmoveto
          107 0 98 35 90 71 90 71 58 91 26 111 135 636 68 321 0 5 0 15 -4 12 -9 11 -11 14 -16 7 -21 0 rrcurveto
          -403 hlineto
          -21 0 -20 -8 -19 -15 -24 -20 -13 -23 0 -27 0 -14 4 -12 9 -11 10 -14 15 -7 20 0 rrcurveto
          276 hlineto
          32 0 16 -15 0 -30 0 -5 -58 -277 -116 -549 -14 -61 -32 -52 -52 -45 -36 -29 -35 -19 -34 -9 -33 -9 -39 -4 -43 0 -67 0 -52 16 -36 32 -36 32 -19 40 -4 49 -2 15 -6 12 -10 9 rrcurveto
          -11 9 -14 5 -17 0 -22 0 -20 -8 -18 -15 -26 -22 -13 -29 0 -37 0 -47 21 -47 43 -48 44 -56 60 -34 76 -12 38 -6 43 -3 47 0 rrcurveto
          endchar
        </CharString>
        <CharString name="K">
          0 995 -15 rmoveto
          22 0 20 8 18 15 24 20 12 23 0 26 0 7 -1 7 -2 7 -181 461 -91 233 0 6 1 17 7 15 13 13 rrcurveto
          426 451 rlineto
          19 21 10 21 0 21 0 14 -4 12 -7 12 -10 13 -15 7 -21 0 -24 0 -22 -10 -21 -20 rrcurveto
          -520 -544 rlineto
          -15 -13 -15 -7 -16 0 -16 0 -12 5 -9 10 -9 9 -5 11 0 13 0 4 17 81 33 159 34 159 17 82 0 5 0 14 -4 12 -8 10 -10 13 -16 7 -20 0 -21 0 -20 -8 -18 -15 rrcurveto
          -18 -15 -12 -18 -5 -22 -183 -859 -92 -431 0 -6 0 -13 4 -12 9 -11 11 -13 15 -7 20 0 22 0 20 8 18 15 18 15 11 18 5 21 rrcurveto
          77 362 rlineto
          4 23 12 22 19 19 rrcurveto
          119 131 rlineto
          16 13 16 7 16 0 22 0 15 -10 9 -21 rrcurveto
          236 -586 rlineto
          11 -25 19 -12 26 0 rrcurveto
          endchar
        </CharString>
        <CharString name="L">
          0 982 15 rmoveto
          21 0 19 7 18 15 24 21 12 24 0 27 0 14 -4 12 -7 10 -10 13 -16 7 -22 0 rrcurveto
          -462 hlineto
          -30 0 -21 9 -13 18 -14 18 -6 18 0 20 0 7 38 186 77 364 77 363 39 185 0 5 0 14 -4 12 -7 11 -9 13 -15 7 -22 0 -23 0 -21 -8 -17 -15 -18 -15 -12 -18 -4 -22 rrcurveto
          -172 -810 -86 -410 0 -9 0 -22 6 -20 14 -17 17 -23 26 -11 34 0 rrcurveto
          endchar
        </CharString>
        <CharString name="M">
          0 962 -15 rmoveto
          20 0 20 8 19 15 18 16 12 18 5 22 180 847 90 426 0 7 0 18 -5 15 -10 13 -14 17 -19 8 -25 0 -19 0 -18 -5 -19 -11 -18 -11 -15 -14 -12 -18 -225 -378 -118 -193 -9 -8 rrcurveto
          -9 -9 -12 -4 -15 0 -17 0 -11 5 -6 9 -6 10 -35 194 -66 379 -3 16 -8 13 -13 10 -13 10 -15 5 -19 0 -26 0 -24 -9 -23 -19 -22 -19 -14 -23 -6 -27 -180 -845 -90 -425 0 -5 rrcurveto
          0 -14 4 -12 9 -11 10 -14 15 -7 20 0 20 0 19 8 19 15 18 16 13 18 5 22 rrcurveto
          177 834 rlineto
          6 21 13 11 20 0 16 0 10 -8 4 -16 rrcurveto
          58 -348 rlineto
          4 -19 9 -14 14 -10 14 -10 17 -5 20 0 21 0 21 6 20 11 21 12 16 15 12 19 rrcurveto
          207 348 rlineto
          9 13 11 6 13 0 21 0 11 -11 0 -21 rrcurveto
          -90 -424 rlineto
          -60 -283 -30 -143 0 -5 0 -14 4 -12 9 -11 10 -14 15 -7 20 0 rrcurveto
          endchar
        </CharString>
        <CharString name="N">
          0 934 -15 rmoveto
          26 0 25 9 23 19 23 19 15 23 6 28 180 845 90 425 0 6 0 14 -4 12 -8 10 -10 13 -16 7 -20 0 -21 0 -20 -8 -18 -15 -18 -15 -12 -18 -5 -22 rrcurveto
          -187 -880 rlineto
          -5 -22 -13 -11 -22 0 -14 0 -9 7 -5 15 rrcurveto
          -279 916 rlineto
          -14 35 -24 18 -34 0 -26 0 -25 -9 -23 -19 -23 -19 -15 -23 -6 -27 -180 -845 -90 -425 0 -5 0 -14 4 -12 9 -11 10 -14 15 -7 20 0 22 0 19 8 18 15 19 16 11 18 5 22 rrcurveto
          188 880 rlineto
          5 21 12 11 21 0 16 0 10 -7 4 -15 rrcurveto
          278 -915 rlineto
          14 -36 24 -18 34 0 rrcurveto
          endchar
        </CharString>
        <CharString name="O">
          0 632 135 rmoveto
          -50 0 -40 13 -31 25 -30 25 -22 32 -13 41 -13 40 -8 35 -1 31 -1 30 -1 21 0 11 0 75 11 88 21 101 31 145 44 122 58 101 75 129 93 65 111 0 50 0 40 -13 30 -25 rrcurveto
          30 -26 22 -33 13 -40 13 -41 7 -35 2 -30 1 -29 0 -20 0 -10 0 -83 -10 -89 -20 -94 -30 -142 -43 -121 -59 -102 -76 -131 -93 -66 -111 0 rrcurveto
          -38 -150 rmoveto
          76 0 68 15 59 30 58 30 52 40 44 50 44 50 37 57 32 62 32 62 26 65 21 66 21 67 17 63 13 61 13 61 9 57 6 52 6 52 2 45 0 37 0 272 -108 136 -217 0 rrcurveto
          -140 0 -119 -55 -97 -110 -82 -93 -65 -121 -48 -149 -57 -180 -29 -165 0 -148 0 -100 14 -82 30 -65 48 -108 94 -54 140 0 rrcurveto
          endchar
        </CharString>
        <CharString name="P">
          0 835 725 rmoveto
          -235 hlineto
          -17 0 -13 5 -7 11 -8 11 -4 11 0 11 0 5 29 135 56 266 4 16 8 12 12 11 12 10 14 5 16 0 rrcurveto
          235 hlineto
          60 0 44 -18 29 -35 29 -35 14 -40 0 -46 0 -22 -2 -23 -5 -25 -20 -95 -36 -67 -50 -39 -51 -43 -55 -21 -59 0 rrcurveto
          -531 -740 rmoveto
          21 0 20 8 18 15 18 15 12 18 5 22 rrcurveto
          97 458 rlineto
          5 15 8 13 12 10 12 11 14 5 16 0 rrcurveto
          234 hlineto
          101 0 94 38 88 77 88 77 59 102 30 127 9 41 4 36 0 33 0 65 -20 57 -39 49 -56 72 -79 36 -100 0 rrcurveto
          -364 hlineto
          -22 0 -20 -8 -19 -16 -19 -16 -13 -20 -5 -22 -178 -835 -89 -421 0 -5 0 -14 4 -12 9 -11 10 -13 15 -7 20 0 rrcurveto
          endchar
        </CharString>
        <CharString name="Q">
          0 632 135 rmoveto
          -50 0 -40 13 -31 25 -30 25 -22 32 -13 41 -13 40 -8 35 -1 31 -1 30 -1 21 0 11 0 75 11 88 21 101 31 145 44 122 58 101 75 129 93 65 111 0 50 0 40 -13 30 -25 rrcurveto
          30 -26 22 -33 13 -40 13 -41 7 -35 2 -30 1 -29 0 -20 0 -10 0 -83 -10 -89 -20 -94 -30 -142 -43 -121 -59 -102 -76 -131 -93 -66 -111 0 rrcurveto
          -38 -150 rmoveto
          76 0 68 15 59 30 58 30 52 40 44 50 44 50 37 57 32 62 32 62 26 65 21 66 21 67 17 63 13 61 13 61 9 57 6 52 6 52 2 45 0 37 0 272 -108 136 -217 0 rrcurveto
          -140 0 -119 -55 -97 -110 -82 -93 -65 -121 -48 -149 -57 -180 -29 -165 0 -148 0 -100 14 -82 30 -65 48 -108 94 -54 140 0 rrcurveto
          303 -391 rmoveto
          21 0 20 8 18 15 25 21 12 24 0 26 0 26 -11 17 -23 9 rrcurveto
          -360 142 rlineto
          -7 3 -8 2 -8 0 -21 0 -20 -8 -18 -15 -25 -21 -13 -23 0 -25 0 -10 2 -9 5 -9 5 -12 9 -9 13 -5 rrcurveto
          360 -142 rlineto
          8 -3 8 -2 8 0 rrcurveto
          endchar
        </CharString>
        <CharString name="R">
          0 798 735 rmoveto
          -224 hlineto
          -17 0 -13 5 -8 11 -8 11 -4 11 0 12 0 4 28 132 55 259 4 16 8 12 12 11 12 10 14 5 16 0 rrcurveto
          225 hlineto
          39 0 35 -8 29 -17 49 -29 25 -47 0 -68 0 -22 -3 -25 -5 -27 -20 -82 -35 -63 -51 -45 -52 -44 -54 -22 -57 0 rrcurveto
          163 -750 rmoveto
          22 0 20 8 18 15 25 22 12 25 0 28 0 5 -1 5 -2 4 -127 298 -63 153 0 6 rrcurveto
          1 12 rlineto
          6 24 14 17 22 10 71 28 63 46 57 65 57 65 39 80 22 96 10 43 4 38 0 33 0 61 -20 56 -40 49 -57 72 -79 36 -100 0 rrcurveto
          -353 hlineto
          -22 0 -21 -8 -20 -16 -19 -16 -12 -20 -5 -22 -178 -835 -89 -420 0 -6 0 -15 4 -12 9 -9 11 -14 15 -7 21 0 20 0 20 8 18 15 18 16 12 18 5 22 rrcurveto
          99 466 rlineto
          4 16 8 13 13 10 13 11 14 5 16 0 rrcurveto
          108 hlineto
          22 0 15 -10 9 -21 rrcurveto
          216 -532 rlineto
          11 -25 18 -12 26 0 rrcurveto
          endchar
        </CharString>
        <CharString name="S">
          0 604 -15 rmoveto
          80 0 70 14 61 27 61 28 58 42 56 56 56 55 37 69 17 82 6 26 3 26 0 24 0 99 -48 82 -96 66 -43 30 -63 31 -82 30 -134 49 -67 75 0 101 0 15 2 16 3 17 rrcurveto
          15 70 35 54 56 39 55 39 64 20 72 0 61 0 51 -12 43 -25 43 -25 25 -33 8 -42 5 -40 19 -20 31 0 43 0 27 25 10 51 2 8 1 9 0 10 -1 69 -29 58 -58 46 rrcurveto
          -57 46 -85 23 -110 0 -72 0 -67 -14 -64 -29 -63 -29 -57 -43 -52 -59 -51 -58 -35 -74 -20 -91 -6 -25 -2 -24 0 -23 0 -142 99 -109 199 -76 39 -14 39 -18 38 -22 83 -43 42 -54 0 -66 rrcurveto
          0 -11 -2 -12 -2 -12 -19 -87 -51 -64 -84 -42 -52 -24 -52 -12 -52 0 -112 4 -87 54 -64 105 -15 27 -19 14 -22 0 -22 0 -19 -8 -17 -17 -17 -16 -11 -21 -5 -25 -1 -5 -1 -5 0 -4 rrcurveto
          0 -4 1 -4 1 -3 13 -58 41 -55 70 -53 69 -53 83 -26 95 0 rrcurveto
          endchar
        </CharString>
        <CharString name="T">
          0 594 -15 rmoveto
          21 0 20 8 18 15 18 15 12 18 5 22 rrcurveto
          237 1117 rlineto
          5 16 8 14 12 10 12 10 14 5 16 0 rrcurveto
          248 hlineto
          21 0 20 7 18 15 25 20 12 24 0 27 0 15 -4 12 -8 10 -11 13 -15 7 -20 0 rrcurveto
          -761 hlineto
          -21 0 -20 -8 -18 -15 -24 -20 -13 -24 0 -27 0 -14 4 -12 9 -10 10 -13 15 -7 20 0 rrcurveto
          248 hlineto
          33 0 16 -15 0 -31 0 -5 -40 -191 -80 -378 -80 -377 -40 -191 0 -5 0 -14 4 -12 9 -11 10 -13 15 -7 20 0 rrcurveto
          endchar
        </CharString>
        <CharString name="U">
          0 593 -15 rmoveto
          133 0 115 47 95 93 96 93 65 126 34 160 121 567 60 286 0 6 0 14 -4 12 -8 10 -10 13 -16 7 -20 0 -21 0 -20 -8 -18 -15 -18 -15 -12 -18 -5 -22 rrcurveto
          -179 -843 rlineto
          -15 -68 -22 -61 -32 -54 -31 -53 -39 -42 -48 -32 -47 -32 -54 -16 -61 0 -61 0 -48 17 -35 33 -34 34 -20 36 -6 38 -6 38 -3 31 0 23 0 36 4 38 8 40 121 567 61 286 0 6 rrcurveto
          0 14 -4 12 -8 10 -11 13 -15 7 -20 0 -21 0 -20 -8 -19 -15 -18 -15 -12 -18 -5 -22 rrcurveto
          -179 -843 rlineto
          -13 -58 -6 -54 0 -49 0 -131 40 -97 79 -61 53 -42 71 -21 88 0 rrcurveto
          endchar
        </CharString>
        <CharString name="V">
          0 597 2 rmoveto
          24 0 22 8 22 15 22 15 16 19 13 24 417 844 210 425 1 6 0 5 1 6 0 5 0 14 -4 12 -7 11 -10 14 -16 7 -20 0 -18 0 -17 -5 -16 -11 -17 -11 -12 -14 -8 -17 rrcurveto
          -483 -985 rlineto
          -7 -14 -12 -7 -17 0 -20 1 -10 9 0 18 rrcurveto
          -65 983 rlineto
          -2 16 -5 13 -11 9 -10 10 -13 5 -16 0 -19 0 -20 -7 -19 -15 -19 -15 -13 -19 -6 -23 -1 -4 0 -4 0 -5 rrcurveto
          76 -1263 rlineto
          2 -25 8 -19 16 -12 15 -13 22 -6 26 0 rrcurveto
          endchar
        </CharString>
        <CharString name="W">
          0 900 -15 rmoveto
          26 0 24 9 22 17 23 18 14 22 8 27 226 848 113 427 0 6 0 13 -4 12 -9 10 -11 14 -16 7 -21 0 -21 0 -19 -7 -19 -15 -18 -14 -13 -19 -5 -22 -153 -586 -80 -297 -6 -6 rrcurveto
          -6 -6 -8 -3 -9 0 -17 0 -10 9 -3 18 rrcurveto
          -26 460 rlineto
          -2 16 -8 13 -13 11 -13 11 -16 5 -18 0 -19 0 -19 -6 -19 -11 -18 -11 -15 -15 -10 -18 -153 -313 -79 -158 -6 -4 -6 -5 -7 -2 -7 0 -18 0 -9 10 0 19 rrcurveto
          71 441 rlineto
          48 294 24 149 0 4 0 15 -4 13 -9 11 -10 13 -15 6 -20 0 -21 0 -20 -7 -19 -15 -19 -14 -12 -18 -5 -21 -136 -849 -67 -428 0 -5 0 -19 6 -16 11 -13 14 -17 19 -8 24 0 rrcurveto
          20 0 20 6 19 12 19 12 16 16 12 20 rrcurveto
          323 635 rlineto
          8 14 11 7 12 0 16 0 9 -9 3 -17 rrcurveto
          52 -634 rlineto
          2 -18 8 -15 14 -12 14 -11 16 -6 19 0 rrcurveto
          endchar
        </CharString>
        <CharString name="X">
          0 955 -15 rmoveto
          23 0 20 8 18 17 25 22 12 25 0 26 0 7 -1 7 -2 7 -135 393 -67 199 0 6 0 14 4 13 9 13 rrcurveto
          419 557 rlineto
          13 18 7 19 0 19 0 14 -4 13 -7 12 -10 14 -16 7 -21 0 -29 0 -27 -15 -24 -29 rrcurveto
          -336 -459 rlineto
          -9 -11 -10 -6 -11 0 -13 0 -9 7 -5 14 rrcurveto
          -141 459 rlineto
          -10 27 -20 13 -29 0 -23 0 -20 -8 -18 -17 -25 -22 -12 -25 0 -27 0 -7 1 -7 2 -7 123 -377 62 -191 0 -6 0 -14 -5 -12 -9 -12 rrcurveto
          -448 -583 rlineto
          -13 -19 -7 -20 0 -19 0 -13 4 -12 8 -11 11 -14 16 -7 22 0 27 0 26 14 25 29 rrcurveto
          371 505 rlineto
          8 10 9 5 12 0 15 0 10 -7 3 -13 rrcurveto
          153 -504 rlineto
          11 -26 20 -13 27 0 rrcurveto
          endchar
        </CharString>
        <CharString name="Y">
          0 594 -15 rmoveto
          22 0 19 8 18 15 19 16 11 18 5 22 rrcurveto
          134 632 rlineto
          4 16 8 16 11 15 rrcurveto
          435 562 rlineto
          13 18 7 18 0 19 0 13 -4 12 -7 10 -10 13 -15 7 -20 0 -14 0 -14 -3 -15 -7 -14 -7 -12 -9 -9 -12 rrcurveto
          -313 -406 rlineto
          -16 -17 -17 -8 -18 0 -21 0 -15 10 -9 20 rrcurveto
          -137 405 rlineto
          -8 23 -20 11 -31 0 -22 0 -19 -7 -18 -15 -24 -21 -11 -23 0 -25 0 -8 1 -7 3 -8 135 -385 67 -197 0 -9 0 -9 -23 -111 -46 -216 -46 -216 -23 -110 0 -5 0 -14 4 -12 9 -11 rrcurveto
          11 -14 15 -7 20 0 rrcurveto
          endchar
        </CharString>
        <CharString name="Z">
          0 940 15 rmoveto
          22 0 19 7 18 15 25 21 12 24 0 27 0 14 -4 12 -8 10 -10 13 -16 7 -20 0 rrcurveto
          -482 hlineto
          -33 0 -16 16 0 32 0 15 5 14 9 13 rrcurveto
          792 944 rlineto
          22 28 11 31 0 34 0 23 -6 19 -13 17 -18 23 -26 11 -34 0 rrcurveto
          -630 hlineto
          -20 0 -20 -8 -19 -15 -24 -20 -13 -23 0 -27 0 -14 4 -12 9 -11 11 -14 15 -7 19 0 rrcurveto
          482 hlineto
          34 0 17 -15 0 -31 0 -16 -5 -13 -9 -13 rrcurveto
          -792 -944 rlineto
          -23 -28 -12 -30 0 -32 0 -24 7 -20 14 -18 18 -23 26 -12 34 0 rrcurveto
          endchar
        </CharString>
        <CharString name="a">
          0 478 151 rmoveto
          -89 0 -45 51 0 103 0 31 4 36 9 42 22 96 36 83 51 70 50 71 54 56 57 41 57 41 53 21 50 0 65 0 43 -36 23 -72 8 -25 4 -27 0 -29 0 -21 -2 -21 -4 -22 rrcurveto
          -32 -147 -55 -117 -81 -88 -84 -89 -92 -46 -102 -2 rrcurveto
          493 -166 rmoveto
          77 0 55 18 33 37 6 7 3 8 0 9 0 8 -3 7 -5 6 -5 6 -5 3 -7 0 -7 0 -7 -2 -7 -3 -16 -7 -13 -4 -10 0 -40 0 -20 38 -1 75 0 76 9 84 19 91 rrcurveto
          48 223 49 187 51 151 1 7 1 5 0 3 0 9 -4 8 -7 6 -14 17 -17 8 -19 0 -44 0 -30 -21 -16 -42 -8 -19 -12 -10 -16 0 -14 0 -10 6 -7 11 -31 49 -44 25 -55 1 rrcurveto
          -85 0 -85 -32 -85 -63 -85 -63 -76 -81 -69 -100 -69 -99 -47 -110 -25 -119 -12 -54 -6 -50 0 -44 0 -66 13 -54 27 -43 43 -68 68 -34 91 0 71 0 72 20 73 40 73 41 52 39 29 39 rrcurveto
          9 13 12 7 14 0 21 0 12 -14 2 -28 3 -67 13 -44 23 -22 17 -17 21 -8 27 0 rrcurveto
          endchar
        </CharString>
        <CharString name="ampersand">
          0 510 -15 rmoveto
          88 0 94 31 99 63 99 63 89 84 77 107 77 106 47 95 17 84 1 5 1 4 0 5 0 11 -4 11 -7 10 -10 13 -16 7 -23 0 -35 0 -27 -26 -21 -51 -55 -124 -71 -103 -87 -83 rrcurveto
          -104 -97 -99 -49 -95 0 -114 0 -57 49 0 98 0 22 3 24 6 27 17 83 37 79 57 74 -34 37 -29 37 -24 35 -88 -94 -58 -115 -29 -136 -8 -36 -4 -34 0 -33 0 -65 16 -57 32 -50 rrcurveto
          47 -74 80 -37 115 0 rrcurveto
          510 hmoveto
          21 0 20 8 17 15 25 22 12 32 0 43 0 37 -8 44 -17 50 -39 -63 -41 -49 -45 -36 1 -69 18 -34 36 0 rrcurveto
          -203 421 rmoveto
          23 15 36 50 49 84 rrcurveto
          -239 300 rlineto
          -55 67 -28 64 0 59 0 13 1 12 3 13 11 52 26 43 39 35 39 35 46 17 55 0 43 0 34 -11 27 -21 26 -21 17 -27 9 -33 9 -33 20 -17 32 0 20 0 19 8 17 15 rrcurveto
          21 19 11 20 0 23 0 6 -1 8 -1 9 -12 67 -30 51 -49 35 -49 35 -64 17 -77 0 -88 0 -83 -30 -77 -60 -78 -60 -50 -81 -22 -103 -5 -21 -2 -22 0 -21 0 -84 35 -84 70 -84 rrcurveto
          endchar
        </CharString>
        <CharString name="ampersand_ampersand">
          0 -620 -15 rmoveto
          88 0 94 31 99 63 99 63 89 84 77 107 77 106 47 95 17 84 1 5 1 4 0 5 0 11 -4 11 -7 10 -10 13 -16 7 -23 0 -35 0 -27 -26 -21 -51 -55 -124 -71 -103 -87 -83 rrcurveto
          -104 -97 -99 -49 -95 0 -114 0 -57 49 0 98 0 22 3 24 6 27 17 83 37 79 57 74 -34 37 -29 37 -24 35 -88 -94 -58 -115 -29 -136 -8 -36 -4 -34 0 -33 0 -65 16 -57 32 -50 rrcurveto
          47 -74 80 -37 115 0 rrcurveto
          510 hmoveto
          21 0 20 8 17 15 25 22 12 32 0 43 0 37 -8 44 -17 50 -39 -63 -41 -49 -45 -36 1 -69 18 -34 36 0 rrcurveto
          857 421 rmoveto
          23 15 36 50 49 84 rrcurveto
          -239 300 rlineto
          -55 67 -28 64 0 59 0 13 1 12 3 13 11 52 26 43 39 35 39 35 46 17 55 0 43 0 34 -11 27 -21 26 -21 17 -27 9 -33 9 -33 20 -17 32 0 20 0 19 8 17 15 rrcurveto
          21 19 11 20 0 23 0 6 -1 8 -1 9 -12 67 -30 51 -49 35 -49 35 -64 17 -77 0 -88 0 -83 -30 -77 -60 -78 -60 -50 -81 -22 -103 -5 -21 -2 -22 0 -21 0 -84 35 -84 70 -84 rrcurveto
          -35 -780 rmoveto
          88 0 94 31 99 63 99 63 89 84 77 107 77 106 47 95 17 84 1 5 1 4 0 5 0 11 -4 11 -7 10 -10 13 -16 7 -23 0 -35 0 -27 -26 -21 -51 -55 -124 -71 -103 -87 -83 rrcurveto
          -104 -97 -99 -49 -95 0 -114 0 -57 49 0 98 0 22 3 24 6 27 17 83 37 79 57 74 -34 37 -29 37 -24 35 -88 -94 -58 -115 -29 -136 -8 -36 -4 -34 0 -33 0 -65 16 -57 32 -50 rrcurveto
          47 -74 80 -37 115 0 rrcurveto
          510 hmoveto
          21 0 20 8 17 15 25 22 12 32 0 43 0 37 -8 44 -17 50 -39 -63 -41 -49 -45 -36 1 -69 18 -34 36 0 rrcurveto
          -1263 421 rmoveto
          23 15 36 50 49 84 rrcurveto
          -239 300 rlineto
          -55 67 -28 64 0 59 0 13 1 12 3 13 11 52 26 43 39 35 39 35 46 17 55 0 43 0 34 -11 27 -21 26 -21 17 -27 9 -33 9 -33 20 -17 32 0 20 0 19 8 17 15 rrcurveto
          21 19 11 20 0 23 0 6 -1 8 -1 9 -12 67 -30 51 -49 35 -49 35 -64 17 -77 0 -88 0 -83 -30 -77 -60 -78 -60 -50 -81 -22 -103 -5 -21 -2 -22 0 -21 0 -84 35 -84 70 -84 rrcurveto
          endchar
        </CharString>
        <CharString name="asciicircum">
          0 1061 585 rmoveto
          12 0 12 3 12 6 40 23 20 29 0 35 0 7 -1 6 -3 6 rrcurveto
          -227 519 rlineto
          -13 25 -18 12 -23 0 -28 0 -27 -14 -26 -27 rrcurveto
          -447 -516 rlineto
          -14 -20 -7 -18 0 -18 0 -17 7 -16 15 -13 12 -7 12 -4 13 0 26 0 26 13 24 26 rrcurveto
          317 380 rlineto
          12 12 13 6 13 0 15 0 12 -7 8 -15 rrcurveto
          158 -378 rlineto
          12 -25 18 -13 25 0 rrcurveto
          endchar
        </CharString>
        <CharString name="asciitilde">
          0 890 497 rmoveto
          78 0 68 31 60 62 54 58 34 60 13 61 2 7 0 6 0 6 0 37 -18 18 -35 0 -37 0 -27 -23 -17 -47 -28 -79 -42 -39 -56 0 -28 0 -22 6 -14 13 -27 23 -27 35 -26 48 rrcurveto
          -47 82 -61 41 -75 0 -82 0 -71 -32 -61 -63 -52 -56 -32 -58 -13 -62 -2 -9 -1 -8 0 -8 0 -13 3 -10 6 -9 7 -12 13 -6 19 0 22 0 19 6 16 13 17 12 11 18 6 22 rrcurveto
          22 79 43 40 66 0 45 0 47 -42 48 -84 50 -83 60 -41 72 0 rrcurveto
          endchar
        </CharString>
        <CharString name="asciitilde_at">
          0 1098 303 rmoveto
          51 0 31 21 11 42 27 103 21 88 16 74 57 270 -11 196 -79 123 -86 130 -121 65 -157 0 -202 -1 -186 -82 -170 -162 -131 -122 -101 -139 -73 -157 -62 -131 -78 -66 -97 0 -55 0 -35 6 -14 13 rrcurveto
          -28 23 -26 35 -26 48 -47 82 -61 41 -75 0 -82 0 -71 -32 -61 -63 -52 -56 -35 -72 -20 -90 -5 -25 2 -18 8 -13 9 -13 13 -6 19 0 22 0 19 6 16 13 16 12 11 18 6 22 rrcurveto
          28 107 47 54 65 0 45 0 47 -42 49 -84 50 -83 74 -41 98 0 85 0 75 25 64 50 75 57 56 69 35 80 64 151 92 130 120 107 78 67 71 46 63 26 63 26 68 13 74 0 rrcurveto
          269 -6 107 -188 -55 -372 -9 -55 -18 -91 -25 -130 -13 -66 13 -33 37 0 rrcurveto
          -170 -318 rmoveto
          21 0 19 2 16 4 22 5 15 20 8 36 4 22 -1 16 -7 9 -8 11 -11 5 -12 0 -45 0 -35 2 -24 5 -69 15 -19 95 31 176 19 94 17 86 15 80 15 79 -8 67 -29 56 rrcurveto
          -30 55 -49 28 -70 0 -149 -1 -128 -101 -106 -200 -45 -90 -33 -92 -20 -94 -55 -260 32 -130 121 0 119 2 71 50 21 99 3 15 -1 11 -4 8 -4 8 -5 4 -7 0 -14 0 -13 -6 -11 -12 rrcurveto
          -29 -28 -27 -14 -27 0 -60 0 -12 87 37 174 19 90 27 76 34 60 69 124 72 62 75 0 33 0 24 -16 14 -31 14 -31 3 -40 -9 -50 rrcurveto
          -45 -250 rlineto
          -43 -222 38 -126 120 -30 37 -10 39 -4 40 0 rrcurveto
          endchar
        </CharString>
        <CharString name="asterisk">
          0 631 146 rmoveto
          21 0 20 7 17 15 17 14 11 18 5 21 rrcurveto
          53 248 187 -124 rlineto
          10 -6 12 -3 13 0 22 0 20 7 18 15 22 18 12 23 0 28 0 20 -8 16 -17 12 rrcurveto
          -188 125 241 124 rlineto
          35 20 18 27 0 34 0 14 -5 12 -8 11 -11 14 -17 7 -22 0 -13 0 -13 -3 -12 -6 rrcurveto
          -241 -124 rlineto
          37 172 18 88 0 6 0 14 -4 12 -8 10 -11 14 -17 7 -21 0 -22 0 -19 -7 -17 -14 -17 -15 -11 -18 -5 -21 rrcurveto
          -53 -248 -188 124 rlineto
          -11 6 -12 3 -13 0 -21 0 -20 -7 -17 -14 -23 -19 -12 -23 0 -29 0 -19 8 -16 17 -12 rrcurveto
          190 -124 -242 -124 rlineto
          -36 -20 -18 -28 0 -35 0 -14 4 -12 9 -10 11 -14 17 -7 21 0 13 0 13 3 13 6 rrcurveto
          242 124 rlineto
          -37 -172 -18 -88 0 -6 0 -13 4 -12 8 -10 11 -15 16 -7 22 0 rrcurveto
          endchar
        </CharString>
        <CharString name="asterisk_slash">
          0 -603 -14 rmoveto
          21 0 19 7 18 15 17 15 11 17 5 21 rrcurveto
          59 277 213 -133 rlineto
          11 -6 12 -3 12 0 21 0 20 7 18 15 22 19 12 23 0 26 0 19 -9 16 -17 14 rrcurveto
          -213 135 271 135 rlineto
          35 21 18 28 0 33 0 13 -4 12 -8 10 -12 15 -17 7 -21 0 -12 0 -13 -3 -14 -6 rrcurveto
          -269 -135 rlineto
          40 190 21 98 0 6 0 14 -5 12 -8 11 -11 15 -16 7 -21 0 -21 0 -19 -7 -18 -15 -18 -15 -11 -17 -4 -21 rrcurveto
          -59 -278 -213 135 rlineto
          -11 6 -11 3 -13 0 -21 0 -19 -7 -18 -15 -24 -20 -12 -23 0 -26 0 -21 9 -15 17 -12 rrcurveto
          214 -135 -271 -135 rlineto
          -36 -22 -17 -27 0 -31 0 -14 4 -13 9 -11 11 -15 16 -7 21 0 13 0 13 3 13 6 rrcurveto
          270 135 rlineto
          -41 -191 -20 -99 0 -5 0 -13 4 -12 9 -11 11 -15 16 -7 21 0 rrcurveto
          604 -171 rmoveto
          14 0 14 4 15 8 14 8 11 11 9 14 rrcurveto
          1065 1623 rlineto
          10 15 5 15 0 15 0 9 -1 9 -4 8 -9 23 -18 11 -28 0 -14 0 -14 -4 -14 -7 -15 -8 -12 -11 -9 -14 rrcurveto
          -1065 -1623 rlineto
          -10 -16 -5 -15 0 -15 0 -9 2 -8 3 -8 10 -23 19 -12 27 0 rrcurveto
          endchar
        </CharString>
        <CharString name="at">
          0 1098 303 rmoveto
          51 0 31 21 11 42 27 103 21 88 16 74 57 270 -11 196 -79 123 -86 130 -121 65 -157 0 -201 -1 -175 -83 -150 -164 -12 -14 -8 -18 -5 -21 -6 -31 2 -22 11 -15 11 -14 14 -7 17 0 rrcurveto
          21 0 19 7 16 15 65 60 60 48 57 35 57 36 66 18 75 0 269 -6 107 -188 -55 -372 -9 -55 -18 -91 -25 -130 -13 -66 13 -33 37 0 rrcurveto
          -170 -318 rmoveto
          21 0 19 2 16 4 22 5 15 20 8 36 4 22 -1 16 -7 9 -8 11 -11 5 -12 0 -45 0 -35 2 -24 5 -69 15 -19 95 31 176 19 94 17 86 15 80 15 79 -8 67 -29 56 rrcurveto
          -30 55 -49 28 -70 0 -149 -1 -128 -101 -106 -200 -45 -90 -33 -92 -20 -94 -55 -260 32 -130 121 0 119 2 71 50 21 99 3 15 -1 11 -4 8 -4 8 -5 4 -7 0 -14 0 -13 -6 -11 -12 rrcurveto
          -29 -28 -27 -14 -27 0 -60 0 -12 87 37 174 19 90 27 76 34 60 69 124 72 62 75 0 33 0 24 -16 14 -31 14 -31 3 -40 -9 -50 rrcurveto
          -45 -250 rlineto
          -43 -222 38 -126 120 -30 37 -10 39 -4 40 0 rrcurveto
          endchar
        </CharString>
        <CharString name="b">
          0 651 136 rmoveto
          -14 hlineto
          -58 0 -49 21 -38 42 -39 42 -19 47 0 53 0 21 2 22 5 24 rrcurveto
          45 213 rlineto
          14 65 40 61 65 59 60 51 66 26 70 0 91 0 59 -24 26 -49 27 -49 13 -51 0 -54 0 -46 -6 -53 -13 -61 -55 -236 -116 -120 -176 -4 rrcurveto
          -5 -151 rmoveto
          137 0 109 46 82 93 81 93 61 136 39 179 15 69 7 63 0 57 0 81 -15 68 -29 56 -50 93 -85 46 -119 0 -69 0 -74 -28 -79 -57 -18 -13 -17 -6 -14 0 -27 1 -13 13 0 24 rrcurveto
          0 5 15 71 29 136 34 158 17 83 0 7 0 14 -4 11 -9 9 -11 15 -15 7 -18 0 -19 0 -20 -8 -20 -15 -20 -16 -13 -19 -4 -24 -197 -924 -98 -465 0 -6 0 -13 4 -11 7 -9 rrcurveto
          10 -13 15 -7 20 0 42 0 31 27 19 54 10 30 15 15 19 0 12 0 11 -6 8 -11 59 -73 70 -36 79 0 rrcurveto
          endchar
        </CharString>
        <CharString name="backslash">
          0 917 -185 rmoveto
          29 0 24 12 20 25 16 18 7 18 0 18 0 6 -125 546 -252 1086 -3 13 -7 10 -10 7 -10 7 -12 4 -14 0 -28 0 -24 -12 -21 -24 -15 -18 -8 -19 0 -19 0 -6 126 -545 252 -1084 rrcurveto
          3 -14 7 -10 10 -8 10 -7 12 -4 13 0 rrcurveto
          endchar
        </CharString>
        <CharString name="bar">
          0 551 -215 rmoveto
          20 0 20 8 19 16 20 15 11 18 4 21 240 1126 119 566 0 5 0 13 -4 11 -8 11 -11 13 -16 7 -19 0 -20 0 -20 -8 -19 -15 -19 -16 -12 -18 -4 -21 -239 -1125 -120 -564 0 -5 rrcurveto
          0 -14 4 -12 9 -11 11 -14 15 -7 19 0 rrcurveto
          endchar
        </CharString>
        <CharString name="bar_bar">
          0 354 -215 rmoveto
          21 0 19 7 18 15 18 15 11 17 4 21 239 1126 120 566 0 6 0 14 -4 12 -8 10 -12 14 -16 7 -21 0 -21 0 -20 -7 -17 -14 -17 -15 -11 -18 -5 -21 -239 -1125 -120 -565 0 -6 rrcurveto
          0 -14 5 -12 8 -11 11 -15 16 -7 21 0 rrcurveto
          -800 hmoveto
          21 0 19 7 18 15 18 15 11 17 4 21 239 1126 120 566 0 6 0 14 -4 12 -8 10 -12 14 -16 7 -21 0 -21 0 -20 -7 -17 -14 -17 -15 -11 -18 -5 -21 -239 -1125 -120 -565 0 -6 rrcurveto
          0 -14 5 -12 8 -11 11 -15 16 -7 21 0 rrcurveto
          endchar
        </CharString>
        <CharString name="boxdrawingsdoubledownandhorizontal">
          0 520 -1000 rmoveto
          1620 -530 -160 370 -1460 vlineto
          850 1780 rmoveto
          160 -1220 -160 vlineto
          850 -1780 rmoveto
          1460 370 160 -530 -1620 vlineto
          endchar
        </CharString>
        <CharString name="boxdrawingsdoubledownandleft">
          0 520 -1000 rmoveto
          1620 -530 -160 370 -1460 vlineto
          480 hmoveto
          1940 -850 -160 690 -1780 vlineto
          endchar
        </CharString>
        <CharString name="boxdrawingsdoubledownandright">
          0 840 -1000 rmoveto
          1460 370 160 -530 -1620 vlineto
          -160 hmoveto
          1780 690 160 -850 -1940 vlineto
          endchar
        </CharString>
        <CharString name="boxdrawingsdoublehorizontal">
          0 1210 460 rmoveto
          160 -1220 -160 vlineto
          1220 320 rmoveto
          160 -1220 -160 vlineto
          endchar
        </CharString>
        <CharString name="boxdrawingsdoubleupandhorizontal">
          0 1210 460 rmoveto
          160 -1220 -160 vlineto
          1220 320 rmoveto
          160 -370 1060 -160 -1220 vlineto
          -160 hmoveto
          1220 -160 -1060 -370 -160 vlineto
          endchar
        </CharString>
        <CharString name="boxdrawingsdoubleupandleft">
          0 520 780 rmoveto
          1220 -160 -1060 -370 -160 vlineto
          850 -320 rmoveto
          1540 -160 -1380 -690 -160 vlineto
          endchar
        </CharString>
        <CharString name="boxdrawingsdoubleupandright">
          0 1210 780 rmoveto
          160 -370 1060 -160 -1220 vlineto
          530 -320 rmoveto
          160 -690 1380 -160 -1540 vlineto
          endchar
        </CharString>
        <CharString name="boxdrawingsdoublevertical">
          0 520 -1000 rmoveto
          3000 -160 -3000 vlineto
          480 hmoveto
          3000 -160 -3000 vlineto
          endchar
        </CharString>
        <CharString name="boxdrawingsdoubleverticalandhorizontal">
          0 520 -1000 rmoveto
          1620 -530 -160 370 -1460 vlineto
          160 1780 rmoveto
          1220 -160 -1060 -370 -160 vlineto
          1220 hmoveto
          160 -370 1060 -160 -1220 vlineto
          160 -1780 rmoveto
          1460 370 160 -530 -1620 vlineto
          endchar
        </CharString>
        <CharString name="boxdrawingsdoubleverticalandleft">
          0 520 -1000 rmoveto
          1620 -530 -160 370 -1460 vlineto
          480 hmoveto
          3000 -160 -3000 vlineto
          -160 1780 rmoveto
          1220 -160 -1060 -370 -160 vlineto
          endchar
        </CharString>
        <CharString name="boxdrawingsdoubleverticalandright">
          0 840 -1000 rmoveto
          1460 370 160 -530 -1620 vlineto
          -160 hmoveto
          3000 -160 -3000 vlineto
          850 1780 rmoveto
          160 -370 1060 -160 -1220 vlineto
          endchar
        </CharString>
        <CharString name="boxdrawingsdowndoubleandhorizontalsingle">
          0 840 -1000 rmoveto
          1620 370 160 -1220 -160 370 -1620 160 1620 160 -1620 vlineto
          endchar
        </CharString>
        <CharString name="boxdrawingsdowndoubleandleftsingle">
          0 840 -1000 rmoveto
          1780 -850 -160 370 -1620 160 1620 160 -1620 vlineto
          endchar
        </CharString>
        <CharString name="boxdrawingsdowndoubleandrightsingle">
          0 840 -1000 rmoveto
          1620 370 160 -850 -1780 160 1620 160 -1620 vlineto
          endchar
        </CharString>
        <CharString name="boxdrawingsdownheavyandhorizontallight">
          0 840 -1000 rmoveto
          1620 370 160 -1220 -160 370 -1620 vlineto
          endchar
        </CharString>
        <CharString name="boxdrawingsdownheavyandleftlight">
          0 840 -1000 rmoveto
          1780 -850 -160 370 -1620 vlineto
          endchar
        </CharString>
        <CharString name="boxdrawingsdownheavyandleftuplight">
          0 840 -1000 rmoveto
          1780 -160 1220 -160 -1220 -530 -160 370 -1620 vlineto
          endchar
        </CharString>
        <CharString name="boxdrawingsdownheavyandrightlight">
          0 840 -1000 rmoveto
          1620 370 160 -850 -1780 vlineto
          endchar
        </CharString>
        <CharString name="boxdrawingsdownheavyandrightuplight">
          0 840 -1000 rmoveto
          1620 370 160 -530 1220 -160 -1220 -160 -1780 vlineto
          endchar
        </CharString>
        <CharString name="boxdrawingsdownheavyanduphorizontallight">
          0 840 -1000 rmoveto
          1620 370 160 -530 1220 -160 -1220 -530 -160 370 -1620 vlineto
          endchar
        </CharString>
        <CharString name="boxdrawingsdownlightandhorizontalheavy">
          0 680 -1000 rmoveto
          1460 530 480 -1220 -480 530 -1460 vlineto
          endchar
        </CharString>
        <CharString name="boxdrawingsdownlightandleftheavy">
          0 680 -1000 rmoveto
          1940 -690 -480 530 -1460 vlineto
          endchar
        </CharString>
        <CharString name="boxdrawingsdownlightandleftupheavy">
          0 680 -1000 rmoveto
          1460 160 1540 -480 -1060 -370 -480 530 -1460 vlineto
          endchar
        </CharString>
        <CharString name="boxdrawingsdownlightandrightheavy">
          0 680 -1000 rmoveto
          1460 530 480 -690 -1940 vlineto
          endchar
        </CharString>
        <CharString name="boxdrawingsdownlightandrightupheavy">
          0 680 -1000 rmoveto
          1460 530 480 -370 1060 -480 -1540 160 -1460 vlineto
          endchar
        </CharString>
        <CharString name="boxdrawingsdownlightanduphorizontalheavy">
          0 680 -1000 rmoveto
          1460 530 480 -370 1060 -480 -1060 -370 -480 530 -1460 vlineto
          endchar
        </CharString>
        <CharString name="boxdrawingsdownsingleandhorizontaldouble">
          0 680 -1000 rmoveto
          1460 530 160 -1220 -160 530 -1460 vlineto
          690 1780 rmoveto
          160 -1220 -160 vlineto
          endchar
        </CharString>
        <CharString name="boxdrawingsdownsingleandleftdouble">
          0 680 -1000 rmoveto
          1940 -690 -160 530 -160 -530 -160 530 -1460 vlineto
          endchar
        </CharString>
        <CharString name="boxdrawingsdownsingleandrightdouble">
          0 680 -1000 rmoveto
          1460 530 160 -530 160 530 160 -690 -1940 vlineto
          endchar
        </CharString>
        <CharString name="boxdrawingsheavydoubledashhorizontal">
          0 520 460 rmoveto
          480 -440 -480 vlineto
          1040 hmoveto
          480 -440 -480 vlineto
          endchar
        </CharString>
        <CharString name="boxdrawingsheavydoubledashvertical">
          0 840 -360 rmoveto
          960 -480 -960 vlineto
          480 1440 rmoveto
          960 -480 -960 vlineto
          endchar
        </CharString>
        <CharString name="boxdrawingsheavydown">
          0 840 -1000 rmoveto
          1780 -480 -1780 vlineto
          endchar
        </CharString>
        <CharString name="boxdrawingsheavydownandhorizontal">
          0 840 -1000 rmoveto
          1460 370 480 -1220 -480 370 -1460 vlineto
          endchar
        </CharString>
        <CharString name="boxdrawingsheavydownandleft">
          0 840 -1000 rmoveto
          1940 -850 -480 370 -1460 vlineto
          endchar
        </CharString>
        <CharString name="boxdrawingsheavydownandright">
          0 840 -1000 rmoveto
          1460 370 480 -850 -1940 vlineto
          endchar
        </CharString>
        <CharString name="boxdrawingsheavyhorizontal">
          0 1210 460 rmoveto
          480 -1220 -480 vlineto
          endchar
        </CharString>
        <CharString name="boxdrawingsheavyleft">
          0 680 460 rmoveto
          480 -690 -480 vlineto
          endchar
        </CharString>
        <CharString name="boxdrawingsheavyleftandlightright">
          0 680 460 rmoveto
          160 530 160 -530 160 -690 -480 vlineto
          endchar
        </CharString>
        <CharString name="boxdrawingsheavyquadrupledashhorizontal">
          0 1125 460 rmoveto
          480 -150 -480 vlineto
          -450 hmoveto
          480 -150 -480 vlineto
          450 hmoveto
          480 -150 -480 vlineto
          -450 hmoveto
          480 -150 -480 vlineto
          endchar
        </CharString>
        <CharString name="boxdrawingsheavyquadrupledashvertical">
          0 840 -520 rmoveto
          540 -480 -540 vlineto
          480 2100 rmoveto
          540 -480 -540 vlineto
          480 -700 rmoveto
          540 -480 -540 vlineto
          480 -700 rmoveto
          540 -480 -540 vlineto
          endchar
        </CharString>
        <CharString name="boxdrawingsheavyright">
          0 1210 460 rmoveto
          480 -690 -480 vlineto
          endchar
        </CharString>
        <CharString name="boxdrawingsheavytripledashhorizontal">
          0 1120 460 rmoveto
          480 -240 -480 vlineto
          -560 hmoveto
          480 -240 -480 vlineto
          640 hmoveto
          480 -240 -480 vlineto
          endchar
        </CharString>
        <CharString name="boxdrawingsheavytripledashvertical">
          0 840 -520 rmoveto
          800 -480 -800 vlineto
          480 1920 rmoveto
          800 -480 -800 vlineto
          480 -960 rmoveto
          800 -480 -800 vlineto
          endchar
        </CharString>
        <CharString name="boxdrawingsheavyup">
          0 840 620 rmoveto
          1380 -480 -1380 vlineto
          endchar
        </CharString>
        <CharString name="boxdrawingsheavyupandhorizontal">
          0 1210 460 rmoveto
          480 -370 1060 -480 -1060 -370 -480 vlineto
          endchar
        </CharString>
        <CharString name="boxdrawingsheavyupandleft">
          0 840 460 rmoveto
          1540 -480 -1060 -370 -480 vlineto
          endchar
        </CharString>
        <CharString name="boxdrawingsheavyupandlightdown">
          0 680 -1000 rmoveto
          1620 160 1380 -480 -1380 160 -1620 vlineto
          endchar
        </CharString>
        <CharString name="boxdrawingsheavyupandright">
          0 1210 460 rmoveto
          480 -370 1060 -480 -1540 vlineto
          endchar
        </CharString>
        <CharString name="boxdrawingsheavyvertical">
          0 840 -1000 rmoveto
          3000 -480 -3000 vlineto
          endchar
        </CharString>
        <CharString name="boxdrawingsheavyverticalandhorizontal">
          0 840 -1000 rmoveto
          1460 370 480 -370 1060 -480 -1060 -370 -480 370 -1460 vlineto
          endchar
        </CharString>
        <CharString name="boxdrawingsheavyverticalandleft">
          0 840 -1000 rmoveto
          3000 -480 -1060 -370 -480 370 -1460 vlineto
          endchar
        </CharString>
        <CharString name="boxdrawingsheavyverticalandright">
          0 840 -1000 rmoveto
          1460 370 480 -370 1060 -480 -3000 vlineto
          endchar
        </CharString>
        <CharString name="boxdrawingsleftdownheavyandrightuplight">
          0 840 -1000 rmoveto
          1620 370 160 -370 160 -160 1060 -160 -1060 -530 -480 370 -1460 vlineto
          endchar
        </CharString>
        <CharString name="boxdrawingsleftheavyandrightdownlight">
          0 680 -1000 rmoveto
          1620 530 160 -530 160 -690 -480 530 -1460 vlineto
          endchar
        </CharString>
        <CharString name="boxdrawingsleftheavyandrightuplight">
          0 680 460 rmoveto
          160 530 160 -530 1220 -160 -1060 -530 -480 vlineto
          endchar
        </CharString>
        <CharString name="boxdrawingsleftheavyandrightverticallight">
          0 680 -1000 rmoveto
          1620 530 160 -530 1220 -160 -1060 -530 -480 530 -1460 vlineto
          endchar
        </CharString>
        <CharString name="boxdrawingsleftlightandrightdownheavy">
          0 840 -1000 rmoveto
          1460 370 480 -850 -160 -370 -160 370 -1620 vlineto
          endchar
        </CharString>
        <CharString name="boxdrawingsleftlightandrightupheavy">
          0 1210 460 rmoveto
          480 -370 1060 -480 -1220 -370 -160 370 -160 vlineto
          endchar
        </CharString>
        <CharString name="boxdrawingsleftlightandrightverticalheavy">
          0 840 -1000 rmoveto
          1460 370 480 -370 1060 -480 -1220 -370 -160 370 -1620 vlineto
          endchar
        </CharString>
        <CharString name="boxdrawingsleftupheavyandrightdownlight">
          0 680 -1000 rmoveto
          1460 160 160 370 160 -370 1220 -480 -1060 -370 -480 530 -1460 vlineto
          endchar
        </CharString>
        <CharString name="boxdrawingslightarcdownandleft">
          0 680 -1000 rmoveto
          1240 vlineto
          0 75 -14 70 -28 65 -28 65 -39 57 -49 50 -50 49 -57 39 -65 28 -65 28 -70 14 -75 0 rrcurveto
          -150 -160 150 hlineto
          69 0 64 -17 58 -34 57 -35 46 -46 35 -57 34 -58 17 -64 0 -69 rrcurveto
          -1240 vlineto
          endchar
        </CharString>
        <CharString name="boxdrawingslightarcdownandright">
          0 680 -1000 rmoveto
          1240 vlineto
          0 69 17 64 35 58 34 57 46 46 58 35 57 34 64 17 69 0 rrcurveto
          150 160 -150 hlineto
          -75 0 -69 -14 -65 -28 -65 -28 -58 -39 -49 -49 -50 -50 -39 -57 -28 -65 -28 -65 -14 -70 0 -75 rrcurveto
          -1240 vlineto
          endchar
        </CharString>
        <CharString name="boxdrawingslightarcupandleft">
          0 140 620 rmoveto
          75 0 70 14 65 28 65 28 57 39 50 50 49 49 39 58 28 65 28 65 14 69 0 75 rrcurveto
          1240 -160 -1240 vlineto
          0 -69 -17 -64 -34 -57 -35 -58 -46 -46 -57 -34 -58 -35 -64 -17 -69 0 rrcurveto
          -150 -160 hlineto
          endchar
        </CharString>
        <CharString name="boxdrawingslightarcupandright">
          0 1210 620 rmoveto
          160 -150 vlineto
          -69 0 -64 17 -57 35 -58 34 -46 46 -34 58 -35 57 -17 64 0 69 rrcurveto
          1240 -160 -1240 vlineto
          0 -75 14 -69 28 -65 28 -65 39 -58 50 -49 49 -50 58 -39 65 -28 65 -28 69 -14 75 0 rrcurveto
          endchar
        </CharString>
        <CharString name="boxdrawingslightdiagonalcross">
          0 1130 -635 rmoveto
          -530 1060 -530 -1060 -145 72 585 1169 -580 1160 144 71 526 -1051 526 1051 144 -71 -580 -1160 585 -1169 rlineto
          endchar
        </CharString>
        <CharString name="boxdrawingslightdiagonalupperlefttolowerright">
          0 1130 -635 rmoveto
          -1200 2401 144 71 1201 -2400 rlineto
          endchar
        </CharString>
        <CharString name="boxdrawingslightdiagonalupperrighttolowerleft">
          0 70 -635 rmoveto
          1200 2401 -144 71 -1201 -2400 rlineto
          endchar
        </CharString>
        <CharString name="boxdrawingslightdoubledashhorizontal">
          0 520 620 rmoveto
          160 -440 -160 vlineto
          1040 hmoveto
          160 -440 -160 vlineto
          endchar
        </CharString>
        <CharString name="boxdrawingslightdoubledashvertical">
          0 680 -520 rmoveto
          1280 -160 -1280 vlineto
          160 1440 rmoveto
          1280 -160 -1280 vlineto
          endchar
        </CharString>
        <CharString name="boxdrawingslightdown">
          0 680 -1000 rmoveto
          1780 -160 -1780 vlineto
          endchar
        </CharString>
        <CharString name="boxdrawingslightdownandhorizontal">
          0 680 -1000 rmoveto
          1620 530 160 -1220 -160 530 -1620 vlineto
          endchar
        </CharString>
        <CharString name="boxdrawingslightdownandleft">
          0 680 -1000 rmoveto
          1780 -690 -160 530 -1620 vlineto
          endchar
        </CharString>
        <CharString name="boxdrawingslightdownandright">
          0 680 -1000 rmoveto
          1620 530 160 -690 -1780 vlineto
          endchar
        </CharString>
        <CharString name="boxdrawingslighthorizontal">
          0 1210 620 rmoveto
          160 -1220 -160 vlineto
          endchar
        </CharString>
        <CharString name="boxdrawingslightleft">
          0 680 620 rmoveto
          160 -690 -160 vlineto
          endchar
        </CharString>
        <CharString name="boxdrawingslightleftandheavyright">
          0 1210 460 rmoveto
          480 -690 -160 -530 -160 530 -160 vlineto
          endchar
        </CharString>
        <CharString name="boxdrawingslightquadrupledashhorizontal">
          0 1125 620 rmoveto
          160 -150 -160 vlineto
          -450 hmoveto
          160 -150 -160 vlineto
          450 hmoveto
          160 -150 -160 vlineto
          -450 hmoveto
          160 -150 -160 vlineto
          endchar
        </CharString>
        <CharString name="boxdrawingslightquadrupledashvertical">
          0 680 -520 rmoveto
          540 -160 -540 vlineto
          160 2100 rmoveto
          540 -160 -540 vlineto
          160 -700 rmoveto
          540 -160 -540 vlineto
          160 -700 rmoveto
          540 -160 -540 vlineto
          endchar
        </CharString>
        <CharString name="boxdrawingslightright">
          0 1210 620 rmoveto
          160 -690 -160 vlineto
          endchar
        </CharString>
        <CharString name="boxdrawingslighttripledashhorizontal">
          0 1120 620 rmoveto
          160 -240 -160 vlineto
          -560 hmoveto
          160 -240 -160 vlineto
          640 hmoveto
          160 -240 -160 vlineto
          endchar
        </CharString>
        <CharString name="boxdrawingslighttripledashvertical">
          0 680 -520 rmoveto
          800 -160 -800 vlineto
          160 1920 rmoveto
          800 -160 -800 vlineto
          160 -960 rmoveto
          800 -160 -800 vlineto
          endchar
        </CharString>
        <CharString name="boxdrawingslightup">
          0 680 620 rmoveto
          1380 -160 -1380 vlineto
          endchar
        </CharString>
        <CharString name="boxdrawingslightupandheavydown">
          0 840 -1000 rmoveto
          1780 -160 1220 -160 -1220 -160 -1780 vlineto
          endchar
        </CharString>
        <CharString name="boxdrawingslightupandhorizontal">
          0 1210 620 rmoveto
          160 -530 1220 -160 -1220 -530 -160 vlineto
          endchar
        </CharString>
        <CharString name="boxdrawingslightupandleft">
          0 680 620 rmoveto
          1380 -160 -1220 -530 -160 vlineto
          endchar
        </CharString>
        <CharString name="boxdrawingslightupandright">
          0 1210 620 rmoveto
          160 -530 1220 -160 -1380 vlineto
          endchar
        </CharString>
        <CharString name="boxdrawingslightvertical">
          0 680 -1000 rmoveto
          3000 -160 -3000 vlineto
          endchar
        </CharString>
        <CharString name="boxdrawingslightverticalandhorizontal">
          0 680 -1000 rmoveto
          1620 530 160 -530 1220 -160 -1220 -530 -160 530 -1620 vlineto
          endchar
        </CharString>
        <CharString name="boxdrawingslightverticalandleft">
          0 680 -1000 rmoveto
          3000 -160 -1220 -530 -160 530 -1620 vlineto
          endchar
        </CharString>
        <CharString name="boxdrawingslightverticalandright">
          0 680 -1000 rmoveto
          1620 530 160 -530 1220 -160 -3000 vlineto
          endchar
        </CharString>
        <CharString name="boxdrawingsrightdownheavyandleftuplight">
          0 840 -1000 rmoveto
          1460 370 480 -530 1060 -160 -1060 -160 -160 -370 -160 370 -1620 vlineto
          endchar
        </CharString>
        <CharString name="boxdrawingsrightheavyandleftdownlight">
          0 680 -1000 rmoveto
          1460 530 480 -690 -160 -530 -160 530 -1620 vlineto
          endchar
        </CharString>
        <CharString name="boxdrawingsrightheavyandleftuplight">
          0 1210 460 rmoveto
          480 -530 1060 -160 -1220 -530 -160 530 -160 vlineto
          endchar
        </CharString>
        <CharString name="boxdrawingsrightheavyandleftverticallight">
          0 680 -1000 rmoveto
          1460 530 480 -530 1060 -160 -1220 -530 -160 530 -1620 vlineto
          endchar
        </CharString>
        <CharString name="boxdrawingsrightlightandleftdownheavy">
          0 840 -1000 rmoveto
          1620 370 160 -370 160 -850 -480 370 -1460 vlineto
          endchar
        </CharString>
        <CharString name="boxdrawingsrightlightandleftupheavy">
          0 840 460 rmoveto
          160 370 160 -370 1220 -480 -1060 -370 -480 vlineto
          endchar
        </CharString>
        <CharString name="boxdrawingsrightlightandleftverticalheavy">
          0 840 -1000 rmoveto
          1620 370 160 -370 1220 -480 -1060 -370 -480 370 -1460 vlineto
          endchar
        </CharString>
        <CharString name="boxdrawingsrightupheavyandleftdownlight">
          0 680 -1000 rmoveto
          1460 530 480 -370 1060 -480 -1220 -370 -160 370 -160 160 -1460 vlineto
          endchar
        </CharString>
        <CharString name="boxdrawingsupdoubleandhorizontalsingle">
          0 1210 620 rmoveto
          160 -370 1220 -160 -1220 -160 1220 -160 -1220 -370 -160 vlineto
          endchar
        </CharString>
        <CharString name="boxdrawingsupdoubleandleftsingle">
          0 840 620 rmoveto
          1380 -160 -1220 -160 1220 -160 -1220 -370 -160 vlineto
          endchar
        </CharString>
        <CharString name="boxdrawingsupdoubleandrightsingle">
          0 1210 620 rmoveto
          160 -370 1220 -160 -1220 -160 1220 -160 -1380 vlineto
          endchar
        </CharString>
        <CharString name="boxdrawingsupheavyanddownhorizontallight">
          0 680 -1000 rmoveto
          1620 530 160 -370 1220 -480 -1220 -370 -160 530 -1620 vlineto
          endchar
        </CharString>
        <CharString name="boxdrawingsupheavyandhorizontallight">
          0 1210 620 rmoveto
          160 -370 1220 -480 -1220 -370 -160 vlineto
          endchar
        </CharString>
        <CharString name="boxdrawingsupheavyandleftdownlight">
          0 680 -1000 rmoveto
          1620 160 1380 -480 -1220 -370 -160 530 -1620 vlineto
          endchar
        </CharString>
        <CharString name="boxdrawingsupheavyandleftlight">
          0 840 620 rmoveto
          1380 -480 -1220 -370 -160 vlineto
          endchar
        </CharString>
        <CharString name="boxdrawingsupheavyandrightdownlight">
          0 680 -1000 rmoveto
          1620 530 160 -370 1220 -480 -1380 160 -1620 vlineto
          endchar
        </CharString>
        <CharString name="boxdrawingsupheavyandrightlight">
          0 1210 620 rmoveto
          160 -370 1220 -480 -1380 vlineto
          endchar
        </CharString>
        <CharString name="boxdrawingsuplightanddownhorizontalheavy">
          0 840 -1000 rmoveto
          1460 370 480 -530 1060 -160 -1060 -530 -480 370 -1460 vlineto
          endchar
        </CharString>
        <CharString name="boxdrawingsuplightandhorizontalheavy">
          0 1210 460 rmoveto
          480 -530 1060 -160 -1060 -530 -480 vlineto
          endchar
        </CharString>
        <CharString name="boxdrawingsuplightandleftdownheavy">
          0 840 -1000 rmoveto
          1940 -160 1060 -160 -1060 -530 -480 370 -1460 vlineto
          endchar
        </CharString>
        <CharString name="boxdrawingsuplightandleftheavy">
          0 680 460 rmoveto
          1540 -160 -1060 -530 -480 vlineto
          endchar
        </CharString>
        <CharString name="boxdrawingsuplightandrightdownheavy">
          0 840 -1000 rmoveto
          1460 370 480 -530 1060 -160 -1060 -160 -1940 vlineto
          endchar
        </CharString>
        <CharString name="boxdrawingsuplightandrightheavy">
          0 1210 460 rmoveto
          480 -530 1060 -160 -1540 vlineto
          endchar
        </CharString>
        <CharString name="boxdrawingsupsingleandhorizontaldouble">
          0 1210 460 rmoveto
          160 -1220 -160 vlineto
          1220 320 rmoveto
          160 -530 1060 -160 -1060 -530 -160 vlineto
          endchar
        </CharString>
        <CharString name="boxdrawingsupsingleandleftdouble">
          0 680 460 rmoveto
          1540 -160 -1060 -530 -160 530 -160 -530 -160 vlineto
          endchar
        </CharString>
        <CharString name="boxdrawingsupsingleandrightdouble">
          0 1210 460 rmoveto
          160 -530 160 530 160 -530 1060 -160 -1540 vlineto
          endchar
        </CharString>
        <CharString name="boxdrawingsverticaldoubleandhorizontalsingle">
          0 840 -1000 rmoveto
          1620 370 160 -370 1220 -160 -1220 -160 1220 -160 -1220 -370 -160 370 -1620 160 1620 160 -1620 vlineto
          endchar
        </CharString>
        <CharString name="boxdrawingsverticaldoubleandleftsingle">
          0 840 -1000 rmoveto
          3000 -160 -3000 vlineto
          -160 hmoveto
          3000 -160 -1220 -370 -160 370 -1620 vlineto
          endchar
        </CharString>
        <CharString name="boxdrawingsverticaldoubleandrightsingle">
          0 520 -1000 rmoveto
          3000 -160 -3000 vlineto
          480 hmoveto
          1620 370 160 -370 1220 -160 -3000 vlineto
          endchar
        </CharString>
        <CharString name="boxdrawingsverticalheavyandhorizontallight">
          0 840 -1000 rmoveto
          1620 370 160 -370 1220 -480 -1220 -370 -160 370 -1620 vlineto
          endchar
        </CharString>
        <CharString name="boxdrawingsverticalheavyandleftlight">
          0 840 -1000 rmoveto
          3000 -480 -1220 -370 -160 370 -1620 vlineto
          endchar
        </CharString>
        <CharString name="boxdrawingsverticalheavyandrightlight">
          0 840 -1000 rmoveto
          1620 370 160 -370 1220 -480 -3000 vlineto
          endchar
        </CharString>
        <CharString name="boxdrawingsverticallightandhorizontalheavy">
          0 680 -1000 rmoveto
          1460 530 480 -530 1060 -160 -1060 -530 -480 530 -1460 vlineto
          endchar
        </CharString>
        <CharString name="boxdrawingsverticallightandleftheavy">
          0 680 -1000 rmoveto
          3000 -160 -1060 -530 -480 530 -1460 vlineto
          endchar
        </CharString>
        <CharString name="boxdrawingsverticallightandrightheavy">
          0 680 -1000 rmoveto
          1460 530 480 -530 1060 -160 -3000 vlineto
          endchar
        </CharString>
        <CharString name="boxdrawingsverticalsingleandhorizontaldouble">
          0 680 -1000 rmoveto
          1460 530 160 -530 160 530 160 -530 1060 -160 -1060 -530 -160 530 -160 -530 -160 530 -1460 vlineto
          endchar
        </CharString>
        <CharString name="boxdrawingsverticalsingleandleftdouble">
          0 680 -1000 rmoveto
          3000 -160 -1060 -530 -160 530 -160 -530 -160 530 -1460 vlineto
          endchar
        </CharString>
        <CharString name="boxdrawingsverticalsingleandrightdouble">
          0 680 -1000 rmoveto
          1460 530 160 -530 160 530 160 -530 1060 -160 -3000 vlineto
          endchar
        </CharString>
        <CharString name="braceleft">
          0 872 -248 rmoveto
          19 0 17 6 17 13 16 13 11 19 5 26 2 6 0 6 0 5 0 12 -3 10 -7 9 -10 12 -13 6 -17 0 rrcurveto
          -68 hlineto
          -150 0 -75 51 0 103 0 20 9 43 17 65 rrcurveto
          47 207 rlineto
          11 51 6 45 0 39 0 64 -15 47 -29 30 -9 9 -5 11 0 12 0 20 10 17 18 12 70 51 50 94 29 136 rrcurveto
          41 208 rlineto
          7 40 5 28 3 17 14 65 39 51 63 38 41 24 60 12 79 0 rrcurveto
          69 hlineto
          18 0 17 7 17 14 23 19 12 24 0 31 0 13 -3 11 -6 7 -11 11 -13 6 -18 0 -104 0 -64 -1 -26 -1 -68 -4 -60 -21 -53 -36 -94 -63 -61 -91 -25 -121 -6 -27 -10 -56 -15 -83 rrcurveto
          -14 -83 -9 -52 -4 -20 -17 -77 -31 -57 -45 -37 -33 -27 -37 -13 -43 0 -61 0 -37 -27 -11 -54 -2 -9 -1 -8 0 -8 0 -33 24 -17 48 0 44 0 33 -13 21 -27 21 -27 11 -34 0 -42 rrcurveto
          0 -23 -3 -24 -5 -27 -5 -20 -13 -52 -21 -83 -21 -84 -13 -55 -6 -27 -7 -33 -3 -30 0 -28 0 -75 24 -60 48 -44 36 -36 51 -19 65 -4 25 -2 64 -1 103 0 rrcurveto
          endchar
        </CharString>
        <CharString name="braceright">
          0 307 -248 rmoveto
          42 0 34 1 26 1 26 2 29 6 33 9 34 10 30 15 29 19 95 63 60 91 25 121 6 27 10 56 15 83 14 83 10 52 4 20 16 77 31 57 46 37 32 27 38 13 43 0 rrcurveto
          61 0 37 27 11 54 2 9 1 8 0 8 0 33 -24 17 -48 0 -44 0 -34 14 -23 29 -20 24 -10 33 0 42 0 22 3 25 6 28 4 20 13 52 21 83 21 84 13 55 6 27 rrcurveto
          7 33 4 31 0 28 0 75 -25 59 -48 44 -36 36 -50 20 -65 4 -26 1 -64 1 -104 0 -19 0 -17 -6 -16 -13 -16 -13 -11 -19 -5 -26 -2 -6 0 -5 0 -6 0 -11 3 -11 8 -9 rrcurveto
          9 -12 14 -6 16 0 rrcurveto
          69 hlineto
          149 0 75 -52 0 -103 0 -20 -8 -43 -17 -64 rrcurveto
          -47 -207 rlineto
          -11 -51 -6 -45 0 -39 0 -64 15 -47 29 -31 9 -9 5 -11 0 -12 0 -19 -10 -16 -18 -13 -70 -51 -50 -94 -29 -136 rrcurveto
          -41 -208 rlineto
          -7 -40 -5 -28 -3 -17 -15 -65 -39 -51 -63 -38 -41 -24 -59 -12 -79 0 rrcurveto
          -68 hlineto
          -18 0 -17 -7 -17 -14 -23 -19 -12 -24 0 -31 0 -13 3 -10 6 -7 10 -12 14 -6 17 0 rrcurveto
          endchar
        </CharString>
        <CharString name="bracketleft">
          0 783 -255 rmoveto
          21 0 20 8 18 15 25 20 12 24 0 28 0 13 -4 11 -8 11 -11 13 -15 7 -20 0 rrcurveto
          -337 hlineto
          -28 2 -14 12 0 24 0 4 108 510 216 1015 9 29 19 14 26 0 rrcurveto
          337 hlineto
          21 0 20 8 18 15 25 20 12 24 0 28 0 13 -4 11 -8 11 -11 13 -15 7 -20 0 rrcurveto
          -456 hlineto
          -22 0 -21 -8 -20 -16 -20 -16 -12 -19 -4 -22 -250 -1175 -125 -590 0 -5 0 -14 4 -12 9 -11 11 -15 17 -7 21 0 rrcurveto
          endchar
        </CharString>
        <CharString name="bracketright">
          0 759 -255 rmoveto
          22 0 21 8 19 16 20 16 12 19 4 22 250 1175 125 591 0 5 0 14 -4 12 -8 11 -11 14 -17 7 -21 0 rrcurveto
          -456 hlineto
          -21 0 -20 -8 -18 -15 -25 -20 -12 -24 0 -28 0 -12 4 -12 8 -10 11 -14 15 -7 20 0 rrcurveto
          338 hlineto
          27 -3 14 -12 0 -23 0 -4 -108 -509 -215 -1015 -9 -29 -18 -15 -28 0 rrcurveto
          -337 hlineto
          -21 0 -20 -8 -18 -15 -25 -20 -12 -24 0 -28 0 -12 4 -12 8 -10 11 -14 15 -7 20 0 rrcurveto
          endchar
        </CharString>
        <CharString name="bracketright_numbersign">
          0 1148 365 rmoveto
          21 0 19 7 18 15 23 18 12 23 0 28 0 14 -5 12 -8 11 -12 15 -16 7 -21 0 rrcurveto
          -105 hlineto
          -31 -150 rlineto
          -1481 -620 rmoveto
          22 0 20 8 19 15 19 15 11 19 4 21 rrcurveto
          116 542 rlineto
          940 hlineto
          31 150 rlineto
          -940 hlineto
          79 370 rlineto
          540 hlineto
          32 150 rlineto
          -540 hlineto
          78 367 39 187 0 5 0 14 -4 13 -9 11 -12 15 -17 8 -22 0 rrcurveto
          -456 hlineto
          -21 0 -19 -7 -18 -15 -23 -19 -12 -23 0 -28 0 -13 4 -12 9 -11 11 -15 16 -7 21 0 rrcurveto
          337 hlineto
          26 0 14 -11 0 -21 0 -5 -108 -510 -216 -1015 -7 -32 -19 -16 -32 0 rrcurveto
          -337 hlineto
          -21 0 -19 -7 -18 -15 -23 -19 -12 -23 0 -28 0 -13 4 -12 9 -11 11 -15 16 -7 21 0 rrcurveto
          2152 1140 rmoveto
          21 0 20 7 17 15 23 20 12 24 0 27 0 14 -4 12 -8 10 -12 14 -16 7 -21 0 rrcurveto
          -505 hlineto
          -32 -150 rlineto
          -355 -900 rmoveto
          21 0 19 7 18 15 17 14 11 18 5 21 rrcurveto
          41 195 rlineto
          -151 hlineto
          -29 -136 -14 -71 0 -5 0 -14 4 -12 9 -10 11 -15 17 -7 21 0 rrcurveto
          211 640 rmoveto
          103 484 51 244 0 5 0 14 -4 12 -8 10 -12 14 -17 7 -21 0 -21 0 -19 -7 -17 -14 -18 -15 -11 -17 -5 -21 rrcurveto
          -152 -716 rlineto
          340 -640 rmoveto
          21 0 19 7 17 15 17 14 11 18 5 21 rrcurveto
          152 715 rlineto
          -150 hlineto
          -103 -483 -51 -244 0 -5 0 -14 4 -12 9 -10 11 -15 17 -7 21 0 rrcurveto
          320 1160 rmoveto
          29 137 15 71 0 5 0 14 -4 12 -8 10 -11 14 -17 7 -21 0 -21 0 -19 -7 -17 -14 -18 -15 -11 -17 -5 -21 rrcurveto
          -42 -196 rlineto
          endchar
        </CharString>
        <CharString name="c">
          0 652 -15 rmoveto
          107 0 112 39 117 79 28 18 14 26 0 33 0 13 -3 10 -5 9 -8 11 -12 6 -16 0 -15 0 -13 -4 -11 -7 -88 -55 -82 -27 -75 0 -175 0 -88 87 0 174 0 37 5 41 9 44 rrcurveto
          27 126 49 95 73 65 72 65 86 33 101 0 58 0 55 -16 51 -32 15 -9 7 -14 0 -20 0 -26 -28 -19 -55 -13 -17 -3 -8 -9 0 -14 0 -22 11 -11 21 0 76 1 64 33 50 63 rrcurveto
          16 21 8 27 0 33 0 38 -15 34 -29 30 -60 60 -81 30 -102 0 -90 0 -87 -21 -84 -41 -84 -42 -73 -60 -63 -77 -62 -78 -45 -103 -28 -130 -12 -55 -6 -51 0 -47 0 -143 51 -103 101 -65 rrcurveto
          66 -43 79 -21 91 0 rrcurveto
          endchar
        </CharString>
        <CharString name="colon">
          0 763 766 rmoveto
          40 0 37 15 35 29 47 40 23 48 0 56 0 26 -7 23 -15 20 -22 28 -30 14 -38 0 -42 0 -39 -15 -35 -30 -48 -39 -24 -47 0 -55 0 -27 8 -23 16 -21 22 -28 31 -14 41 0 rrcurveto
          -166 -781 rmoveto
          40 0 37 15 35 30 47 40 23 48 0 55 0 26 -7 23 -15 20 -22 29 -30 14 -38 0 -42 0 -39 -15 -35 -30 -48 -39 -24 -47 0 -55 0 -27 8 -24 16 -21 22 -28 31 -14 41 0 rrcurveto
          endchar
        </CharString>
        <CharString name="colon_center">
          0 763 746 rmoveto
          39 0 37 15 34 29 45 38 23 47 0 56 0 27 -8 23 -15 21 -22 29 -31 14 -39 0 -43 0 -38 -14 -34 -29 -47 -39 -23 -47 0 -54 0 -27 9 -24 16 -21 22 -29 32 -15 43 0 rrcurveto
          -126 -591 rmoveto
          39 0 37 15 35 29 45 39 23 46 0 55 0 27 -8 24 -15 21 -22 29 -31 15 -39 0 -43 0 -38 -15 -35 -29 -46 -39 -23 -46 0 -55 0 -27 8 -24 16 -21 22 -29 32 -15 43 0 rrcurveto
          endchar
        </CharString>
        <CharString name="colon_center_left">
          0 463 746 rmoveto
          39 0 37 15 34 29 45 38 23 47 0 56 0 27 -8 23 -15 21 -22 29 -31 14 -39 0 -43 0 -38 -14 -34 -29 -47 -39 -23 -47 0 -54 0 -27 9 -24 16 -21 22 -29 32 -15 43 0 rrcurveto
          -126 -591 rmoveto
          39 0 37 15 35 29 45 39 23 46 0 55 0 27 -8 24 -15 21 -22 29 -31 15 -39 0 -43 0 -38 -15 -35 -29 -46 -39 -23 -46 0 -55 0 -27 8 -24 16 -21 22 -29 32 -15 43 0 rrcurveto
          endchar
        </CharString>
        <CharString name="colon_center_right">
          0 1063 746 rmoveto
          39 0 37 15 34 29 45 38 23 47 0 56 0 27 -8 23 -15 21 -22 29 -31 14 -39 0 -43 0 -38 -14 -34 -29 -47 -39 -23 -47 0 -54 0 -27 9 -24 16 -21 22 -29 32 -15 43 0 rrcurveto
          -126 -591 rmoveto
          39 0 37 15 35 29 45 39 23 46 0 55 0 27 -8 24 -15 21 -22 29 -31 15 -39 0 -43 0 -38 -15 -35 -29 -46 -39 -23 -46 0 -55 0 -27 8 -24 16 -21 22 -29 32 -15 43 0 rrcurveto
          endchar
        </CharString>
        <CharString name="comma">
          0 285 -398 rmoveto
          145 15 122 56 97 98 97 98 49 112 0 128 0 54 -13 44 -26 33 -23 30 -32 15 -39 0 -53 0 -43 -19 -33 -39 -28 -29 -13 -35 0 -39 0 -32 11 -30 24 -29 23 -28 11 -31 0 -32 rrcurveto
          0 -53 -28 -46 -55 -38 -45 -31 -56 -20 -67 -8 -49 -5 -29 -27 -10 -48 rrcurveto
          -1 -11 rlineto
          0 -35 22 -18 42 0 rrcurveto
          endchar
        </CharString>
        <CharString name="d">
          0 628 136 rmoveto
          -151 1 -75 78 0 157 0 38 4 44 9 48 28 131 43 97 59 61 59 61 75 31 90 0 72 0 56 -26 38 -53 31 -45 16 -47 0 -48 0 -16 -2 -16 -3 -17 rrcurveto
          -45 -213 rlineto
          -18 -82 -40 -65 -64 -48 -64 -47 -61 -24 -57 0 rrcurveto
          398 -151 rmoveto
          65 0 49 19 34 37 7 8 3 8 0 9 0 8 -2 7 -5 6 -5 7 -7 3 -8 0 -10 0 -7 -1 -4 -2 -16 -7 -14 -4 -10 0 -39 0 -19 20 0 41 0 9 1 10 2 12 rrcurveto
          175 846 88 427 0 10 0 14 -4 11 -9 10 -12 15 -15 7 -19 0 -19 0 -19 -8 -20 -15 -19 -16 -12 -19 -5 -24 rrcurveto
          -90 -424 rlineto
          -7 -32 -17 -16 -30 0 -16 0 -15 7 -13 14 -54 55 -61 28 -68 0 -120 0 -106 -48 -92 -95 -91 -96 -64 -132 -36 -168 -17 -83 -9 -74 0 -64 0 -74 11 -61 23 -50 41 -90 88 -45 134 0 rrcurveto
          88 0 109 44 130 88 14 9 11 5 10 0 20 0 10 -15 1 -29 2 -68 30 -34 59 0 rrcurveto
          endchar
        </CharString>
        <CharString name="dagger">
          0 1125 885 rmoveto
          22 0 19 8 18 15 25 21 12 24 0 27 0 13 -4 11 -8 11 -10 13 -16 7 -20 0 rrcurveto
          -680 hlineto
          -21 0 -20 -8 -19 -15 -24 -19 -12 -24 0 -29 0 -13 4 -11 8 -10 11 -14 15 -7 20 0 rrcurveto
          482 300 rmoveto
          23 111 12 58 0 5 0 14 -4 12 -9 9 -11 14 -15 7 -19 0 -20 0 -20 -8 -19 -15 -19 -16 -12 -18 -4 -21 rrcurveto
          -32 -152 rlineto
          -184 -1200 rmoveto
          20 0 20 8 19 16 19 15 12 19 4 20 rrcurveto
          142 672 rlineto
          -149 hlineto
          -97 -458 -48 -231 0 -5 0 -13 4 -11 8 -11 11 -14 16 -7 19 0 rrcurveto
          endchar
        </CharString>
        <CharString name="darkshade">
          0 -600 vmoveto
          1200 2640 -120 -120 -120 120 -120 -120 -120 120 -120 -120 -120 120 -120 -120 -120 120 -120 -120 -120 -120 120 -120 -120 -120 120 -120 -120 -120 120 -120 -120 -120 120 -120 -120 -120 120 -120 -120 -120 120 -120 -120 -120 120 -120 hlineto
          -120 -120 120 -120 -120 -120 120 -120 -120 -120 120 -120 -120 hlineto
          960 2160 rmoveto
          120 120 -120 vlineto
          -360 hmoveto
          120 120 -120 vlineto
          -360 hmoveto
          120 120 -120 vlineto
          -360 hmoveto
          120 120 -120 vlineto
          600 -240 rmoveto
          120 120 -120 vlineto
          -360 hmoveto
          120 120 -120 vlineto
          -360 hmoveto
          120 120 -120 vlineto
          -360 hmoveto
          120 120 -120 vlineto
          600 -240 rmoveto
          120 120 -120 vlineto
          -360 hmoveto
          120 120 -120 vlineto
          -600 hmoveto
          120 120 -120 vlineto
          120 hmoveto
          120 120 -120 vlineto
          360 -240 rmoveto
          120 120 -120 vlineto
          -840 hmoveto
          120 120 -120 vlineto
          360 hmoveto
          120 120 -120 vlineto
          -360 hmoveto
          120 120 -120 vlineto
          -360 -240 rmoveto
          120 120 -120 vlineto
          600 hmoveto
          120 120 -120 vlineto
          -600 hmoveto
          120 120 -120 vlineto
          120 hmoveto
          120 120 -120 vlineto
          -120 -240 rmoveto
          120 120 -120 vlineto
          -600 hmoveto
          120 120 -120 vlineto
          120 hmoveto
          120 120 -120 vlineto
          360 hmoveto
          120 120 -120 vlineto
          -840 -240 rmoveto
          120 120 -120 vlineto
          120 hmoveto
          120 120 -120 vlineto
          120 hmoveto
          120 120 -120 vlineto
          120 hmoveto
          120 120 -120 vlineto
          -120 -240 rmoveto
          120 120 -120 vlineto
          -360 hmoveto
          120 120 -120 vlineto
          -360 hmoveto
          120 120 -120 vlineto
          -360 hmoveto
          120 120 -120 vlineto
          600 -240 rmoveto
          120 120 -120 vlineto
          -360 hmoveto
          120 120 -120 vlineto
          -360 hmoveto
          120 120 -120 vlineto
          -360 hmoveto
          120 120 -120 vlineto
          -120 -240 rmoveto
          120 120 -120 vlineto
          600 hmoveto
          120 120 -120 vlineto
          -360 hmoveto
          120 120 -120 vlineto
          -360 hmoveto
          120 120 -120 vlineto
          endchar
        </CharString>
        <CharString name="divide">
          0 1048 525 rmoveto
          21 0 20 8 19 15 19 16 11 18 5 21 4 20 -3 17 -11 14 -11 14 -16 7 -19 0 rrcurveto
          -680 hlineto
          -21 0 -20 -8 -19 -15 -19 -16 -11 -18 -5 -21 -4 -20 3 -17 11 -14 11 -14 16 -7 19 0 rrcurveto
          411 320 rmoveto
          29 0 27 11 26 22 26 22 17 27 6 30 7 31 -5 25 -15 21 -16 21 -21 10 -28 0 -32 0 -29 -11 -26 -22 -26 -23 -17 -26 -6 -32 -7 -29 5 -25 16 -21 15 -21 23 -10 31 0 rrcurveto
          -151 -710 rmoveto
          29 0 27 11 26 22 26 22 17 27 6 30 7 31 -5 25 -15 21 -16 21 -21 10 -28 0 -32 0 -29 -11 -26 -22 -26 -23 -17 -26 -6 -32 -7 -29 5 -25 16 -21 15 -21 23 -10 31 0 rrcurveto
          endchar
        </CharString>
        <CharString name="dollar">
          0 441 27 rmoveto
          36 171 rlineto
          -48 39 -32 34 -16 29 -17 28 -20 14 -23 0 -21 0 -19 -8 -16 -15 -16 -15 -11 -21 -5 -25 rrcurveto
          -1 -12 1 -14 rlineto
          14 -59 31 -48 47 -39 38 -28 39 -20 39 -11 rrcurveto
          330 hmoveto
          183 54 109 109 35 165 6 26 2 25 0 25 0 100 -47 82 -96 65 -44 31 -63 31 -82 31 -137 56 -68 76 0 96 0 14 1 14 3 15 11 47 38 50 66 53 rrcurveto
          42 198 rlineto
          -87 -45 -66 -49 -45 -53 -51 -58 -35 -74 -19 -90 -5 -25 -3 -24 0 -23 0 -143 100 -110 201 -76 38 -15 38 -18 39 -21 82 -43 41 -53 0 -65 0 -11 -2 -12 -2 -12 -18 -83 -49 -59 -81 -35 rrcurveto
          54 676 rmoveto
          96 454 48 229 0 5 0 14 -4 12 -8 10 -12 15 -16 7 -21 0 -21 0 -19 -7 -17 -15 -18 -15 -11 -17 -5 -21 rrcurveto
          -128 -606 rlineto
          37 -28 45 -22 54 -15 rrcurveto
          -306 -1084 rmoveto
          21 0 19 7 18 15 18 15 11 17 4 21 rrcurveto
          130 609 rlineto
          -23 18 -46 21 -68 25 -96 -454 -49 -229 0 -6 0 -14 5 -12 8 -11 11 -15 16 -7 21 0 rrcurveto
          613 1285 rmoveto
          41 0 26 24 11 49 1 6 1 5 0 5 0 116 -62 76 -125 36 rrcurveto
          -37 -174 rlineto
          54 -27 29 -26 3 -27 6 -42 19 -21 33 0 rrcurveto
          endchar
        </CharString>
        <CharString name="downwardsarrow">
          0 598 hmoveto
          567 481 rlineto
          170 vlineto
          -345 -294 rlineto
          -59 -51 -37 -38 -16 -23 rrcurveto
          -45 hlineto
          4 28 3 29 2 30 2 30 1 29 0 29 rrcurveto
          1025 -150 -1025 vlineto
          0 -29 1 -29 3 -30 3 -30 2 -29 2 -28 rrcurveto
          -44 hlineto
          -8 12 -13 15 -18 18 -18 18 -24 22 -29 25 rrcurveto
          -347 295 rlineto
          -171 vlineto
          endchar
        </CharString>
        <CharString name="e">
          0 652 571 rmoveto
          -92 0 -54 5 -16 10 -16 10 -8 12 0 15 0 12 5 15 9 18 32 62 56 55 79 50 78 50 74 25 69 0 58 0 44 -10 30 -20 30 -20 15 -27 0 -34 0 -101 -42 -66 -84 -30 rrcurveto
          -61 -21 -89 -10 -117 0 rrcurveto
          -26 -586 rmoveto
          102 0 81 13 60 25 60 25 59 42 57 59 12 11 9 10 5 6 5 7 3 10 0 15 0 17 -6 14 -13 12 -12 12 -15 6 -17 0 -18 0 -14 -6 -11 -12 -92 -89 -95 -45 -97 0 rrcurveto
          -81 0 -68 17 -55 34 -55 35 -28 54 0 76 0 21 3 24 5 26 6 27 17 13 29 0 rrcurveto
          173 -1 rlineto
          97 0 74 4 54 9 117 19 82 38 48 59 48 59 24 87 0 116 0 69 -27 54 -55 39 -55 39 -68 20 -81 0 -258 0 -186 -117 -115 -233 -23 -54 -18 -60 -13 -64 -13 -65 -6 -57 0 -49 rrcurveto
          3 -247 121 -124 241 0 rrcurveto
          endchar
        </CharString>
        <CharString name="eight">
          -10 618 131 rmoveto
          -157 0 -78 57 0 114 0 159 102 123 204 87 180 -42 90 -76 0 -109 0 -23 -3 -24 -5 -24 -34 -161 -111 -81 -188 0 rrcurveto
          -37 -146 rmoveto
          128 0 111 32 92 65 93 65 61 93 27 119 9 32 4 34 0 33 0 112 -54 91 -108 71 -9 6 -4 9 0 11 0 13 6 10 11 7 44 30 56 45 68 61 67 63 34 43 1 23 rrcurveto
          0 4 -8 2 -15 0 -16 0 -122 -71 -228 -143 -13 -8 -16 -4 -18 0 -20 0 -20 4 -22 7 -99 31 -49 54 0 77 0 20 3 18 6 19 42 134 106 73 171 10 42 0 21 -20 0 -39 rrcurveto
          0 -25 -10 -28 -20 -33 -1 -1 0 -2 0 -3 0 -8 12 -4 25 0 34 0 29 13 25 27 25 26 13 31 0 36 0 54 -12 37 -25 18 -46 37 -53 19 -60 0 -111 0 -99 -33 -87 -67 rrcurveto
          -87 -66 -56 -85 -25 -101 -6 -25 -3 -25 0 -25 0 -88 41 -72 81 -58 8 -5 4 -8 0 -11 0 -14 -7 -11 -15 -7 -155 -80 -99 -121 -44 -161 -6 -30 -3 -32 0 -33 0 -81 29 -66 58 -50 rrcurveto
          58 -50 88 -25 118 0 rrcurveto
          endchar
        </CharString>
        <CharString name="emdash">
          0 1248 525 rmoveto
          21 0 20 8 19 15 19 16 11 18 5 21 4 20 -3 17 -11 14 -11 14 -16 7 -19 0 rrcurveto
          -1080 hlineto
          -21 0 -20 -8 -19 -15 -19 -16 -11 -18 -5 -21 -4 -20 3 -17 11 -14 11 -14 16 -7 19 0 rrcurveto
          endchar
        </CharString>
        <CharString name="equal">
          0 1006 325 rmoveto
          21 0 20 8 18 15 25 20 12 24 0 28 0 13 -4 11 -8 11 -11 13 -15 7 -20 0 rrcurveto
          -680 hlineto
          -21 0 -20 -8 -18 -15 -25 -20 -12 -24 0 -28 0 -12 4 -12 8 -10 11 -14 15 -7 20 0 rrcurveto
          765 400 rmoveto
          21 0 20 8 18 15 25 20 12 24 0 28 0 13 -4 11 -8 11 -11 13 -15 7 -20 0 rrcurveto
          -680 hlineto
          -21 0 -20 -8 -18 -15 -25 -20 -12 -24 0 -28 0 -12 4 -12 8 -10 11 -14 15 -7 20 0 rrcurveto
          endchar
        </CharString>
        <CharString name="exclam">
          0 601 -15 rmoveto
          39 0 36 15 35 29 45 38 23 47 0 56 0 27 -8 23 -15 21 -22 29 -30 15 -39 0 -42 0 -38 -15 -35 -29 -47 -39 -23 -46 0 -53 0 -28 8 -24 17 -22 22 -29 32 -15 42 0 rrcurveto
          102 499 rmoveto
          19 0 17 6 15 13 15 12 10 15 5 19 132 543 66 276 0 7 0 16 -5 15 -10 13 -14 18 -20 9 -26 0 -26 0 -24 -9 -21 -18 -21 -19 -14 -22 -5 -25 -98 -541 -49 -272 0 -4 rrcurveto
          0 -13 4 -11 7 -9 10 -13 14 -6 19 0 rrcurveto
          endchar
        </CharString>
        <CharString name="exclam_exclam">
          0 -399 -15 rmoveto
          39 0 36 15 35 29 45 38 23 47 0 56 0 27 -8 23 -15 21 -22 29 -30 15 -39 0 -42 0 -38 -15 -35 -29 -47 -39 -23 -46 0 -53 0 -28 8 -24 17 -22 22 -29 32 -15 42 0 rrcurveto
          102 499 rmoveto
          19 0 17 6 15 13 15 12 10 15 5 19 132 543 66 276 0 7 0 16 -5 15 -10 13 -14 18 -20 9 -26 0 -26 0 -24 -9 -21 -18 -21 -19 -14 -22 -5 -25 -98 -541 -49 -272 0 -4 rrcurveto
          0 -13 4 -11 7 -9 10 -13 14 -6 19 0 rrcurveto
          698 -499 rmoveto
          39 0 36 15 35 29 45 38 23 47 0 56 0 27 -8 23 -15 21 -22 29 -30 15 -39 0 -42 0 -38 -15 -35 -29 -47 -39 -23 -46 0 -53 0 -28 8 -24 17 -22 22 -29 32 -15 42 0 rrcurveto
          102 499 rmoveto
          19 0 17 6 15 13 15 12 10 15 5 19 132 543 66 276 0 7 0 16 -5 15 -10 13 -14 18 -20 9 -26 0 -26 0 -24 -9 -21 -18 -21 -19 -14 -22 -5 -25 -98 -541 -49 -272 0 -4 rrcurveto
          0 -13 4 -11 7 -9 10 -13 14 -6 19 0 rrcurveto
          endchar
        </CharString>
        <CharString name="f">
          0 136 -442 rmoveto
          107 0 94 36 79 72 87 75 62 120 37 164 rrcurveto
          169 786 rlineto
          4 16 8 13 13 10 12 10 14 5 16 0 rrcurveto
          356 hlineto
          22 0 19 8 18 15 25 20 12 24 0 27 0 14 -4 12 -8 10 -10 13 -16 7 -20 0 rrcurveto
          -356 hlineto
          -17 0 -12 5 -9 11 -8 11 -4 10 0 12 rrcurveto
          24 106 rlineto
          12 53 27 45 41 38 41 39 49 19 56 0 rrcurveto
          168 hlineto
          22 0 19 8 18 15 25 20 12 24 0 27 0 14 -4 12 -8 10 -10 13 -16 7 -20 0 rrcurveto
          -206 hlineto
          -58 0 -55 -14 -52 -29 -51 -29 -44 -38 -36 -47 -36 -47 -25 -52 -12 -56 rrcurveto
          -31 -139 rlineto
          -3 -13 -8 -11 -13 -9 -13 -10 -13 -5 -15 0 rrcurveto
          -145 hlineto
          -21 0 -20 -8 -17 -15 -25 -20 -13 -23 0 -27 0 -14 4 -13 9 -10 10 -13 15 -7 20 0 rrcurveto
          144 hlineto
          17 0 12 -5 9 -10 8 -11 4 -10 0 -12 0 -10 -56 -265 -112 -519 -22 -101 -38 -82 -54 -62 -53 -62 -65 -31 -76 0 -55 0 -27 -23 0 -45 0 -39 24 -20 48 0 rrcurveto
          endchar
        </CharString>
        <CharString name="five">
          0 575 -15 rmoveto
          307 0 173 153 38 306 6 48 3 37 0 26 -4 199 -136 100 -268 0 rrcurveto
          -60 hlineto
          -33 1 -17 16 0 32 rrcurveto
          94 294 rlineto
          8 28 17 14 26 0 327 1 174 17 22 31 5 9 3 13 0 19 0 11 -3 9 -6 5 -18 20 -205 10 -392 1 -48 0 -29 -17 -8 -35 -101 -373 -51 -188 0 -3 1 -15 5 -13 9 -11 rrcurveto
          12 -15 17 -8 21 0 rrcurveto
          164 hlineto
          201 -1 101 -67 2 -132 0 -73 -10 -57 -19 -42 -58 -131 -116 -67 -175 -2 -143 0 -102 46 -59 93 -19 32 -16 16 -13 0 -15 0 -8 -20 0 -41 0 -28 3 -20 6 -12 68 -144 129 -72 190 0 rrcurveto
          endchar
        </CharString>
        <CharString name="four">
          0 934 455 rmoveto
          24 152 34 76 45 0 30 0 21 -14 13 -28 13 -24 7 -24 0 -24 -1 -76 -62 -38 -124 0 rrcurveto
          -172 -470 rmoveto
          22 0 21 8 19 15 18 16 12 19 5 22 rrcurveto
          55 242 rlineto
          126 3 79 18 32 32 53 51 26 78 1 103 0 86 -25 68 -51 50 -31 30 -39 15 -48 0 -116 0 -83 -127 -50 -254 -234 2 -120 4 -7 6 -7 6 -4 8 0 9 0 10 3 8 7 8 rrcurveto
          448 532 223 244 rlineto
          13 14 6 20 0 25 0 17 -4 13 -7 9 -10 13 -11 7 -13 0 -36 0 -33 -17 -30 -33 rrcurveto
          -762 -868 rlineto
          -20 -23 -12 -33 -5 -41 0 -26 9 -22 19 -18 19 -18 23 -9 28 0 rrcurveto
          491 hlineto
          -59 -265 rlineto
          0 -15 5 -13 11 -12 11 -11 14 -6 18 0 rrcurveto
          endchar
        </CharString>
        <CharString name="fullblock">
          0 -600 vmoveto
          1200 2640 -1200 hlineto
          endchar
        </CharString>
        <CharString name="g">
          0 603 153 rmoveto
          -87 0 -56 25 -27 50 -27 49 -14 52 0 53 0 40 5 46 11 52 58 249 117 127 177 4 68 0 53 -21 37 -43 38 -42 19 -48 0 -53 0 -20 -2 -22 -5 -24 rrcurveto
          -45 -211 rlineto
          -14 -65 -39 -61 -66 -58 -61 -53 -67 -26 -73 0 rrcurveto
          -141 -618 rmoveto
          127 0 109 37 94 73 93 73 60 100 27 128 150 704 75 355 0 7 0 14 -3 11 -7 8 -9 13 -15 7 -21 0 -44 0 -29 -21 -16 -42 -11 -30 -15 -15 -18 0 -11 0 -11 6 -9 11 rrcurveto
          -44 60 -71 30 -97 0 -122 0 -106 -47 -88 -93 -89 -93 -65 -142 -42 -192 -13 -60 -7 -57 0 -52 0 -79 15 -68 31 -57 49 -93 84 -46 119 0 83 0 73 22 63 44 20 13 17 7 15 0 rrcurveto
          25 0 12 -12 0 -25 0 -6 -11 -51 -22 -95 -11 -52 -32 -46 -53 -42 -53 -42 -71 -22 -89 -1 -65 0 -52 10 -39 20 -39 19 -37 31 -34 41 -10 11 -13 6 -17 0 -19 0 -22 -12 -25 -24 rrcurveto
          -17 -16 -9 -19 0 -22 0 -11 3 -10 6 -10 73 -104 117 -52 163 0 rrcurveto
          endchar
        </CharString>
        <CharString name="grave">
          0 973 1035 rmoveto
          19 0 19 8 19 15 25 22 13 23 0 25 0 14 -4 12 -8 12 rrcurveto
          -243 307 rlineto
          -12 15 -16 7 -18 0 -20 0 -20 -8 -21 -16 -24 -20 -12 -23 0 -24 0 -14 5 -13 8 -13 rrcurveto
          241 -306 rlineto
          14 -15 16 -8 19 0 rrcurveto
          endchar
        </CharString>
        <CharString name="greater">
          0 286 162 rmoveto
          11 0 11 3 13 5 rrcurveto
          768 362 rlineto
          41 22 21 28 0 37 0 22 -9 17 -18 10 rrcurveto
          -615 355 rlineto
          -11 5 -10 3 -11 0 -20 0 -19 -8 -19 -15 -25 -20 -12 -23 0 -26 0 -21 10 -17 20 -14 rrcurveto
          419 -250 rlineto
          13 -9 7 -11 0 -12 0 -18 -11 -15 -20 -11 rrcurveto
          -529 -254 rlineto
          -43 -23 -21 -29 0 -35 0 -13 5 -13 9 -11 11 -14 15 -7 19 0 rrcurveto
          endchar
        </CharString>
        <CharString name="greater_greater">
          0 -761 162 rmoveto
          11 0 11 2 12 5 rrcurveto
          769 363 rlineto
          39 21 20 29 0 36 0 22 -10 17 -20 11 rrcurveto
          -615 355 rlineto
          -10 5 -11 3 -11 0 -19 0 -19 -7 -18 -15 -24 -19 -12 -23 0 -26 0 -21 11 -18 21 -15 rrcurveto
          418 -250 rlineto
          12 -8 7 -10 0 -12 0 -18 -11 -15 -22 -13 rrcurveto
          -530 -254 rlineto
          -40 -22 -20 -28 0 -34 0 -14 4 -13 9 -11 12 -15 16 -8 20 0 rrcurveto
          900 hmoveto
          11 0 11 2 12 5 rrcurveto
          769 363 rlineto
          39 21 20 29 0 36 0 22 -10 17 -20 11 rrcurveto
          -615 355 rlineto
          -10 5 -11 3 -11 0 -19 0 -19 -7 -18 -15 -24 -19 -12 -23 0 -26 0 -21 11 -18 21 -15 rrcurveto
          418 -250 rlineto
          12 -8 7 -10 0 -12 0 -18 -11 -15 -22 -13 rrcurveto
          -530 -254 rlineto
          -40 -22 -20 -28 0 -34 0 -14 4 -13 9 -11 12 -15 16 -8 20 0 rrcurveto
          endchar
        </CharString>
        <CharString name="greater_greater_greater">
          0 -11 162 rmoveto
          11 0 11 2 12 5 rrcurveto
          769 363 rlineto
          39 21 20 29 0 36 0 22 -10 17 -20 11 rrcurveto
          -615 355 rlineto
          -10 5 -11 3 -11 0 -19 0 -19 -7 -18 -15 -24 -19 -12 -23 0 -26 0 -21 11 -18 21 -15 rrcurveto
          418 -250 rlineto
          12 -8 7 -10 0 -12 0 -18 -11 -15 -22 -13 rrcurveto
          -530 -254 rlineto
          -40 -22 -20 -28 0 -34 0 -14 4 -13 9 -11 12 -15 16 -8 20 0 rrcurveto
          -900 hmoveto
          11 0 11 2 12 5 rrcurveto
          769 363 rlineto
          39 21 20 29 0 36 0 22 -10 17 -20 11 rrcurveto
          -615 355 rlineto
          -10 5 -11 3 -11 0 -19 0 -19 -7 -18 -15 -24 -19 -12 -23 0 -26 0 -21 11 -18 21 -15 rrcurveto
          418 -250 rlineto
          12 -8 7 -10 0 -12 0 -18 -11 -15 -22 -13 rrcurveto
          -530 -254 rlineto
          -40 -22 -20 -28 0 -34 0 -14 4 -13 9 -11 12 -15 16 -8 20 0 rrcurveto
          -900 hmoveto
          11 0 11 2 12 5 rrcurveto
          769 363 rlineto
          39 21 20 29 0 36 0 22 -10 17 -20 11 rrcurveto
          -615 355 rlineto
          -10 5 -11 3 -11 0 -19 0 -19 -7 -18 -15 -24 -19 -12 -23 0 -26 0 -21 11 -18 21 -15 rrcurveto
          418 -250 rlineto
          12 -8 7 -10 0 -12 0 -18 -11 -15 -22 -13 rrcurveto
          -530 -254 rlineto
          -40 -22 -20 -28 0 -34 0 -14 4 -13 9 -11 12 -15 16 -8 20 0 rrcurveto
          endchar
        </CharString>
        <CharString name="h">
          0 1054 -15 rmoveto
          43 0 38 9 33 19 38 22 19 19 0 15 0 10 -3 7 -5 5 -5 5 -7 3 -10 0 -7 0 -8 -5 -11 -10 -10 -9 -14 -5 -19 0 -37 0 -19 30 0 59 0 28 4 35 8 40 rrcurveto
          82 386 rlineto
          13 62 7 54 0 48 0 69 -14 53 -27 38 -43 62 -81 31 -119 0 -93 -1 -99 -45 -104 -90 -13 -10 -11 -5 -9 0 -17 0 -8 9 0 19 0 4 19 93 38 182 33 152 16 78 0 6 rrcurveto
          0 14 -4 12 -9 11 -11 14 -16 7 -20 0 -20 0 -20 -8 -20 -16 -20 -16 -12 -20 -5 -24 -196 -916 -98 -464 0 -12 0 -13 4 -11 7 -10 11 -13 16 -7 22 0 25 0 21 7 16 15 rrcurveto
          15 15 11 20 5 25 rrcurveto
          117 548 rlineto
          21 94 53 73 86 53 72 41 68 21 64 0 124 0 62 -60 0 -121 0 -26 -3 -28 -6 -32 rrcurveto
          -95 -471 rlineto
          -3 -14 -2 -22 0 -30 0 -30 12 -26 23 -21 23 -21 36 -10 48 0 rrcurveto
          endchar
        </CharString>
        <CharString name="hyphen">
          0 948 525 rmoveto
          21 0 20 8 19 15 19 16 11 18 5 21 4 20 -3 17 -11 14 -11 14 -16 7 -19 0 rrcurveto
          -480 hlineto
          -21 0 -20 -8 -19 -15 -19 -16 -11 -18 -5 -21 -4 -20 3 -17 11 -14 11 -14 16 -7 19 0 rrcurveto
          endchar
        </CharString>
        <CharString name="hyphenminus">
          0 1052 525 rmoveto
          21 0 20 7 17 14 23 19 12 23 0 28 0 14 -5 13 -8 11 -11 14 -17 7 -21 0 rrcurveto
          -680 hlineto
          -22 0 -19 -7 -17 -14 -23 -19 -11 -24 0 -29 0 -14 4 -12 8 -10 11 -14 16 -7 22 0 rrcurveto
          endchar
        </CharString>
        <CharString name="i">
          0 685 -15 rmoveto
          83 0 81 22 78 44 78 44 89 75 98 107 7 7 3 10 0 12 1 11 -4 10 -9 9 -8 9 -11 4 -14 0 -12 0 -11 -4 -8 -7 -66 -65 -56 -46 -46 -29 -46 -29 -52 -15 -59 0 rrcurveto
          -65 0 -32 32 -2 63 1 43 28 124 55 203 47 184 24 94 0 5 0 38 -9 32 -18 25 -18 25 -22 13 -27 0 -7 0 -139 -37 -270 -73 -64 -16 -33 -37 -1 -58 0 -23 5 -17 11 -9 rrcurveto
          11 -9 10 -4 9 0 6 0 58 19 108 37 109 37 58 19 9 0 28 0 14 -15 -1 -29 0 -8 -25 -95 -49 -181 -52 -178 -26 -129 -1 -80 -2 -109 52 -55 104 0 rrcurveto
          117 1265 rmoveto
          34 0 33 13 31 26 41 36 22 42 1 50 -1 22 -7 20 -14 17 -18 26 -26 13 -34 0 -37 0 -35 -13 -31 -26 -40 -36 -21 -41 0 -47 0 -25 7 -21 13 -19 19 -25 27 -12 36 0 rrcurveto
          endchar
        </CharString>
        <CharString name="j">
          0 370 -351 rmoveto
          -69 0 -34 30 0 61 0 103 137 154 274 204 -100 -368 -103 -184 -105 0 rrcurveto
          -29 -114 rmoveto
          84 0 77 30 70 61 71 61 63 109 56 156 20 59 29 115 40 170 rrcurveto
          296 238 rlineto
          11 8 5 12 0 15 0 12 -4 10 -8 10 -9 9 -10 5 -13 0 -11 0 -10 -4 -8 -7 rrcurveto
          -225 -187 rlineto
          79 317 39 161 0 7 -1 38 -9 32 -19 25 -18 25 -23 13 -26 0 -7 0 -138 -37 -269 -73 -64 -16 -32 -37 0 -58 0 -23 6 -16 11 -9 11 -9 10 -5 9 0 6 0 57 19 108 37 rrcurveto
          108 37 59 19 8 0 28 0 14 -15 0 -29 0 -13 -40 -170 -80 -327 -244 -162 -151 -123 -58 -84 -57 -85 -29 -79 0 -74 1 -112 62 -56 125 0 rrcurveto
          569 1715 rmoveto
          34 0 33 13 30 26 41 35 21 43 0 50 -1 22 -8 20 -14 17 -18 26 -27 13 -34 0 -37 0 -34 -13 -31 -26 -39 -36 -20 -41 0 -47 1 -24 8 -22 13 -19 20 -25 27 -12 35 0 rrcurveto
          endchar
        </CharString>
        <CharString name="k">
          0 897 -15 rmoveto
          27 0 27 13 25 26 49 46 34 61 20 76 1 4 1 4 0 4 0 21 -10 10 -20 0 -17 0 -10 -10 -4 -19 -14 -64 -28 -32 -42 0 -28 0 -66 87 -104 174 -11 18 -5 15 0 11 rrcurveto
          0 18 9 13 17 8 236 115 120 148 4 180 0 102 -51 51 -101 0 -93 0 -133 -65 -171 -129 87 377 44 193 0 12 0 17 -5 14 -11 10 -14 14 -19 7 -23 0 -40 0 -26 -22 -11 -45 rrcurveto
          -215 -919 -108 -466 0 -13 0 -17 4 -14 9 -12 10 -13 16 -7 22 0 19 0 17 6 15 12 16 13 10 15 5 19 rrcurveto
          146 591 rlineto
          5 18 13 18 21 19 141 133 104 67 69 0 62 0 31 -24 0 -47 0 -107 -138 -113 -277 -118 -9 -4 -5 -6 0 -7 0 -9 4 -10 7 -10 rrcurveto
          278 -411 rlineto
          23 -31 27 -16 34 0 rrcurveto
          endchar
        </CharString>
        <CharString name="l">
          0 684 752 rmoveto
          79 329 rlineto
          53 205 94 103 136 0 89 -1 45 -42 1 -81 0 -98 -30 -82 -61 -66 -75 -80 -135 -89 -196 -98 rrcurveto
          -72 -767 rmoveto
          58 0 51 10 43 19 75 26 76 64 77 100 9 11 4 13 0 13 -1 17 -7 14 -12 12 -13 12 -15 6 -17 0 -17 0 -17 -9 -15 -18 -41 -56 -38 -40 -35 -24 -35 -24 -40 -12 -45 0 rrcurveto
          -65 1 -32 26 0 53 0 35 26 131 52 228 231 123 154 95 77 68 128 120 64 138 0 156 0 65 -24 54 -47 43 -44 40 -59 20 -74 0 -118 0 -97 -40 -76 -80 -76 -80 -59 -123 -41 -164 rrcurveto
          -94 -367 rlineto
          -123 -53 -84 -34 -45 -15 -24 -9 -12 -17 -1 -26 0 -18 7 -14 13 -10 13 -11 14 -5 13 0 16 0 67 30 120 61 -28 -122 -17 -82 -7 -41 -5 -32 -3 -41 0 -51 2 -124 72 -62 141 0 rrcurveto
          endchar
        </CharString>
        <CharString name="left_arrow_single">
          0 -483 463 rmoveto
          -12 0 -10 4 -7 9 rrcurveto
          -71 89 rlineto
          -5 7 -2 7 0 8 0 16 7 14 14 12 rrcurveto
          109 89 rlineto
          11 9 11 4 12 0 12 0 10 -4 8 -9 rrcurveto
          69 -89 rlineto
          6 -6 3 -8 0 -9 0 -15 -7 -14 -15 -13 rrcurveto
          -108 -88 rlineto
          -11 -9 -12 -4 -12 0 rrcurveto
          114 -397 rmoveto
          21 0 20 7 17 15 23 19 12 22 0 26 0 13 -5 13 -8 13 rrcurveto
          -89 113 rlineto
          -5 7 -2 7 0 8 0 16 7 14 14 12 rrcurveto
          138 118 rlineto
          13 10 16 9 19 7 19 7 16 3 14 0 rrcurveto
          1181 hlineto
          21 0 19 7 18 15 23 19 12 23 0 27 0 14 -5 12 -8 11 -12 15 -16 7 -21 0 rrcurveto
          -1180 hlineto
          -15 0 -14 4 -15 7 -15 7 -12 8 -9 10 rrcurveto
          -90 115 rlineto
          -5 7 -3 8 0 9 0 14 7 13 14 12 rrcurveto
          137 113 rlineto
          23 22 12 24 0 26 0 14 -4 12 -9 11 -12 14 -16 7 -19 0 -18 0 -19 -7 -21 -15 rrcurveto
          -553 -458 rlineto
          -24 -20 -13 -23 0 -26 0 -13 5 -14 8 -13 rrcurveto
          359 -456 rlineto
          14 -14 16 -7 19 0 rrcurveto
          endchar
        </CharString>
        <CharString name="left_right_arrow_double">
          0 610 407 rmoveto
          -12 0 -10 5 -8 10 -9 10 -8 10 -9 11 -13 15 -16 8 -20 0 rrcurveto
          -2008 hlineto
          -20 0 -20 -8 -19 -15 rrcurveto
          -40 -33 rlineto
          -11 -9 -11 -4 -12 0 -12 0 -10 4 -8 9 rrcurveto
          -116 147 rlineto
          -5 7 -3 7 0 9 0 15 7 14 14 12 rrcurveto
          182 149 rlineto
          11 9 12 4 12 0 12 0 10 -5 8 -10 8 -10 8 -10 8 -11 14 -15 16 -7 19 0 rrcurveto
          2006 hlineto
          19 0 20 7 20 15 rrcurveto
          39 33 rlineto
          11 9 12 4 12 0 12 0 10 -4 7 -9 rrcurveto
          118 -149 rlineto
          5 -7 2 -7 0 -8 0 -15 -7 -14 -13 -13 rrcurveto
          -180 -147 rlineto
          -11 -9 -11 -4 -12 0 rrcurveto
          -213 -341 rmoveto
          18 0 19 7 21 15 rrcurveto
          553 456 rlineto
          24 21 12 24 0 26 0 14 -4 12 -9 11 rrcurveto
          -359 458 rlineto
          -14 15 -16 7 -18 0 -21 0 -19 -7 -18 -14 -23 -19 -12 -23 0 -27 0 -13 4 -13 8 -13 33 -41 16 -22 1 -3 0 -4 0 -3 0 -1 0 -16 -6 -14 -14 -11 -11 -9 -11 -4 -11 0 rrcurveto
          -1908 hlineto
          -11 0 -9 4 -6 8 -6 7 -3 8 0 8 0 15 7 14 13 11 rrcurveto
          66 53 rlineto
          24 22 12 23 0 25 0 14 -5 13 -8 11 -11 14 -16 7 -21 0 -18 0 -19 -7 -21 -15 rrcurveto
          -553 -458 rlineto
          -24 -20 -12 -23 0 -25 0 -14 4 -13 9 -13 rrcurveto
          359 -456 rlineto
          14 -15 16 -7 18 0 21 0 19 7 18 15 23 19 11 23 0 25 0 15 -5 14 -10 13 -33 41 -16 25 0 9 0 15 7 14 15 12 11 9 10 4 11 0 rrcurveto
          1912 hlineto
          11 0 9 -4 7 -8 6 -7 3 -8 0 -9 0 -13 -6 -13 -13 -12 rrcurveto
          -67 -55 rlineto
          -26 -22 -13 -24 0 -27 0 -13 4 -12 9 -11 11 -15 16 -7 21 0 rrcurveto
          endchar
        </CharString>
        <CharString name="left_right_arrow_double_long">
          0 610 407 rmoveto
          -12 0 -10 5 -8 10 -9 10 -8 10 -9 11 -13 15 -16 8 -20 0 rrcurveto
          -3208 hlineto
          -20 0 -20 -8 -19 -15 rrcurveto
          -40 -33 rlineto
          -11 -9 -11 -4 -12 0 -12 0 -10 4 -8 9 rrcurveto
          -116 147 rlineto
          -5 7 -3 7 0 9 0 15 7 14 14 12 rrcurveto
          182 149 rlineto
          11 9 12 4 12 0 12 0 10 -5 8 -10 8 -10 8 -10 8 -11 14 -15 16 -7 19 0 rrcurveto
          3206 hlineto
          19 0 20 7 20 15 rrcurveto
          39 33 rlineto
          11 9 12 4 12 0 12 0 10 -4 7 -9 rrcurveto
          118 -149 rlineto
          5 -7 2 -7 0 -8 0 -15 -7 -14 -13 -13 rrcurveto
          -180 -147 rlineto
          -11 -9 -11 -4 -12 0 rrcurveto
          -213 -341 rmoveto
          18 0 19 7 21 15 rrcurveto
          553 456 rlineto
          24 21 12 24 0 26 0 14 -4 12 -9 11 rrcurveto
          -359 458 rlineto
          -14 15 -16 7 -18 0 -21 0 -19 -7 -18 -14 -23 -19 -12 -23 0 -27 0 -13 4 -13 8 -13 33 -41 16 -22 1 -3 0 -4 0 -3 0 -1 0 -16 -6 -14 -14 -11 -11 -9 -11 -4 -11 0 rrcurveto
          -3108 hlineto
          -11 0 -9 4 -6 8 -6 7 -3 8 0 8 0 15 7 14 13 11 rrcurveto
          66 53 rlineto
          24 22 12 23 0 25 0 14 -5 13 -8 11 -11 14 -16 7 -21 0 -18 0 -19 -7 -21 -15 rrcurveto
          -553 -458 rlineto
          -24 -20 -12 -23 0 -25 0 -14 4 -13 9 -13 rrcurveto
          359 -456 rlineto
          14 -15 16 -7 18 0 21 0 19 7 18 15 23 19 11 23 0 25 0 15 -5 14 -10 13 -33 41 -16 25 0 9 0 15 7 14 15 12 11 9 10 4 11 0 rrcurveto
          3112 hlineto
          11 0 9 -4 7 -8 6 -7 3 -8 0 -9 0 -13 -6 -13 -13 -12 rrcurveto
          -67 -55 rlineto
          -26 -22 -13 -24 0 -27 0 -13 4 -12 9 -11 11 -15 16 -7 21 0 rrcurveto
          endchar
        </CharString>
        <CharString name="left_right_arrow_single">
          0 -1683 463 rmoveto
          -12 0 -10 4 -7 9 rrcurveto
          -71 89 rlineto
          -5 7 -2 7 0 8 0 16 7 14 14 12 rrcurveto
          109 89 rlineto
          11 9 11 4 12 0 12 0 10 -4 8 -9 rrcurveto
          69 -89 rlineto
          6 -6 3 -8 0 -9 0 -15 -7 -14 -15 -13 rrcurveto
          -108 -88 rlineto
          -11 -9 -12 -4 -12 0 rrcurveto
          114 -397 rmoveto
          21 0 20 7 17 15 23 19 12 22 0 26 0 13 -5 13 -8 13 rrcurveto
          -89 113 rlineto
          -5 7 -2 7 0 8 0 16 7 14 14 12 rrcurveto
          138 118 rlineto
          13 10 16 9 19 7 19 7 16 3 14 0 rrcurveto
          2381 hlineto
          21 0 19 7 18 15 23 19 12 23 0 27 0 14 -5 12 -8 11 -12 15 -16 7 -21 0 rrcurveto
          -2380 hlineto
          -15 0 -14 4 -15 7 -15 7 -12 8 -9 10 rrcurveto
          -90 115 rlineto
          -5 7 -3 8 0 9 0 14 7 13 14 12 rrcurveto
          137 113 rlineto
          23 22 12 24 0 26 0 14 -4 12 -9 11 -12 14 -16 7 -19 0 -18 0 -19 -7 -21 -15 rrcurveto
          -553 -458 rlineto
          -24 -20 -13 -23 0 -26 0 -13 5 -14 8 -13 rrcurveto
          359 -456 rlineto
          14 -14 16 -7 19 0 rrcurveto
          endchar
        </CharString>
        <CharString name="left_right_arrow_single_long">
          0 -2883 463 rmoveto
          -12 0 -10 4 -7 9 rrcurveto
          -70 88 rlineto
          -5 7 -3 8 0 9 0 16 8 14 15 11 rrcurveto
          107 89 rlineto
          11 9 11 4 12 0 12 0 10 -4 8 -9 rrcurveto
          71 -89 rlineto
          5 -7 2 -7 0 -8 0 -16 -7 -14 -14 -12 rrcurveto
          -109 -89 rlineto
          -11 -9 -12 -4 -12 0 rrcurveto
          3562 hmoveto
          -12 0 -10 4 -7 9 rrcurveto
          -71 89 rlineto
          -5 7 -2 7 0 8 0 16 7 14 14 12 rrcurveto
          109 89 rlineto
          11 9 11 4 12 0 12 0 10 -4 8 -9 rrcurveto
          69 -89 rlineto
          6 -6 3 -8 0 -9 0 -15 -7 -14 -15 -13 rrcurveto
          -108 -88 rlineto
          -11 -9 -12 -4 -12 0 rrcurveto
          -282 -397 rmoveto
          19 0 19 7 19 14 rrcurveto
          553 456 rlineto
          24 23 13 23 0 24 0 14 -5 13 -8 12 rrcurveto
          -359 458 rlineto
          -14 15 -16 7 -18 0 -19 0 -19 -7 -19 -14 -24 -19 -12 -23 0 -26 0 -14 4 -14 8 -13 rrcurveto
          89 -113 rlineto
          5 -7 2 -7 0 -8 0 -15 -7 -14 -13 -12 rrcurveto
          -140 -115 rlineto
          -13 -10 -15 -8 -18 -7 -19 -7 -16 -4 -15 0 rrcurveto
          -2880 hlineto
          -15 0 -14 4 -15 7 -15 7 -12 8 -9 10 rrcurveto
          -90 115 rlineto
          -5 7 -3 8 0 9 0 14 7 13 14 12 rrcurveto
          137 113 rlineto
          23 22 12 24 0 26 0 14 -4 12 -9 11 -12 14 -16 7 -19 0 -18 0 -19 -7 -21 -15 rrcurveto
          -553 -458 rlineto
          -24 -20 -13 -23 0 -26 0 -13 5 -14 8 -13 rrcurveto
          359 -456 rlineto
          14 -14 16 -7 19 0 21 0 20 7 17 15 23 19 12 22 0 26 0 13 -5 13 -8 13 rrcurveto
          -89 113 rlineto
          -5 7 -2 7 0 8 0 16 7 14 14 12 rrcurveto
          138 118 rlineto
          13 10 16 9 19 7 19 7 16 3 14 0 rrcurveto
          2881 hlineto
          15 0 15 -3 15 -7 15 -7 11 -9 9 -10 rrcurveto
          90 -118 rlineto
          5 -7 2 -7 0 -8 0 -16 -7 -14 -14 -12 rrcurveto
          -137 -113 rlineto
          -23 -22 -12 -24 0 -25 0 -13 4 -12 8 -10 11 -15 17 -7 21 0 rrcurveto
          endchar
        </CharString>
        <CharString name="leftfiveeighthsblock">
          0 -600 vmoveto
          750 2640 -750 hlineto
          endchar
        </CharString>
        <CharString name="lefthalfblock">
          0 -600 vmoveto
          600 2640 -600 hlineto
          endchar
        </CharString>
        <CharString name="leftoneeighthblock">
          0 -600 vmoveto
          150 2640 -150 hlineto
          endchar
        </CharString>
        <CharString name="leftonequarterblock">
          0 -600 vmoveto
          300 2640 -300 hlineto
          endchar
        </CharString>
        <CharString name="leftrightarrow">
          0 311 85 rmoveto
          172 hlineto
          -305 383 rlineto
          -17 20 -16 18 -17 17 -16 18 -15 13 -12 11 rrcurveto
          41 vlineto
          28 -2 28 -2 27 -3 27 -3 24 -1 21 0 rrcurveto
          720 hlineto
          22 0 25 1 26 2 27 2 27 2 28 2 rrcurveto
          -41 vlineto
          -15 -12 -17 -14 -16 -17 -17 -16 -15 -16 -13 -17 rrcurveto
          -305 -386 rlineto
          174 hlineto
          450 575 -452 575 rlineto
          -172 hlineto
          305 -383 rlineto
          17 -20 16 -18 17 -17 16 -18 15 -13 12 -11 rrcurveto
          -42 vlineto
          -28 4 -28 3 -26 2 -26 2 -25 1 -22 0 rrcurveto
          -720 hlineto
          -21 0 -24 -1 -27 -1 -27 -1 -28 -3 -28 -4 rrcurveto
          42 vlineto
          15 12 17 14 16 17 17 16 15 16 13 17 rrcurveto
          305 386 rlineto
          -174 hlineto
          -450 -575 rlineto
          endchar
        </CharString>
        <CharString name="leftseveneighthsblock">
          0 -600 vmoveto
          1050 2640 -1050 hlineto
          endchar
        </CharString>
        <CharString name="leftthreeeighthsblock">
          0 -600 vmoveto
          400 2640 -400 hlineto
          endchar
        </CharString>
        <CharString name="leftthreequartersblock">
          0 -600 vmoveto
          900 2640 -900 hlineto
          endchar
        </CharString>
        <CharString name="leftwardsarrow">
          0 551 85 rmoveto
          172 hlineto
          -305 383 rlineto
          -17 20 -16 18 -17 17 -16 18 -15 13 -12 11 rrcurveto
          41 vlineto
          28 -2 28 -2 27 -3 27 -3 24 -1 21 0 rrcurveto
          645 130 -645 hlineto
          -21 0 -24 -1 -27 -1 -27 -1 -28 -3 -28 -4 rrcurveto
          42 vlineto
          15 12 17 14 16 17 17 16 15 16 13 17 rrcurveto
          305 386 rlineto
          -174 hlineto
          -450 -575 rlineto
          endchar
        </CharString>
        <CharString name="less">
          0 977 162 rmoveto
          20 0 20 8 20 16 24 20 12 23 0 28 0 20 -9 17 -19 13 rrcurveto
          -421 254 rlineto
          -12 9 -6 10 0 13 0 19 10 14 20 11 rrcurveto
          526 250 rlineto
          42 23 20 30 0 36 0 13 -4 11 -8 11 -11 13 -14 7 -19 0 -12 0 -12 -3 -13 -6 rrcurveto
          -766 -355 rlineto
          -32 -14 -20 -24 -6 -32 -2 -7 -1 -6 0 -5 0 -20 10 -15 18 -12 rrcurveto
          614 -363 rlineto
          10 -5 10 -2 11 0 rrcurveto
          endchar
        </CharString>
        <CharString name="less_greater">
          0 41 189 rmoveto
          -619 372 rlineto
          -11 6 -5 9 0 13 0 22 10 16 22 10 rrcurveto
          775 367 619 -367 rlineto
          13 -7 6 -10 0 -12 0 -21 -11 -16 -23 -10 rrcurveto
          -806 -535 rmoveto
          9 0 17 6 25 13 rrcurveto
          1030 487 rlineto
          39 19 20 29 0 38 0 22 -10 17 -20 11 rrcurveto
          -833 483 rlineto
          -17 9 -15 4 -14 0 -6 0 -14 -5 -21 -9 rrcurveto
          -1038 -482 rlineto
          -31 -14 -18 -23 -7 -31 -1 -6 -1 -6 0 -6 0 -21 10 -16 19 -13 rrcurveto
          825 -488 rlineto
          20 -12 17 -6 15 0 rrcurveto
          endchar
        </CharString>
        <CharString name="less_less">
          0 -70 162 rmoveto
          20 0 19 8 19 15 23 19 12 23 0 27 0 21 -10 18 -21 14 rrcurveto
          -421 254 rlineto
          -10 8 -5 9 0 11 0 20 10 16 22 12 rrcurveto
          526 250 rlineto
          40 22 20 29 0 36 0 13 -4 12 -8 10 -12 15 -16 7 -19 0 -11 0 -12 -3 -13 -5 rrcurveto
          -766 -355 rlineto
          -31 -14 -18 -23 -7 -31 -1 -6 -1 -6 0 -5 0 -21 10 -17 19 -13 rrcurveto
          615 -363 rlineto
          9 -5 11 -2 11 0 rrcurveto
          900 hmoveto
          20 0 19 8 19 15 23 19 12 23 0 27 0 21 -10 18 -21 14 rrcurveto
          -421 254 rlineto
          -10 8 -5 9 0 11 0 20 10 16 22 12 rrcurveto
          526 250 rlineto
          40 22 20 29 0 36 0 13 -4 12 -8 10 -12 15 -16 7 -19 0 -11 0 -12 -3 -13 -5 rrcurveto
          -766 -355 rlineto
          -31 -14 -18 -23 -7 -31 -1 -6 -1 -6 0 -5 0 -21 10 -17 19 -13 rrcurveto
          615 -363 rlineto
          9 -5 11 -2 11 0 rrcurveto
          endchar
        </CharString>
        <CharString name="less_less_less">
          0 -1120 162 rmoveto
          20 0 19 8 19 15 23 19 12 23 0 27 0 21 -10 18 -21 14 rrcurveto
          -421 254 rlineto
          -10 8 -5 9 0 11 0 20 10 16 22 12 rrcurveto
          526 250 rlineto
          40 22 20 29 0 36 0 13 -4 12 -8 10 -12 15 -16 7 -19 0 -11 0 -12 -3 -13 -5 rrcurveto
          -766 -355 rlineto
          -31 -14 -18 -23 -7 -31 -1 -6 -1 -6 0 -5 0 -21 10 -17 19 -13 rrcurveto
          615 -363 rlineto
          9 -5 11 -2 11 0 rrcurveto
          1800 hmoveto
          20 0 19 8 19 15 23 19 12 23 0 27 0 21 -10 18 -21 14 rrcurveto
          -421 254 rlineto
          -10 8 -5 9 0 11 0 20 10 16 22 12 rrcurveto
          526 250 rlineto
          40 22 20 29 0 36 0 13 -4 12 -8 10 -12 15 -16 7 -19 0 -11 0 -12 -3 -13 -5 rrcurveto
          -766 -355 rlineto
          -31 -14 -18 -23 -7 -31 -1 -6 -1 -6 0 -5 0 -21 10 -17 19 -13 rrcurveto
          615 -363 rlineto
          9 -5 11 -2 11 0 rrcurveto
          -900 hmoveto
          20 0 19 8 19 15 23 19 12 23 0 27 0 21 -10 18 -21 14 rrcurveto
          -421 254 rlineto
          -10 8 -5 9 0 11 0 20 10 16 22 12 rrcurveto
          526 250 rlineto
          40 22 20 29 0 36 0 13 -4 12 -8 10 -12 15 -16 7 -19 0 -11 0 -12 -3 -13 -5 rrcurveto
          -766 -355 rlineto
          -31 -14 -18 -23 -7 -31 -1 -6 -1 -6 0 -5 0 -21 10 -17 19 -13 rrcurveto
          615 -363 rlineto
          9 -5 11 -2 11 0 rrcurveto
          endchar
        </CharString>
        <CharString name="less_slash">
          0 -155 -315 rmoveto
          14 0 14 4 15 8 14 8 12 11 9 14 rrcurveto
          1150 1750 rlineto
          10 16 5 16 0 15 0 8 -2 8 -3 8 -9 23 -19 11 -28 0 -14 0 -14 -4 -14 -7 -15 -8 -11 -11 -9 -14 rrcurveto
          -896 -1362 -633 382 rlineto
          -10 8 -5 9 0 11 0 20 10 16 22 12 rrcurveto
          526 250 rlineto
          40 22 20 29 0 36 0 13 -4 12 -8 10 -12 15 -16 7 -19 0 -11 0 -12 -3 -13 -5 rrcurveto
          -766 -355 rlineto
          -31 -14 -18 -23 -7 -31 -1 -6 -1 -6 0 -5 0 -21 10 -17 19 -13 rrcurveto
          829 -492 -163 -249 rlineto
          -10 -15 -5 -15 0 -16 0 -8 1 -9 3 -8 10 -23 19 -12 27 0 rrcurveto
          endchar
        </CharString>
        <CharString name="less_slash_greater">
          0 -1085 -315 rmoveto
          14 0 14 4 15 8 14 8 12 11 9 14 rrcurveto
          870 1323 699 -416 rlineto
          12 -8 7 -10 0 -12 0 -18 -11 -15 -22 -13 rrcurveto
          -530 -254 rlineto
          -40 -22 -20 -28 0 -34 0 -14 4 -13 9 -11 12 -15 16 -8 20 0 11 0 11 2 12 5 rrcurveto
          769 363 rlineto
          39 21 20 29 0 36 0 22 -10 17 -20 11 rrcurveto
          -898 522 190 290 rlineto
          10 16 5 16 0 15 0 8 -2 8 -3 8 -9 23 -19 11 -28 0 -14 0 -14 -4 -14 -7 -15 -8 -11 -11 -9 -14 rrcurveto
          -896 -1362 -633 382 rlineto
          -10 8 -5 9 0 11 0 20 10 16 22 12 rrcurveto
          526 250 rlineto
          40 22 20 29 0 36 0 13 -4 12 -8 10 -12 15 -16 7 -19 0 -11 0 -12 -3 -13 -5 rrcurveto
          -766 -355 rlineto
          -31 -14 -18 -23 -7 -31 -1 -6 -1 -6 0 -5 0 -21 10 -17 19 -13 rrcurveto
          829 -492 -163 -249 rlineto
          -10 -15 -5 -15 0 -16 0 -8 1 -9 3 -8 10 -23 19 -12 27 0 rrcurveto
          endchar
        </CharString>
        <CharString name="lightshade">
          0 1080 1920 rmoveto
          120 120 -120 hlineto
          -960 -120 rmoveto
          120 120 -120 hlineto
          240 -120 rmoveto
          120 120 -120 hlineto
          240 -120 rmoveto
          120 120 -120 hlineto
          240 -120 rmoveto
          120 120 -120 hlineto
          240 -360 rmoveto
          120 120 -120 hlineto
          -960 -120 rmoveto
          120 120 -120 hlineto
          240 -120 rmoveto
          120 120 -120 hlineto
          240 -120 rmoveto
          120 120 -120 hlineto
          240 -120 rmoveto
          120 120 -120 hlineto
          240 -360 rmoveto
          120 120 -120 hlineto
          -960 -120 rmoveto
          120 120 -120 hlineto
          240 -120 rmoveto
          120 120 -120 hlineto
          240 -120 rmoveto
          120 120 -120 hlineto
          240 -120 rmoveto
          120 120 -120 hlineto
          240 -360 rmoveto
          120 120 -120 hlineto
          -960 -120 rmoveto
          120 120 -120 hlineto
          240 -120 rmoveto
          120 120 -120 hlineto
          240 -120 rmoveto
          120 120 -120 hlineto
          240 -120 rmoveto
          120 120 -120 hlineto
          240 -360 rmoveto
          120 120 -120 hlineto
          -960 -120 rmoveto
          120 120 -120 hlineto
          240 -120 rmoveto
          120 120 -120 hlineto
          240 -120 rmoveto
          120 120 -120 hlineto
          240 -120 rmoveto
          120 120 -120 hlineto
          240 -360 rmoveto
          120 120 -120 hlineto
          -960 -120 rmoveto
          120 120 -120 hlineto
          240 -120 rmoveto
          120 120 -120 hlineto
          240 -120 rmoveto
          120 120 -120 hlineto
          240 -120 rmoveto
          120 120 -120 hlineto
          240 -360 rmoveto
          120 120 -120 hlineto
          -960 -120 rmoveto
          120 120 -120 hlineto
          240 -120 rmoveto
          120 120 -120 hlineto
          240 -120 rmoveto
          120 120 -120 hlineto
          240 -120 rmoveto
          120 120 -120 hlineto
          240 -360 rmoveto
          120 120 -120 hlineto
          -960 -120 rmoveto
          120 120 -120 hlineto
          240 -120 rmoveto
          120 120 -120 hlineto
          240 -120 rmoveto
          120 120 -120 hlineto
          240 -120 rmoveto
          120 120 -120 hlineto
          240 -360 rmoveto
          120 120 -120 hlineto
          -960 -120 rmoveto
          120 120 -120 hlineto
          240 -120 rmoveto
          120 120 -120 hlineto
          240 -120 rmoveto
          120 120 -120 hlineto
          240 -120 rmoveto
          120 120 -120 hlineto
          240 -360 rmoveto
          120 120 -120 hlineto
          -960 -120 rmoveto
          120 120 -120 hlineto
          240 -120 rmoveto
          120 120 -120 hlineto
          240 -120 rmoveto
          120 120 -120 hlineto
          240 -120 rmoveto
          120 120 -120 hlineto
          240 -360 rmoveto
          120 120 -120 hlineto
          -960 -120 rmoveto
          120 120 -120 hlineto
          240 -120 rmoveto
          120 120 -120 hlineto
          240 -120 rmoveto
          120 120 -120 hlineto
          240 -120 rmoveto
          120 120 -120 hlineto
          endchar
        </CharString>
        <CharString name="lowerfiveeighthsblock">
          0 -600 vmoveto
          1200 1650 -1200 hlineto
          endchar
        </CharString>
        <CharString name="lowerhalfblock">
          0 -600 vmoveto
          1200 1320 -1200 hlineto
          endchar
        </CharString>
        <CharString name="loweroneeighthblock">
          0 -600 vmoveto
          1200 330 -1200 hlineto
          endchar
        </CharString>
        <CharString name="loweronequarterblock">
          0 -600 vmoveto
          1200 660 -1200 hlineto
          endchar
        </CharString>
        <CharString name="lowerseveneighthsblock">
          0 -600 vmoveto
          1200 2310 -1200 hlineto
          endchar
        </CharString>
        <CharString name="lowerthreeeighthsblock">
          0 -600 vmoveto
          1200 990 -1200 hlineto
          endchar
        </CharString>
        <CharString name="lowerthreequartersblock">
          0 -600 vmoveto
          1200 1980 -1200 hlineto
          endchar
        </CharString>
        <CharString name="m">
          0 574 -16 rmoveto
          22 0 20 8 18 15 18 15 12 18 5 22 rrcurveto
          158 745 rlineto
          7 29 15 26 23 22 23 23 26 11 29 0 60 0 30 -29 0 -57 0 -12 -43 -207 -85 -402 -16 -74 -8 -47 0 -18 0 -29 6 -20 13 -11 12 -11 16 -7 20 -3 20 -4 33 -2 48 0 rrcurveto
          43 0 38 9 33 19 38 22 19 18 0 15 0 11 -3 8 -6 5 -6 5 -8 2 -10 0 -7 0 -10 -5 -13 -10 -13 -10 -15 -5 -17 0 -44 0 -22 29 0 59 0 11 46 224 93 437 rrcurveto
          6 31 3 27 0 24 0 42 -9 33 -17 24 -28 37 -43 19 -59 0 -64 0 -50 -20 -36 -40 -10 -11 -12 -17 -15 -22 -6 -13 -9 -6 -10 0 -12 0 -6 11 0 23 0 30 -9 23 -17 17 rrcurveto
          -18 17 -34 8 -49 0 -63 0 -51 -30 -38 -60 -8 -18 -12 -11 -16 -4 -9 9 -4 9 0 7 0 11 1 10 1 10 rrcurveto
          1 13 rlineto
          0 36 -16 18 -31 0 -19 0 -18 -7 -18 -14 -17 -14 -11 -17 -4 -20 -134 -630 -67 -319 0 -6 0 -13 4 -12 8 -10 10 -13 15 -7 20 0 22 0 20 8 18 15 18 15 12 18 5 22 rrcurveto
          155 731 rlineto
          9 37 17 31 25 23 25 24 26 12 27 0 28 0 22 -8 16 -17 16 -17 8 -21 0 -24 0 -10 -54 -259 -108 -508 -1 -5 -1 -5 0 -5 0 -13 4 -13 9 -11 10 -13 15 -7 19 0 rrcurveto
          endchar
        </CharString>
        <CharString name="mediumshade">
          0 1080 1920 rmoveto
          120 120 -120 hlineto
          -240 -120 rmoveto
          120 120 -120 hlineto
          -240 -120 rmoveto
          120 120 -120 hlineto
          -240 -120 rmoveto
          120 120 -120 hlineto
          -240 -120 rmoveto
          120 120 -120 hlineto
          840 -240 rmoveto
          120 120 -120 hlineto
          -240 -120 rmoveto
          120 120 -120 hlineto
          -240 -120 rmoveto
          120 120 -120 hlineto
          -240 -120 rmoveto
          120 120 -120 hlineto
          -240 -120 rmoveto
          120 120 -120 hlineto
          1080 -240 rmoveto
          120 120 -120 hlineto
          -240 -120 rmoveto
          120 120 -120 hlineto
          -720 -120 rmoveto
          120 120 -120 hlineto
          480 -120 rmoveto
          120 120 -120 hlineto
          -240 -120 rmoveto
          120 120 -120 hlineto
          600 -240 rmoveto
          120 120 -120 hlineto
          -720 -120 rmoveto
          120 120 -120 hlineto
          480 -120 rmoveto
          120 120 -120 hlineto
          -720 -120 rmoveto
          120 120 -120 hlineto
          480 -120 rmoveto
          120 120 -120 hlineto
          -120 -240 rmoveto
          120 120 -120 hlineto
          720 -120 rmoveto
          120 120 -120 hlineto
          -240 -120 rmoveto
          120 120 -120 hlineto
          -720 -120 rmoveto
          120 120 -120 hlineto
          480 -120 rmoveto
          120 120 -120 hlineto
          360 -240 rmoveto
          120 120 -120 hlineto
          -480 -120 rmoveto
          120 120 -120 hlineto
          -240 -120 rmoveto
          120 120 -120 hlineto
          -240 -120 rmoveto
          120 120 -120 hlineto
          720 -120 rmoveto
          120 120 -120 hlineto
          360 -240 rmoveto
          120 120 -120 hlineto
          -720 -120 rmoveto
          120 120 -120 hlineto
          480 -120 rmoveto
          120 120 -120 hlineto
          -240 -120 rmoveto
          120 120 -120 hlineto
          -480 -120 rmoveto
          120 120 -120 hlineto
          600 -240 rmoveto
          120 120 -120 hlineto
          -480 -120 rmoveto
          120 120 -120 hlineto
          240 -120 rmoveto
          120 120 -120 hlineto
          480 -120 rmoveto
          120 120 -120 hlineto
          -960 -120 rmoveto
          120 120 -120 hlineto
          600 -240 rmoveto
          120 120 -120 hlineto
          480 -120 rmoveto
          120 120 -120 hlineto
          -720 -120 rmoveto
          120 120 -120 hlineto
          -240 -120 rmoveto
          120 120 -120 hlineto
          720 -120 rmoveto
          120 120 -120 hlineto
          -840 -240 rmoveto
          120 120 -120 hlineto
          960 -120 rmoveto
          120 120 -120 hlineto
          -240 -120 rmoveto
          120 120 -120 hlineto
          -480 -120 rmoveto
          120 120 -120 hlineto
          240 -120 rmoveto
          120 120 -120 hlineto
          600 -240 rmoveto
          120 120 -120 hlineto
          -480 -120 rmoveto
          120 120 -120 hlineto
          -240 -120 rmoveto
          120 120 -120 hlineto
          -240 -120 rmoveto
          120 120 -120 hlineto
          720 -120 rmoveto
          120 120 -120 hlineto
          -360 -240 rmoveto
          120 120 -120 hlineto
          240 -120 rmoveto
          120 120 -120 hlineto
          -720 -120 rmoveto
          120 120 -120 hlineto
          240 -120 rmoveto
          120 120 -120 hlineto
          720 -120 rmoveto
          120 120 -120 hlineto
          -360 -240 rmoveto
          120 120 -120 hlineto
          -480 -120 rmoveto
          120 120 -120 hlineto
          240 -120 rmoveto
          120 120 -120 hlineto
          720 -120 rmoveto
          120 120 -120 hlineto
          -240 -120 rmoveto
          120 120 -120 hlineto
          -120 -240 rmoveto
          120 120 -120 hlineto
          -480 -120 rmoveto
          120 120 -120 hlineto
          720 -120 rmoveto
          120 120 -120 hlineto
          -480 -120 rmoveto
          120 120 -120 hlineto
          -480 -120 rmoveto
          120 120 -120 hlineto
          840 -240 rmoveto
          120 120 -120 hlineto
          -480 -120 rmoveto
          120 120 -120 hlineto
          240 -120 rmoveto
          120 120 -120 hlineto
          480 -120 rmoveto
          120 120 -120 hlineto
          -960 -120 rmoveto
          120 120 -120 hlineto
          840 -240 rmoveto
          120 120 -120 hlineto
          -960 -120 rmoveto
          120 120 -120 hlineto
          480 -120 rmoveto
          120 120 -120 hlineto
          240 -120 rmoveto
          120 120 -120 hlineto
          -480 -120 rmoveto
          120 120 -120 hlineto
          -120 -240 rmoveto
          120 120 -120 hlineto
          720 -120 rmoveto
          120 120 -120 hlineto
          -240 -120 rmoveto
          120 120 -120 hlineto
          -240 -120 rmoveto
          120 120 -120 hlineto
          720 -120 rmoveto
          120 120 -120 hlineto
          -120 -240 rmoveto
          120 120 -120 hlineto
          -240 -120 rmoveto
          120 120 -120 hlineto
          -720 -120 rmoveto
          120 120 -120 hlineto
          480 -120 rmoveto
          120 120 -120 hlineto
          -240 -120 rmoveto
          120 120 -120 hlineto
          840 -240 rmoveto
          120 120 -120 hlineto
          -240 -120 rmoveto
          120 120 -120 hlineto
          -720 -120 rmoveto
          120 120 -120 hlineto
          480 -120 rmoveto
          120 120 -120 hlineto
          -240 -120 rmoveto
          120 120 -120 hlineto
          -120 -240 rmoveto
          120 120 -120 hlineto
          720 -120 rmoveto
          120 120 -120 hlineto
          -240 -120 rmoveto
          120 120 -120 hlineto
          -240 -120 rmoveto
          120 120 -120 hlineto
          -480 -120 rmoveto
          120 120 -120 hlineto
          1080 -240 rmoveto
          120 120 -120 hlineto
          -720 -120 rmoveto
          120 120 -120 hlineto
          480 -120 rmoveto
          120 120 -120 hlineto
          -240 -120 rmoveto
          120 120 -120 hlineto
          -480 -120 rmoveto
          120 120 -120 hlineto
          360 -240 rmoveto
          120 120 -120 hlineto
          480 -120 rmoveto
          120 120 -120 hlineto
          -240 -120 rmoveto
          120 120 -120 hlineto
          -480 -120 rmoveto
          120 120 -120 hlineto
          -240 -120 rmoveto
          120 120 -120 hlineto
          endchar
        </CharString>
        <CharString name="n">
          0 1023 -15 rmoveto
          43 0 38 9 33 19 38 22 19 18 0 15 0 11 -3 8 -6 5 -6 5 -8 2 -10 0 -7 0 -10 -5 -13 -10 -13 -10 -15 -5 -17 0 -45 0 -23 29 0 59 0 12 34 164 67 315 rrcurveto
          13 62 7 54 0 48 0 69 -14 53 -27 38 -43 62 -76 31 -109 0 -93 -1 -99 -45 -104 -90 -13 -10 -11 -5 -9 0 -17 0 -8 9 0 19 0 4 1 7 2 10 5 18 2 14 0 10 rrcurveto
          0 15 -4 13 -9 11 -10 14 -16 7 -20 0 -21 0 -20 -8 -20 -16 -20 -16 -12 -20 -5 -24 -132 -621 -66 -314 0 -7 0 -13 4 -11 7 -10 11 -13 16 -7 22 0 25 0 21 7 16 15 rrcurveto
          15 15 11 20 5 25 rrcurveto
          117 548 rlineto
          21 94 53 73 86 53 72 41 68 21 64 0 114 0 57 -60 0 -121 0 -26 -3 -28 -6 -32 rrcurveto
          -91 -432 rlineto
          -14 -66 -7 -42 0 -18 0 -21 7 -17 13 -15 14 -15 17 -9 20 -4 20 -4 32 -2 45 0 rrcurveto
          endchar
        </CharString>
        <CharString name="nine">
          0 802 1262 rmoveto
          68 0 52 -24 34 -48 35 -48 17 -64 0 -79 0 -86 -19 -99 -39 -112 -119 -33 -89 -16 -59 0 -56 0 -39 2 -21 5 -79 17 -40 70 -1 122 0 115 47 101 93 85 67 61 71 31 77 0 rrcurveto
          50 153 rmoveto
          -107 0 -90 -22 -73 -43 -72 -44 -63 -58 -54 -74 -70 -103 -35 -116 0 -130 rrcurveto
          -24 vlineto
          4 -177 94 -95 181 -14 28 -3 27 -1 26 0 57 0 77 9 98 19 -140 -247 -181 -151 -222 -53 -57 -13 -37 -14 -15 -15 -16 -14 -8 -13 0 -12 0 -1 1 -2 2 -2 10 -11 13 -6 16 0 rrcurveto
          215 4 187 77 160 149 106 95 86 128 64 161 30 15 25 16 21 15 75 57 38 41 0 26 0 9 -6 4 -12 0 -18 0 -41 -13 -63 -26 33 125 17 109 0 91 0 231 -104 116 -207 0 rrcurveto
          endchar
        </CharString>
        <CharString name="northeastarrow">
          0 138 174 rmoveto
          699 705 rlineto
          19 18 18 20 20 23 19 22 16 21 13 18 rrcurveto
          37 -10 rlineto
          -4 -26 -3 -29 -3 -31 -3 -32 -1 -32 0 -33 rrcurveto
          -383 130 800 -800 -126 375 vlineto
          33 0 31 1 29 3 29 3 27 2 24 2 rrcurveto
          5 -36 rlineto
          -16 -13 -18 -15 -20 -16 -20 -17 -19 -17 -18 -19 rrcurveto
          -696 -701 rlineto
          endchar
        </CharString>
        <CharString name="northwestarrow">
          0 1058 171 rmoveto
          101 105 -696 702 rlineto
          -17 18 -18 17 -21 17 -20 16 -19 15 -16 13 rrcurveto
          5 36 rlineto
          24 -2 27 -2 29 -3 29 -3 31 -1 33 0 rrcurveto
          375 126 -800 -800 130 383 hlineto
          0 33 -2 32 -4 30 -4 31 -4 29 -4 26 rrcurveto
          36 10 rlineto
          15 -18 17 -21 18 -22 19 -23 18 -20 19 -18 rrcurveto
          endchar
        </CharString>
        <CharString name="numbersign">
          0 609 625 rmoveto
          103 484 51 244 0 5 0 14 -4 12 -8 10 -12 14 -17 7 -21 0 -21 0 -19 -7 -17 -14 -18 -15 -11 -17 -5 -21 rrcurveto
          -152 -716 rlineto
          -60 -640 rmoveto
          21 0 19 7 18 15 17 14 11 18 5 21 rrcurveto
          41 195 rlineto
          -151 hlineto
          -29 -136 -14 -71 0 -5 0 -14 4 -12 9 -10 11 -15 17 -7 21 0 rrcurveto
          25 900 rmoveto
          32 150 rlineto
          -106 hlineto
          -21 0 -20 -7 -17 -14 -23 -20 -12 -23 0 -28 0 -14 4 -12 9 -10 11 -15 16 -7 21 0 rrcurveto
          941 hmoveto
          21 0 20 7 17 15 23 20 12 24 0 27 0 14 -4 12 -8 10 -12 14 -16 7 -21 0 rrcurveto
          -505 hlineto
          -32 -150 rlineto
          -40 -520 rmoveto
          31 150 rlineto
          -506 hlineto
          -21 0 -19 -7 -17 -15 -23 -19 -12 -23 0 -28 0 -14 4 -12 9 -10 11 -15 16 -7 21 0 rrcurveto
          941 hmoveto
          21 0 19 7 18 15 23 18 12 23 0 28 0 14 -5 12 -8 11 -12 15 -16 7 -21 0 rrcurveto
          -105 hlineto
          -31 -150 rlineto
          75 780 rmoveto
          29 137 15 71 0 5 0 14 -4 12 -8 10 -11 14 -17 7 -21 0 -21 0 -19 -7 -17 -14 -18 -15 -11 -17 -5 -21 rrcurveto
          -42 -196 rlineto
          -170 -1160 rmoveto
          21 0 19 7 17 15 17 14 11 18 5 21 rrcurveto
          152 715 rlineto
          -150 hlineto
          -103 -483 -51 -244 0 -5 0 -14 4 -12 9 -10 11 -15 17 -7 21 0 rrcurveto
          endchar
        </CharString>
        <CharString name="numbersign_braceleft">
          0 282 885 rmoveto
          54 0 55 12 56 24 rrcurveto
          319 137 rlineto
          17 8 17 12 17 15 17 15 10 15 3 15 rrcurveto
          19 89 rlineto
          7 41 5 28 3 16 13 65 40 52 66 39 43 25 60 12 77 0 rrcurveto
          69 hlineto
          18 0 17 7 15 13 22 16 12 24 0 33 0 15 -4 10 -7 7 -9 12 -15 6 -19 0 -104 0 -65 -1 -25 -1 -70 -5 -60 -21 -49 -35 -93 -59 -60 -91 -26 -122 -5 -27 -10 -55 -15 -85 rrcurveto
          -6 -27 -19 -26 -31 -23 -32 -23 -29 -12 -27 0 rrcurveto
          -968 hlineto
          -32 -150 rlineto
          -330 hmoveto
          32 150 rlineto
          -106 hlineto
          -21 0 -20 -7 -17 -14 -23 -20 -12 -23 0 -28 0 -14 4 -12 9 -10 11 -15 16 -7 21 0 rrcurveto
          1559 -365 rmoveto
          13 0 9 9 3 17 rrcurveto
          1 5 rlineto
          0 8 -4 7 -7 8 rrcurveto
          -73 81 rlineto
          -8 10 -5 11 0 11 0 23 11 19 21 16 rrcurveto
          108 81 rlineto
          15 11 8 13 0 13 0 11 -5 6 -11 0 -5 0 -113 -46 -222 -93 -30 -9 -14 -17 0 -25 0 -15 8 -10 18 -6 183 -93 94 -46 5 0 rrcurveto
          -1478 -535 rmoveto
          21 0 19 7 18 15 17 14 11 18 5 21 rrcurveto
          41 195 rlineto
          -151 hlineto
          -29 -136 -14 -71 0 -5 0 -14 4 -12 9 -10 11 -15 17 -7 21 0 rrcurveto
          211 640 rmoveto
          103 484 51 244 0 5 0 14 -4 12 -8 10 -12 14 -17 7 -21 0 -21 0 -19 -7 -17 -14 -18 -15 -11 -17 -5 -21 rrcurveto
          -152 -716 rlineto
          340 -640 rmoveto
          21 0 19 7 17 15 17 14 11 18 5 21 rrcurveto
          152 715 rlineto
          -150 hlineto
          -103 -483 -51 -244 0 -5 0 -14 4 -12 9 -10 11 -15 17 -7 21 0 rrcurveto
          320 1160 rmoveto
          29 137 15 71 0 5 0 14 -4 12 -8 10 -11 14 -17 7 -21 0 -21 0 -19 -7 -17 -14 -18 -15 -11 -17 -5 -21 rrcurveto
          -42 -196 rlineto
          1107 -1393 rmoveto
          19 0 17 6 15 13 15 10 11 18 5 27 1 6 1 6 0 5 0 13 -4 11 -8 8 -9 13 -14 7 -18 0 rrcurveto
          -68 hlineto
          -148 0 -74 51 0 101 0 20 6 30 10 40 6 21 10 41 13 63 rrcurveto
          1 10 rlineto
          0 11 -4 12 -7 12 -10 15 -12 12 -15 8 rrcurveto
          -261 136 rlineto
          -46 25 -50 12 -54 0 rrcurveto
          -329 hlineto
          -31 -150 rlineto
          568 hlineto
          27 0 22 -9 17 -18 17 -19 8 -20 0 -23 0 -18 -6 -37 -12 -55 rrcurveto
          -18 -79 rlineto
          -7 -33 -3 -31 0 -28 0 -77 24 -60 50 -43 40 -37 51 -20 62 -3 25 -2 64 -1 103 0 rrcurveto
          -1362 613 rmoveto
          31 150 rlineto
          -506 hlineto
          -21 0 -19 -7 -17 -15 -23 -19 -12 -23 0 -28 0 -14 4 -12 9 -10 11 -15 16 -7 21 0 rrcurveto
          endchar
        </CharString>
        <CharString name="numbersign_bracketleft">
          0 786 -255 rmoveto
          21 0 19 7 18 15 23 19 12 23 0 27 0 14 -5 12 -8 11 -11 15 -16 7 -21 0 rrcurveto
          -337 hlineto
          -26 2 -14 11 0 21 0 4 108 510 216 1016 11 31 19 15 28 0 rrcurveto
          337 hlineto
          21 0 19 7 18 15 23 19 12 23 0 27 0 14 -5 12 -8 11 -11 15 -16 7 -21 0 rrcurveto
          -456 hlineto
          -22 0 -20 -8 -19 -15 -19 -15 -11 -19 -5 -21 rrcurveto
          -115 -542 rlineto
          -940 hlineto
          -32 -150 rlineto
          940 hlineto
          -79 -370 rlineto
          -540 hlineto
          -31 -150 rlineto
          540 hlineto
          -78 -366 -39 -186 0 -5 0 -15 4 -13 9 -12 12 -15 17 -8 22 0 rrcurveto
          -817 620 rmoveto
          31 150 rlineto
          -506 hlineto
          -21 0 -19 -7 -17 -15 -23 -19 -12 -23 0 -28 0 -14 4 -12 9 -10 11 -15 16 -7 21 0 rrcurveto
          216 520 rmoveto
          32 150 rlineto
          -106 hlineto
          -21 0 -20 -7 -17 -14 -23 -20 -12 -23 0 -28 0 -14 4 -12 9 -10 11 -15 16 -7 21 0 rrcurveto
          81 -900 rmoveto
          21 0 19 7 18 15 17 14 11 18 5 21 rrcurveto
          41 195 rlineto
          -151 hlineto
          -29 -136 -14 -71 0 -5 0 -14 4 -12 9 -10 11 -15 17 -7 21 0 rrcurveto
          211 640 rmoveto
          103 484 51 244 0 5 0 14 -4 12 -8 10 -12 14 -17 7 -21 0 -21 0 -19 -7 -17 -14 -18 -15 -11 -17 -5 -21 rrcurveto
          -152 -716 rlineto
          340 -640 rmoveto
          21 0 19 7 17 15 17 14 11 18 5 21 rrcurveto
          152 715 rlineto
          -150 hlineto
          -103 -483 -51 -244 0 -5 0 -14 4 -12 9 -10 11 -15 17 -7 21 0 rrcurveto
          320 1160 rmoveto
          29 137 15 71 0 5 0 14 -4 12 -8 10 -11 14 -17 7 -21 0 -21 0 -19 -7 -17 -14 -18 -15 -11 -17 -5 -21 rrcurveto
          -42 -196 rlineto
          endchar
        </CharString>
        <CharString name="numbersign_expand">
          0 798 -15 rmoveto
          20 0 19 8 18 15 17 15 11 17 5 20 rrcurveto
          143 675 rlineto
          -150 hlineto
          -97 -456 -48 -231 0 -4 0 -13 4 -12 9 -11 12 -15 16 -8 21 0 rrcurveto
          -181 680 rmoveto
          97 456 49 230 0 5 0 14 -5 12 -8 11 -12 15 -16 7 -21 0 -20 0 -19 -7 -18 -15 -19 -15 -11 -17 -4 -20 rrcurveto
          -144 -676 rlineto
          -68 -680 rmoveto
          20 0 19 8 18 15 18 15 11 17 5 20 rrcurveto
          33 155 rlineto
          -151 hlineto
          -23 -109 -12 -58 0 -4 0 -13 4 -12 9 -11 12 -15 16 -8 21 0 rrcurveto
          -15 900 rmoveto
          32 150 rlineto
          -66 hlineto
          -20 0 -19 -7 -18 -15 -24 -20 -11 -22 0 -25 0 -14 4 -13 9 -11 11 -15 16 -8 20 0 rrcurveto
          1266 hmoveto
          32 150 rlineto
          -790 hlineto
          -32 -150 rlineto
          -120 -520 rmoveto
          31 150 rlineto
          -466 hlineto
          -20 0 -19 -7 -18 -15 -23 -20 -12 -23 0 -26 0 -13 4 -12 9 -11 12 -15 16 -8 20 0 rrcurveto
          1666 hmoveto
          31 150 rlineto
          -790 hlineto
          -31 -150 rlineto
          44 820 rmoveto
          23 109 12 57 0 5 0 14 -5 12 -8 11 -11 15 -16 7 -21 0 -20 0 -19 -7 -18 -15 -19 -15 -11 -17 -4 -20 rrcurveto
          -33 -156 rlineto
          endchar
        </CharString>
        <CharString name="numbersign_parenleft">
          0 791 -355 rmoveto
          25 0 23 11 19 21 13 12 6 17 0 23 0 17 -7 14 -13 11 -102 81 -81 96 -60 113 -60 108 -29 119 0 132 0 63 6 65 14 68 rrcurveto
          19 90 rlineto
          41 182 101 177 161 173 106 113 121 97 137 81 30 18 14 26 0 32 0 7 -1 6 -2 5 -9 21 -18 11 -27 0 -12 0 -10 -2 -9 -5 -173 -91 -150 -115 -127 -139 -78 -86 -65 -89 -51 -93 rrcurveto
          -958 hlineto
          -32 -150 rlineto
          917 hlineto
          -41 -106 -30 -123 -21 -141 rrcurveto
          -504 hlineto
          -31 -150 rlineto
          530 hlineto
          5 -137 28 -123 53 -109 69 -139 101 -114 134 -91 7 -5 9 -2 12 0 rrcurveto
          -1278 720 rmoveto
          31 150 rlineto
          -506 hlineto
          -21 0 -19 -7 -17 -15 -23 -19 -12 -23 0 -28 0 -14 4 -12 9 -10 11 -15 16 -7 21 0 rrcurveto
          216 520 rmoveto
          32 150 rlineto
          -106 hlineto
          -21 0 -20 -7 -17 -14 -23 -20 -12 -23 0 -28 0 -14 4 -12 9 -10 11 -15 16 -7 21 0 rrcurveto
          81 -900 rmoveto
          21 0 19 7 18 15 17 14 11 18 5 21 rrcurveto
          41 195 rlineto
          -151 hlineto
          -29 -136 -14 -71 0 -5 0 -14 4 -12 9 -10 11 -15 17 -7 21 0 rrcurveto
          211 640 rmoveto
          103 484 51 244 0 5 0 14 -4 12 -8 10 -12 14 -17 7 -21 0 -21 0 -19 -7 -17 -14 -18 -15 -11 -17 -5 -21 rrcurveto
          -152 -716 rlineto
          340 -640 rmoveto
          21 0 19 7 17 15 17 14 11 18 5 21 rrcurveto
          152 715 rlineto
          -150 hlineto
          -103 -483 -51 -244 0 -5 0 -14 4 -12 9 -10 11 -15 17 -7 21 0 rrcurveto
          320 1160 rmoveto
          29 137 15 71 0 5 0 14 -4 12 -8 10 -11 14 -17 7 -21 0 -21 0 -19 -7 -17 -14 -18 -15 -11 -17 -5 -21 rrcurveto
          -42 -196 rlineto
          endchar
        </CharString>
        <CharString name="o">
          0 643 141 rmoveto
          -92 0 -59 26 -25 52 -25 52 -13 52 0 53 0 44 6 51 12 57 26 123 43 94 59 66 60 65 75 33 90 0 92 0 58 -26 25 -52 25 -52 13 -53 0 -54 0 -44 -6 -50 -12 -56 rrcurveto
          -53 -254 -118 -127 -181 0 rrcurveto
          -40 -156 rmoveto
          91 0 80 21 70 42 69 42 62 61 56 80 55 79 41 100 25 120 13 64 7 57 0 52 0 45 -5 40 -9 37 -22 78 -35 60 -51 41 -50 41 -71 20 -90 0 -90 0 -80 -21 -69 -42 rrcurveto
          -70 -41 -62 -61 -56 -80 -55 -79 -40 -99 -25 -118 -14 -65 -7 -59 0 -53 0 -45 5 -40 9 -36 44 -161 106 -80 168 0 rrcurveto
          endchar
        </CharString>
        <CharString name="one">
          0 995 15 rmoveto
          21 0 20 8 19 16 25 21 13 23 2 27 0 17 -5 14 -10 11 -10 11 -14 5 -19 0 rrcurveto
          -249 hlineto
          -31 7 -15 19 0 34 171 723 86 370 0 17 0 21 -8 18 -16 15 -15 15 -22 8 -27 0 -46 0 -31 -17 -18 -34 -75 -157 -83 -81 -91 -6 -90 -5 -45 -21 0 -37 1 -42 46 -21 93 0 rrcurveto
          105 0 87 83 69 165 rrcurveto
          -245 -1019 rlineto
          -3 -14 -8 -12 -12 -12 -13 -11 -14 -6 -15 0 rrcurveto
          -207 hlineto
          -21 0 -22 -9 -23 -17 -23 -17 -11 -25 0 -32 0 -14 5 -12 10 -11 10 -11 14 -5 18 0 rrcurveto
          endchar
        </CharString>
        <CharString name="p">
          0 663 143 rmoveto
          -76 0 -57 27 -40 54 -31 46 -16 46 0 48 0 16 2 17 3 16 rrcurveto
          45 211 rlineto
          18 82 41 66 66 50 65 50 67 25 68 0 145 -3 72 -74 0 -146 0 -37 -5 -42 -10 -48 -30 -138 -48 -102 -67 -69 -63 -63 -71 -32 -78 0 rrcurveto
          -479 -616 rmoveto
          20 0 19 8 19 15 18 15 12 20 5 24 rrcurveto
          88 412 rlineto
          7 33 18 17 28 0 17 0 14 -7 13 -15 45 -43 62 -21 81 0 115 0 102 47 90 95 101 106 70 145 39 186 16 73 8 65 0 57 0 204 -101 102 -202 0 -97 0 -86 -37 -76 -74 rrcurveto
          -11 -10 -11 -5 -12 0 -19 0 -9 15 0 31 rrcurveto
          3 38 rlineto
          0 28 -18 14 -35 0 -21 0 -20 -7 -19 -15 -19 -14 -12 -20 -5 -24 -198 -928 -99 -467 0 -6 0 -14 4 -12 9 -10 12 -14 16 -7 19 0 rrcurveto
          endchar
        </CharString>
        <CharString name="parenleft">
          0 801 -304 rmoveto
          26 0 23 11 19 21 12 11 7 17 0 22 0 18 -7 14 -13 11 -102 81 -81 97 -60 113 -60 108 -29 119 0 132 0 63 6 65 14 68 rrcurveto
          19 90 rlineto
          41 182 101 177 161 173 106 113 121 97 137 82 30 17 14 25 0 33 0 7 -1 5 -2 5 -9 22 -18 11 -27 0 -12 0 -10 -2 -9 -5 -172 -91 -150 -115 -128 -139 -171 -187 -109 -207 -48 -225 rrcurveto
          -25 -114 -12 -98 0 -83 0 -142 29 -131 58 -120 69 -138 102 -115 133 -91 6 -5 9 -2 12 0 rrcurveto
          endchar
        </CharString>
        <CharString name="parenright">
          0 269 -304 rmoveto
          12 0 10 2 9 5 172 91 150 115 128 138 171 187 110 214 51 241 rrcurveto
          10 46 rlineto
          17 78 8 76 0 73 0 139 -30 131 -59 122 -69 139 -102 115 -133 91 -6 5 -9 2 -12 0 -27 0 -22 -11 -19 -22 -13 -14 -6 -17 0 -20 0 -17 7 -14 13 -10 102 -82 80 -97 58 -113 rrcurveto
          62 -122 31 -125 0 -127 0 -52 -5 -53 -11 -53 rrcurveto
          -19 -90 rlineto
          -47 -211 -102 -185 -156 -159 -108 -113 -122 -97 -137 -81 -30 -18 -14 -25 0 -34 0 -7 1 -5 2 -4 10 -21 18 -11 26 0 rrcurveto
          endchar
        </CharString>
        <CharString name="percent">
          0 541 850 rmoveto
          -67 0 -34 40 0 79 0 26 4 31 7 35 34 160 62 80 90 0 65 0 33 -42 0 -84 0 -32 -5 -38 -9 -44 -30 -141 -60 -70 -90 0 rrcurveto
          322 -741 rmoveto
          -67 0 -34 40 0 79 0 26 4 31 7 35 34 160 62 80 90 0 65 0 33 -42 0 -84 0 -32 -5 -38 -9 -44 -30 -141 -60 -70 -90 0 rrcurveto
          56 669 rmoveto
          17 0 16 6 16 13 rrcurveto
          353 284 rlineto
          26 21 13 28 0 35 0 16 -4 14 -8 12 -12 17 -20 10 -29 1 -25 0 -25 -10 -25 -20 rrcurveto
          -323 -316 rlineto
          -18 -18 -9 -21 0 -23 0 -32 19 -16 38 -1 rrcurveto
          -80 -783 rmoveto
          87 0 74 31 61 61 61 61 41 77 20 95 10 50 6 44 0 39 0 56 -11 45 -21 34 -36 57 -61 29 -87 0 -181 0 -116 -118 -53 -236 -8 -37 -4 -33 0 -31 0 -54 12 -45 23 -37 rrcurveto
          37 -59 61 -29 85 0 rrcurveto
          -323 741 rmoveto
          87 0 74 31 61 61 61 61 41 77 21 95 10 50 6 44 0 39 0 56 -11 45 -21 34 -36 57 -61 29 -87 0 -181 0 -116 -118 -53 -236 -8 -37 -4 -33 0 -31 0 -54 12 -45 23 -37 rrcurveto
          36 -59 61 -29 85 0 rrcurveto
          -304 -571 rmoveto
          25 0 25 10 24 20 rrcurveto
          324 316 rlineto
          18 18 9 21 0 23 0 13 -4 11 -7 8 -11 11 -15 6 -21 0 -16 0 -17 -6 -17 -13 rrcurveto
          -351 -284 rlineto
          -19 -15 -13 -22 -7 -31 -1 -5 0 -5 0 -5 0 -15 4 -14 9 -14 11 -19 21 -9 29 0 rrcurveto
          endchar
        </CharString>
        <CharString name="period">
          0 601 -15 rmoveto
          39 0 36 15 35 29 45 38 23 47 0 56 0 27 -8 23 -15 21 -22 29 -30 15 -39 0 -42 0 -38 -15 -35 -29 -47 -39 -23 -46 0 -53 0 -28 8 -24 17 -22 22 -29 32 -15 42 0 rrcurveto
          endchar
        </CharString>
        <CharString name="period_period">
          0 -429 -15 rmoveto
          39 0 37 15 35 29 45 39 22 47 0 56 0 26 -7 24 -15 20 -22 29 -31 15 -39 0 -43 0 -38 -15 -35 -29 -46 -39 -23 -46 0 -53 0 -28 8 -24 16 -22 22 -29 32 -15 43 0 rrcurveto
          860 hmoveto
          39 0 37 15 35 29 45 39 22 47 0 56 0 26 -7 24 -15 20 -22 29 -31 15 -39 0 -43 0 -38 -15 -35 -29 -46 -39 -23 -46 0 -53 0 -28 8 -24 16 -22 22 -29 32 -15 43 0 rrcurveto
          endchar
        </CharString>
        <CharString name="period_period_period">
          0 161 -15 rmoveto
          39 0 37 15 35 29 45 39 22 47 0 56 0 26 -7 24 -15 20 -22 29 -31 15 -39 0 -43 0 -38 -15 -35 -29 -46 -39 -23 -46 0 -53 0 -28 8 -24 16 -22 22 -29 32 -15 43 0 rrcurveto
          -760 hmoveto
          39 0 37 15 35 29 45 39 22 47 0 56 0 26 -7 24 -15 20 -22 29 -31 15 -39 0 -43 0 -38 -15 -35 -29 -46 -39 -23 -46 0 -53 0 -28 8 -24 16 -22 22 -29 32 -15 43 0 rrcurveto
          -760 hmoveto
          39 0 37 15 35 29 45 39 22 47 0 56 0 26 -7 24 -15 20 -22 29 -31 15 -39 0 -43 0 -38 -15 -35 -29 -46 -39 -23 -46 0 -53 0 -28 8 -24 16 -22 22 -29 32 -15 43 0 rrcurveto
          endchar
        </CharString>
        <CharString name="placeholder">
          0 endchar
        </CharString>
        <CharString name="plus">
          0 639 184 rmoveto
          21 0 19 8 18 15 18 15 11 17 4 21 rrcurveto
          57 265 rlineto
          265 hlineto
          21 0 19 7 18 15 23 19 12 23 0 27 0 14 -5 12 -8 11 -12 15 -16 7 -21 0 rrcurveto
          -265 hlineto
          39 182 20 93 0 6 0 14 -5 12 -8 11 -11 15 -16 7 -21 0 -21 0 -19 -7 -18 -15 -18 -15 -11 -17 -4 -21 rrcurveto
          -57 -265 rlineto
          -265 hlineto
          -21 0 -19 -7 -17 -15 -23 -19 -12 -23 0 -28 0 -13 4 -12 9 -11 11 -15 16 -7 21 0 rrcurveto
          265 hlineto
          -39 -182 -20 -93 0 -6 0 -14 5 -12 8 -11 11 -15 16 -8 21 0 rrcurveto
          endchar
        </CharString>
        <CharString name="plus_plus">
          0 519 184 rmoveto
          21 0 19 8 18 15 18 15 11 17 4 21 rrcurveto
          57 265 rlineto
          265 hlineto
          21 0 19 7 18 15 23 19 12 23 0 27 0 14 -5 12 -8 11 -12 15 -16 7 -21 0 rrcurveto
          -265 hlineto
          39 182 20 93 0 6 0 14 -5 12 -8 11 -11 15 -16 7 -21 0 -21 0 -19 -7 -18 -15 -18 -15 -11 -17 -4 -21 rrcurveto
          -57 -265 rlineto
          -810 hlineto
          39 182 20 93 0 6 0 14 -5 12 -8 11 -11 15 -16 7 -21 0 -21 0 -19 -7 -18 -15 -18 -15 -11 -17 -4 -21 rrcurveto
          -57 -265 rlineto
          -265 hlineto
          -21 0 -19 -7 -17 -15 -23 -19 -12 -23 0 -28 0 -13 4 -12 9 -11 11 -15 16 -7 21 0 rrcurveto
          265 hlineto
          -39 -182 -20 -93 0 -6 0 -14 5 -12 8 -11 11 -15 16 -8 21 0 21 0 19 8 18 15 18 15 11 17 4 21 rrcurveto
          57 265 rlineto
          810 hlineto
          -39 -182 -20 -93 0 -6 0 -14 5 -12 8 -11 11 -15 16 -8 21 0 rrcurveto
          endchar
        </CharString>
        <CharString name="plus_plus_plus">
          0 399 184 rmoveto
          21 0 19 8 18 15 18 15 11 17 4 21 rrcurveto
          57 265 rlineto
          265 hlineto
          21 0 19 7 18 15 23 19 12 23 0 27 0 14 -5 12 -8 11 -12 15 -16 7 -21 0 rrcurveto
          -265 hlineto
          39 182 20 93 0 6 0 14 -5 12 -8 11 -11 15 -16 7 -21 0 -21 0 -19 -7 -18 -15 -18 -15 -11 -17 -4 -21 rrcurveto
          -57 -265 rlineto
          -810 hlineto
          39 182 20 93 0 6 0 14 -5 12 -8 11 -11 15 -16 7 -21 0 -21 0 -19 -7 -18 -15 -18 -15 -11 -17 -4 -21 rrcurveto
          -57 -265 rlineto
          -810 hlineto
          39 182 20 93 0 6 0 14 -5 12 -8 11 -11 15 -16 7 -21 0 -21 0 -19 -7 -18 -15 -18 -15 -11 -17 -4 -21 rrcurveto
          -57 -265 rlineto
          -265 hlineto
          -21 0 -19 -7 -17 -15 -23 -19 -12 -23 0 -28 0 -13 4 -12 9 -11 11 -15 16 -7 21 0 rrcurveto
          265 hlineto
          -39 -182 -20 -93 0 -6 0 -14 5 -12 8 -11 11 -15 16 -8 21 0 21 0 19 8 18 15 18 15 11 17 4 21 rrcurveto
          57 265 rlineto
          810 hlineto
          -39 -182 -20 -93 0 -6 0 -14 5 -12 8 -11 11 -15 16 -8 21 0 21 0 19 8 18 15 18 15 11 17 4 21 rrcurveto
          57 265 rlineto
          810 hlineto
          -39 -182 -20 -93 0 -6 0 -14 5 -12 8 -11 11 -15 16 -8 21 0 rrcurveto
          endchar
        </CharString>
        <CharString name="q">
          0 612 146 rmoveto
          -92 0 -66 33 -37 66 -14 26 -7 37 0 46 0 54 9 69 18 83 48 226 114 115 180 4 70 0 54 -22 39 -44 39 -44 20 -49 0 -54 0 -21 -2 -22 -5 -23 rrcurveto
          -45 -213 rlineto
          -15 -67 -40 -63 -66 -58 -60 -53 -67 -26 -75 0 rrcurveto
          296 -626 rmoveto
          65 0 52 19 38 39 6 5 3 8 0 11 0 8 -2 7 -5 6 -4 6 -7 3 -8 0 -8 0 -11 -3 -14 -5 -13 -5 -12 -3 -10 0 -35 1 -17 17 0 32 0 6 44 207 87 409 rrcurveto
          18 84 rlineto
          89 420 45 213 0 7 0 14 -4 11 -7 8 -11 13 -16 7 -21 0 -46 0 -28 -20 -10 -40 -12 -44 -16 -22 -21 0 -13 0 -11 6 -8 12 -44 72 -64 36 -84 0 -268 0 -171 -177 -75 -355 rrcurveto
          -19 -86 -9 -77 0 -66 0 -83 15 -65 30 -47 52 -83 83 -42 113 0 82 0 73 22 63 44 20 13 16 7 14 0 26 0 13 -13 0 -26 0 -8 -23 -113 -47 -217 -5 -20 -2 -20 0 -18 rrcurveto
          1 -77 44 -38 89 0 rrcurveto
          endchar
        </CharString>
        <CharString name="quadrantlowerleft">
          0 -600 vmoveto
          600 1320 -600 hlineto
          endchar
        </CharString>
        <CharString name="quadrantlowerright">
          0 600 -600 rmoveto
          600 1320 -600 hlineto
          endchar
        </CharString>
        <CharString name="quadrantupperleft">
          0 720 vmoveto
          600 1320 -600 hlineto
          endchar
        </CharString>
        <CharString name="quadrantupperleftandlowerleftandlowerright">
          0 -600 vmoveto
          1200 1320 -600 1320 -600 hlineto
          endchar
        </CharString>
        <CharString name="quadrantupperleftandlowerright">
          0 720 vmoveto
          600 1320 -600 hlineto
          600 -2640 rmoveto
          600 1320 -600 hlineto
          endchar
        </CharString>
        <CharString name="quadrantupperleftandupperrightandlowerleft">
          0 -600 vmoveto
          600 1320 600 1320 -1200 hlineto
          endchar
        </CharString>
        <CharString name="quadrantupperleftandupperrightandlowerright">
          0 600 -600 rmoveto
          600 2640 -1220 -1320 620 hlineto
          endchar
        </CharString>
        <CharString name="quadrantupperright">
          0 600 720 rmoveto
          600 1320 -600 hlineto
          endchar
        </CharString>
        <CharString name="quadrantupperrightandlowerleft">
          0 600 720 rmoveto
          600 1320 -600 hlineto
          -600 -2640 rmoveto
          600 1320 -600 hlineto
          endchar
        </CharString>
        <CharString name="quadrantupperrightandlowerleftandlowerright">
          0 -600 vmoveto
          1200 2640 -600 -1320 -600 hlineto
          endchar
        </CharString>
        <CharString name="question">
          0 597 -15 rmoveto
          40 0 37 15 35 30 47 40 23 48 0 55 0 26 -7 23 -15 20 -22 29 -30 14 -38 0 -42 0 -39 -15 -35 -30 -48 -39 -24 -47 0 -55 0 -27 8 -24 16 -21 22 -28 31 -14 41 0 rrcurveto
          101 492 rmoveto
          48 0 33 28 19 57 19 57 58 67 99 78 107 87 68 113 30 139 8 36 4 34 0 32 0 61 -14 51 -29 43 -44 63 -80 32 -116 0 -167 0 -125 -71 -82 -143 -22 -37 -11 -31 0 -27 rrcurveto
          0 -32 19 -16 38 0 15 0 14 4 13 7 13 8 19 21 24 35 60 87 71 43 81 0 119 -1 59 -51 0 -99 0 -110 -55 -96 -110 -84 -72 -56 -55 -48 -38 -40 -37 -39 -26 -49 -12 -57 rrcurveto
          -3 -14 -2 -13 0 -11 1 -39 20 -19 41 0 rrcurveto
          endchar
        </CharString>
        <CharString name="question_question">
          0 -359 477 rmoveto
          45 0 31 25 17 49 21 63 61 70 99 79 106 85 68 113 30 139 8 36 4 35 0 31 0 61 -15 52 -29 43 -45 65 -80 32 -117 0 -167 0 -123 -70 -81 -141 -21 -36 -11 -31 0 -26 rrcurveto
          0 -35 20 -17 39 -1 14 0 14 4 13 7 13 7 18 20 23 34 61 89 72 44 82 0 117 -1 59 -49 0 -97 0 -112 -56 -97 -112 -84 -71 -56 -54 -48 -38 -39 -38 -39 -25 -48 -12 -57 rrcurveto
          -3 -14 -1 -12 0 -11 0 -41 21 -21 43 0 rrcurveto
          -100 -492 rmoveto
          39 0 36 15 35 29 45 38 23 47 0 56 0 27 -8 23 -15 21 -22 29 -30 15 -39 0 -42 0 -38 -15 -35 -29 -47 -39 -23 -46 0 -53 0 -28 8 -24 17 -22 22 -29 32 -15 42 0 rrcurveto
          1020 492 rmoveto
          45 0 31 25 17 49 21 63 61 70 99 79 106 85 68 113 30 139 8 36 4 35 0 31 0 61 -15 52 -29 43 -45 65 -80 32 -117 0 -167 0 -123 -70 -81 -141 -21 -36 -11 -31 0 -26 rrcurveto
          0 -35 20 -17 39 -1 14 0 14 4 13 7 13 7 18 20 23 34 61 89 72 44 82 0 117 -1 59 -49 0 -97 0 -112 -56 -97 -112 -84 -71 -56 -54 -48 -38 -39 -38 -39 -25 -48 -12 -57 rrcurveto
          -3 -14 -1 -12 0 -11 0 -41 21 -21 43 0 rrcurveto
          -100 -492 rmoveto
          39 0 36 15 35 29 45 38 23 47 0 56 0 27 -8 23 -15 21 -22 29 -30 15 -39 0 -42 0 -38 -15 -35 -29 -47 -39 -23 -46 0 -53 0 -28 8 -24 17 -22 22 -29 32 -15 42 0 rrcurveto
          endchar
        </CharString>
        <CharString name="quotedbl">
          0 980 1035 rmoveto
          20 0 19 8 19 15 18 15 11 17 4 20 45 212 23 108 0 5 0 14 -5 13 -8 11 -12 15 -16 7 -20 0 -20 0 -19 -7 -18 -15 -19 -15 -11 -18 -4 -20 -45 -211 -22 -109 0 -4 rrcurveto
          0 -14 4 -13 9 -11 11 -15 16 -8 20 0 rrcurveto
          -319 hmoveto
          20 0 19 8 19 15 18 15 11 17 4 20 45 212 23 108 0 5 0 14 -5 13 -8 11 -12 15 -16 7 -20 0 -20 0 -19 -7 -18 -15 -19 -15 -11 -18 -4 -20 -45 -211 -22 -109 0 -4 rrcurveto
          0 -14 4 -13 9 -11 11 -15 16 -8 20 0 rrcurveto
          endchar
        </CharString>
        <CharString name="quotesingle">
          0 821 1035 rmoveto
          20 0 19 8 19 15 18 15 11 17 4 20 45 212 23 108 0 5 0 14 -5 13 -8 11 -12 15 -16 7 -20 0 -20 0 -19 -7 -18 -15 -19 -15 -11 -18 -4 -20 -45 -211 -22 -109 0 -4 rrcurveto
          0 -14 4 -13 9 -11 11 -15 16 -8 20 0 rrcurveto
          endchar
        </CharString>
        <CharString name="r">
          0 286 -15 rmoveto
          21 0 19 7 18 15 19 15 11 19 4 23 rrcurveto
          111 519 rlineto
          18 85 56 75 95 66 95 67 82 33 70 0 104 0 52 -43 0 -86 0 -31 -8 -26 -16 -21 -17 -20 -21 -13 -25 -5 -30 -4 -15 -11 0 -17 0 -21 13 -11 27 0 86 0 62 27 37 53 rrcurveto
          33 48 18 59 1 67 0 59 -15 46 -30 31 -45 50 -66 25 -88 0 -113 0 -111 -50 -111 -100 -13 -13 -12 -6 -11 0 -18 1 -9 11 0 20 0 5 2 14 5 22 5 22 2 14 0 5 rrcurveto
          0 14 -4 11 -8 9 -11 14 -16 7 -23 0 -20 0 -19 -8 -18 -15 -18 -15 -11 -18 -5 -22 -133 -628 -67 -316 0 -5 0 -13 4 -11 7 -9 10 -13 17 -7 23 0 rrcurveto
          endchar
        </CharString>
        <CharString name="referencemark">
          0 627 140 rmoveto
          30 0 29 11 27 23 37 29 18 36 0 42 0 20 -6 17 -12 14 -15 20 -24 10 -30 0 -31 0 -29 -11 -27 -22 -35 -28 -17 -35 0 -43 0 -19 6 -17 12 -16 17 -21 22 -10 28 0 rrcurveto
          191 896 rmoveto
          30 0 29 11 27 23 37 29 18 37 0 43 0 20 -6 17 -12 14 -15 20 -24 10 -30 0 -31 0 -29 -11 -27 -22 -35 -29 -18 -35 0 -43 0 -19 6 -18 12 -16 17 -21 23 -10 28 0 rrcurveto
          -637 -866 rmoveto
          20 0 19 9 19 17 rrcurveto
          488 402 319 -405 rlineto
          12 -15 15 -7 17 0 18 0 20 9 20 17 25 20 13 22 0 24 0 12 -5 13 -10 12 rrcurveto
          -318 401 487 403 rlineto
          24 19 12 22 0 24 0 12 -5 12 -9 12 -11 14 -15 7 -18 0 -18 0 -19 -8 -18 -15 rrcurveto
          -488 -402 -319 405 rlineto
          -11 13 -14 7 -19 0 -17 0 -19 -8 -21 -16 -25 -20 -12 -21 0 -23 0 -14 5 -12 10 -11 rrcurveto
          316 -404 -485 -402 rlineto
          -26 -19 -13 -22 0 -24 0 -13 5 -12 9 -12 11 -15 14 -8 17 0 rrcurveto
          93 416 rmoveto
          30 0 29 11 27 23 37 29 18 37 0 43 0 20 -6 17 -12 14 -15 20 -24 10 -30 0 -29 0 -28 -11 -28 -22 -35 -29 -18 -35 0 -43 0 -19 6 -18 12 -16 16 -21 22 -10 28 0 rrcurveto
          893 hmoveto
          30 0 28 11 27 23 37 29 18 37 0 43 0 20 -6 17 -12 14 -15 20 -23 10 -30 0 -30 0 -29 -11 -27 -22 -35 -29 -18 -35 0 -43 0 -19 6 -18 12 -16 17 -21 22 -10 28 0 rrcurveto
          endchar
        </CharString>
        <CharString name="right_arrow_double">
          0 397 66 rmoveto
          18 0 19 7 21 15 rrcurveto
          553 456 rlineto
          24 21 12 24 0 26 0 14 -4 12 -9 11 rrcurveto
          -359 458 rlineto
          -14 15 -16 7 -18 0 -21 0 -19 -7 -18 -14 -23 -19 -12 -23 0 -27 0 -13 4 -13 8 -13 33 -41 16 -22 1 -3 0 -4 0 -3 0 -1 0 -16 -6 -14 -14 -11 -11 -9 -11 -4 -11 0 rrcurveto
          -1294 hlineto
          -20 0 -19 -7 -18 -14 -24 -20 -12 -23 0 -27 0 -14 5 -12 9 -11 12 -15 16 -7 19 0 rrcurveto
          1343 hlineto
          19 0 20 7 20 15 rrcurveto
          39 33 rlineto
          11 9 12 4 12 0 12 0 10 -4 7 -9 rrcurveto
          118 -149 rlineto
          5 -7 2 -7 0 -8 0 -15 -7 -14 -13 -13 rrcurveto
          -180 -147 rlineto
          -11 -9 -11 -4 -12 0 -12 0 -10 5 -8 10 -9 10 -8 10 -9 11 -13 15 -16 8 -20 0 rrcurveto
          -1344 hlineto
          -20 0 -19 -7 -18 -14 -24 -19 -11 -23 0 -27 0 -14 4 -13 9 -11 12 -15 16 -7 19 0 rrcurveto
          1296 hlineto
          11 0 9 -4 7 -8 6 -7 3 -8 0 -9 0 -13 -6 -13 -13 -12 rrcurveto
          -67 -55 rlineto
          -26 -22 -13 -24 0 -27 0 -13 4 -12 9 -11 11 -15 16 -7 21 0 rrcurveto
          endchar
        </CharString>
        <CharString name="right_arrow_double_long">
          0 397 66 rmoveto
          18 0 19 7 21 15 rrcurveto
          553 456 rlineto
          24 21 12 24 0 26 0 14 -4 12 -9 11 rrcurveto
          -359 458 rlineto
          -14 15 -16 7 -18 0 -21 0 -19 -7 -18 -14 -23 -19 -12 -23 0 -27 0 -13 4 -13 8 -13 33 -41 16 -22 1 -3 0 -4 0 -3 0 -1 0 -16 -6 -14 -14 -11 -11 -9 -11 -4 -11 0 rrcurveto
          -2494 hlineto
          -20 0 -19 -7 -18 -14 -24 -20 -12 -23 0 -27 0 -14 5 -12 9 -11 12 -15 16 -7 19 0 rrcurveto
          2543 hlineto
          19 0 20 7 20 15 rrcurveto
          39 33 rlineto
          11 9 12 4 12 0 12 0 10 -4 7 -9 rrcurveto
          118 -149 rlineto
          5 -7 2 -7 0 -8 0 -15 -7 -14 -13 -13 rrcurveto
          -180 -147 rlineto
          -11 -9 -11 -4 -12 0 -12 0 -10 5 -8 10 -9 10 -8 10 -9 11 -13 15 -16 8 -20 0 rrcurveto
          -2544 hlineto
          -20 0 -19 -7 -18 -14 -24 -19 -11 -23 0 -27 0 -14 4 -13 9 -11 12 -15 16 -7 19 0 rrcurveto
          2496 hlineto
          11 0 9 -4 7 -8 6 -7 3 -8 0 -9 0 -13 -6 -13 -13 -12 rrcurveto
          -67 -55 rlineto
          -26 -22 -13 -24 0 -27 0 -13 4 -12 9 -11 11 -15 16 -7 21 0 rrcurveto
          endchar
        </CharString>
        <CharString name="right_arrow_single">
          0 679 463 rmoveto
          -12 0 -10 4 -7 9 rrcurveto
          -71 89 rlineto
          -5 7 -2 7 0 8 0 16 7 14 14 12 rrcurveto
          109 89 rlineto
          11 9 11 4 12 0 12 0 10 -4 8 -9 rrcurveto
          69 -89 rlineto
          6 -6 3 -8 0 -9 0 -15 -7 -14 -15 -13 rrcurveto
          -108 -88 rlineto
          -11 -9 -12 -4 -12 0 rrcurveto
          -282 -397 rmoveto
          19 0 19 7 19 14 rrcurveto
          553 456 rlineto
          24 23 13 23 0 24 0 14 -5 13 -8 12 rrcurveto
          -359 458 rlineto
          -14 15 -16 7 -18 0 -19 0 -19 -7 -19 -14 -24 -19 -12 -23 0 -26 0 -14 4 -14 8 -13 rrcurveto
          89 -113 rlineto
          5 -7 2 -7 0 -8 0 -15 -7 -14 -13 -12 rrcurveto
          -140 -115 rlineto
          -13 -10 -15 -8 -18 -7 -19 -7 -16 -4 -15 0 rrcurveto
          -1180 hlineto
          -21 0 -19 -7 -17 -15 -23 -19 -12 -23 0 -28 0 -13 4 -12 9 -11 11 -15 16 -7 21 0 rrcurveto
          1180 hlineto
          15 0 15 -3 15 -7 15 -7 11 -9 9 -10 rrcurveto
          90 -118 rlineto
          5 -7 2 -7 0 -8 0 -16 -7 -14 -14 -12 rrcurveto
          -137 -113 rlineto
          -23 -22 -12 -24 0 -25 0 -13 4 -12 8 -10 11 -15 17 -7 21 0 rrcurveto
          endchar
        </CharString>
        <CharString name="right_arrow_single_long">
          0 679 463 rmoveto
          -12 0 -10 4 -7 9 rrcurveto
          -71 89 rlineto
          -5 7 -2 7 0 8 0 16 7 14 14 12 rrcurveto
          109 89 rlineto
          11 9 11 4 12 0 12 0 10 -4 8 -9 rrcurveto
          69 -89 rlineto
          6 -6 3 -8 0 -9 0 -15 -7 -14 -15 -13 rrcurveto
          -108 -88 rlineto
          -11 -9 -12 -4 -12 0 rrcurveto
          -282 -397 rmoveto
          19 0 19 7 19 14 rrcurveto
          553 456 rlineto
          24 23 13 23 0 24 0 14 -5 13 -8 12 rrcurveto
          -359 458 rlineto
          -14 15 -16 7 -18 0 -19 0 -19 -7 -19 -14 -24 -19 -12 -23 0 -26 0 -14 4 -14 8 -13 rrcurveto
          89 -113 rlineto
          5 -7 2 -7 0 -8 0 -15 -7 -14 -13 -12 rrcurveto
          -140 -115 rlineto
          -13 -10 -15 -8 -18 -7 -19 -7 -16 -4 -15 0 rrcurveto
          -2380 hlineto
          -21 0 -19 -7 -17 -15 -23 -19 -12 -23 0 -28 0 -13 4 -12 9 -11 11 -15 16 -7 21 0 rrcurveto
          2380 hlineto
          15 0 15 -3 15 -7 15 -7 11 -9 9 -10 rrcurveto
          90 -118 rlineto
          5 -7 2 -7 0 -8 0 -16 -7 -14 -14 -12 rrcurveto
          -137 -113 rlineto
          -23 -22 -12 -24 0 -25 0 -13 4 -12 8 -10 11 -15 17 -7 21 0 rrcurveto
          endchar
        </CharString>
        <CharString name="righthalfblock">
          0 600 -600 rmoveto
          600 2640 -600 hlineto
          endchar
        </CharString>
        <CharString name="rightoneeighthblock">
          0 1050 -600 rmoveto
          150 2640 -150 hlineto
          endchar
        </CharString>
        <CharString name="rightwardsarrow">
          0 497 85 rmoveto
          174 hlineto
          450 575 -452 575 rlineto
          -172 hlineto
          305 -383 rlineto
          17 -20 16 -18 17 -17 16 -18 15 -13 12 -11 rrcurveto
          -42 vlineto
          -28 4 -28 3 -26 2 -26 2 -25 1 -22 0 rrcurveto
          -645 -130 645 hlineto
          22 0 25 1 26 2 27 2 27 2 28 2 rrcurveto
          -41 vlineto
          -15 -12 -17 -14 -16 -17 -17 -16 -15 -16 -13 -17 rrcurveto
          endchar
        </CharString>
        <CharString name="s">
          0 594 -15 rmoveto
          118 0 104 28 89 56 89 56 55 77 20 96 5 22 3 20 0 20 0 55 -20 45 -40 35 -54 49 -91 38 -127 27 -86 16 -58 19 -30 21 -30 22 -15 25 0 30 0 53 29 43 58 31 rrcurveto
          45 26 58 13 69 0 93 0 62 -27 29 -54 4 -7 2 -6 0 -7 0 -21 -17 -10 -33 0 -18 0 -18 2 -18 4 -17 0 -9 -12 0 -22 0 -25 43 -12 86 0 28 0 33 8 37 15 rrcurveto
          56 24 28 38 0 52 0 43 -22 43 -43 41 -59 60 -90 30 -120 0 -115 0 -100 -29 -85 -58 -110 -76 -55 -91 0 -107 0 -125 110 -84 219 -45 145 -26 73 -49 0 -70 0 -48 -28 -41 -55 -34 rrcurveto
          -48 -28 -62 -14 -77 0 -143 0 -77 45 -12 89 -11 38 -20 19 -29 0 -23 0 -21 -9 -20 -18 -29 -25 -14 -28 0 -31 0 -7 1 -9 3 -9 16 -63 37 -50 59 -39 58 -39 81 -19 104 0 rrcurveto
          endchar
        </CharString>
        <CharString name="section">
          0 1013 367 rmoveto
          98 89 49 99 0 108 0 66 -22 53 -45 41 -37 42 -80 42 -123 44 -78 27 -53 26 -28 27 -27 27 -14 31 0 35 0 73 32 53 63 32 48 25 54 12 60 0 87 0 77 -12 67 -24 rrcurveto
          6 -2 6 -1 7 0 43 0 29 25 15 49 1 5 1 6 0 5 0 25 -12 16 -24 6 -91 23 -89 11 -86 0 -127 0 -103 -28 -78 -55 -79 -56 -50 -75 -20 -95 -4 -18 -2 -19 0 -18 rrcurveto
          0 -46 13 -41 26 -38 rrcurveto
          19 -27 rlineto
          24 -30 42 -27 63 -24 rrcurveto
          89 -37 rlineto
          73 -27 58 -29 43 -29 43 -30 21 -40 0 -49 0 -15 -2 -16 -3 -16 -14 -64 -24 -46 -35 -29 40 -13 31 -21 22 -26 rrcurveto
          -525 -648 rmoveto
          139 0 113 26 87 53 87 53 55 79 22 104 5 20 2 20 0 19 0 119 -89 88 -178 59 -90 29 -68 30 -48 33 -47 32 -24 43 0 53 0 15 2 16 3 17 14 65 23 45 32 26 rrcurveto
          -21 5 -29 23 -36 41 -36 -30 -34 -43 -32 -56 -32 -56 -16 -60 0 -63 0 -64 21 -53 41 -41 44 -41 71 -39 98 -37 100 -30 71 -33 40 -37 30 -24 15 -32 0 -40 0 -11 -1 -12 -3 -14 rrcurveto
          -23 -107 -97 -56 -174 -4 -110 0 -76 11 -39 21 -15 9 -17 4 -19 0 -47 0 -28 -25 -11 -49 -1 -3 -1 -4 0 -4 0 -60 109 -30 218 0 rrcurveto
          endchar
        </CharString>
        <CharString name="semicolon">
          0 764 766 rmoveto
          40 0 37 15 35 29 47 40 23 48 0 56 0 26 -7 23 -15 20 -22 28 -30 14 -38 0 -42 0 -39 -15 -35 -30 -48 -39 -24 -47 0 -55 0 -27 8 -23 16 -21 22 -28 31 -14 41 0 rrcurveto
          -482 -1164 rmoveto
          146 15 122 57 98 98 98 99 49 113 0 128 0 55 -12 42 -24 30 -24 31 -32 15 -38 0 -54 0 -44 -20 -33 -40 -29 -31 -14 -36 0 -39 0 -29 12 -29 23 -29 23 -29 12 -32 0 -35 rrcurveto
          0 -50 -28 -44 -56 -38 -44 -30 -54 -20 -65 -8 -50 -6 -31 -28 -11 -49 rrcurveto
          -1 -11 rlineto
          1 -33 20 -17 40 0 rrcurveto
          endchar
        </CharString>
        <CharString name="seven">
          -10 425 -15 rmoveto
          32 0 29 17 25 34 rrcurveto
          464 694 rlineto
          117 hlineto
          47 0 28 6 10 11 10 11 5 13 0 14 0 11 -7 11 -14 11 -14 11 -25 6 -36 0 rrcurveto
          -51 hlineto
          244 364 rlineto
          8 12 6 17 4 23 3 13 2 13 0 15 0 27 -11 24 -22 20 -16 15 -25 7 -33 0 rrcurveto
          -702 hlineto
          -30 0 -24 -9 -18 -18 -17 -18 -9 -23 0 -28 0 -16 6 -14 11 -11 11 -11 14 -5 17 0 rrcurveto
          591 hlineto
          37 0 19 -11 0 -23 0 -8 -79 -121 -158 -234 rrcurveto
          -207 hlineto
          -22 0 -23 -5 -22 -11 -22 -10 -11 -14 0 -17 0 -16 7 -12 13 -8 13 -8 17 -4 19 0 rrcurveto
          167 hlineto
          -431 -641 rlineto
          -8 -15 -4 -16 0 -17 0 -16 6 -14 11 -10 11 -11 16 -5 21 0 rrcurveto
          endchar
        </CharString>
        <CharString name="six">
          0 655 138 rmoveto
          -68 0 -52 24 -34 48 -35 48 -17 64 0 79 0 86 19 99 39 112 119 33 89 16 59 0 56 0 39 -2 21 -5 79 -17 40 -70 1 -122 0 -115 -47 -101 -93 -85 -67 -61 -71 -31 -77 0 rrcurveto
          -50 -153 rmoveto
          107 0 90 22 73 43 72 44 63 58 54 74 70 103 35 116 0 130 rrcurveto
          24 vlineto
          -4 177 -94 95 -181 14 -28 3 -27 1 -26 0 -57 0 -77 -9 -98 -19 140 247 181 151 222 53 57 13 37 14 15 15 16 14 8 13 0 12 0 1 -1 2 -2 2 -10 11 -13 6 -16 0 rrcurveto
          -215 -4 -187 -77 -160 -149 -106 -95 -86 -128 -64 -161 -30 -15 -25 -16 -21 -15 -75 -57 -38 -41 0 -26 0 -9 6 -4 12 0 18 0 41 13 63 26 -33 -125 -17 -109 0 -91 0 -231 104 -116 207 0 rrcurveto
          endchar
        </CharString>
        <CharString name="slash">
          0 201 -185 rmoveto
          14 0 14 4 15 8 14 8 11 11 9 14 rrcurveto
          1065 1620 rlineto
          10 16 5 16 0 15 0 8 -2 8 -3 8 -9 23 -19 11 -28 0 -14 0 -14 -4 -14 -7 -15 -8 -11 -11 -9 -14 rrcurveto
          -1065 -1620 rlineto
          -10 -16 -5 -15 0 -15 0 -9 2 -8 3 -8 10 -23 19 -12 27 0 rrcurveto
          endchar
        </CharString>
        <CharString name="slash_asterisk">
          0 699 466 rmoveto
          21 0 19 7 18 15 17 15 11 17 5 21 rrcurveto
          59 277 213 -133 rlineto
          11 -6 12 -3 12 0 21 0 20 7 18 15 22 19 12 23 0 26 0 19 -9 16 -17 14 rrcurveto
          -213 135 271 135 rlineto
          35 21 18 28 0 33 0 13 -4 12 -8 10 -12 15 -17 7 -21 0 -12 0 -13 -3 -14 -6 rrcurveto
          -269 -135 rlineto
          40 190 21 98 0 6 0 14 -5 12 -8 11 -11 15 -16 7 -21 0 -21 0 -19 -7 -18 -15 -18 -15 -11 -17 -4 -21 rrcurveto
          -59 -278 -213 135 rlineto
          -11 6 -11 3 -13 0 -21 0 -19 -7 -18 -15 -24 -20 -12 -23 0 -26 0 -21 9 -15 17 -12 rrcurveto
          214 -135 -271 -135 rlineto
          -36 -22 -17 -27 0 -31 0 -14 4 -13 9 -11 11 -15 16 -7 21 0 13 0 13 3 13 6 rrcurveto
          270 135 rlineto
          -41 -191 -20 -99 0 -5 0 -13 4 -12 9 -11 11 -15 16 -7 21 0 rrcurveto
          -1498 -651 rmoveto
          14 0 14 4 15 8 14 8 11 11 9 14 rrcurveto
          1065 1623 rlineto
          10 15 5 15 0 15 0 9 -1 9 -4 8 -9 23 -18 11 -28 0 -14 0 -14 -4 -14 -7 -15 -8 -12 -11 -9 -14 rrcurveto
          -1065 -1623 rlineto
          -10 -16 -5 -15 0 -15 0 -9 2 -8 3 -8 10 -23 19 -12 27 0 rrcurveto
          endchar
        </CharString>
        <CharString name="slash_asterisk_asterisk">
          0 -1999 -185 rmoveto
          14 0 14 4 15 8 14 8 11 11 9 14 rrcurveto
          1065 1623 rlineto
          10 15 5 15 0 15 0 9 -1 9 -4 8 -9 23 -18 11 -28 0 -14 0 -14 -4 -14 -7 -15 -8 -12 -11 -9 -14 rrcurveto
          -1065 -1623 rlineto
          -10 -16 -5 -15 0 -15 0 -9 2 -8 3 -8 10 -23 19 -12 27 0 rrcurveto
          1498 651 rmoveto
          21 0 19 7 18 15 17 15 11 17 5 21 rrcurveto
          59 277 213 -133 rlineto
          11 -6 12 -3 12 0 21 0 20 7 18 15 22 19 12 23 0 26 0 19 -9 16 -17 14 rrcurveto
          -213 135 271 135 rlineto
          35 21 18 28 0 33 0 13 -4 12 -8 10 -12 15 -17 7 -21 0 -12 0 -13 -3 -14 -6 rrcurveto
          -269 -135 rlineto
          40 190 21 98 0 6 0 14 -5 12 -8 11 -11 15 -16 7 -21 0 -21 0 -19 -7 -18 -15 -18 -15 -11 -17 -4 -21 rrcurveto
          -59 -278 -213 135 rlineto
          -11 6 -11 3 -13 0 -21 0 -19 -7 -18 -15 -24 -20 -12 -23 0 -26 0 -21 9 -15 17 -12 rrcurveto
          214 -135 -271 -135 rlineto
          -36 -22 -17 -27 0 -31 0 -14 4 -13 9 -11 11 -15 16 -7 21 0 13 0 13 3 13 6 rrcurveto
          270 135 rlineto
          -41 -191 -20 -99 0 -5 0 -13 4 -12 9 -11 11 -15 16 -7 21 0 rrcurveto
          1040 hmoveto
          21 0 19 7 18 15 17 15 11 17 5 21 rrcurveto
          59 277 213 -133 rlineto
          11 -6 12 -3 12 0 21 0 20 7 18 15 22 19 12 23 0 26 0 19 -9 16 -17 14 rrcurveto
          -213 135 271 135 rlineto
          35 21 18 28 0 33 0 13 -4 12 -8 10 -12 15 -17 7 -21 0 -12 0 -13 -3 -14 -6 rrcurveto
          -269 -135 rlineto
          40 190 21 98 0 6 0 14 -5 12 -8 11 -11 15 -16 7 -21 0 -21 0 -19 -7 -18 -15 -18 -15 -11 -17 -4 -21 rrcurveto
          -59 -278 -213 135 rlineto
          -11 6 -11 3 -13 0 -21 0 -19 -7 -18 -15 -24 -20 -12 -23 0 -26 0 -21 9 -15 17 -12 rrcurveto
          214 -135 -271 -135 rlineto
          -36 -22 -17 -27 0 -31 0 -14 4 -13 9 -11 11 -15 16 -7 21 0 13 0 13 3 13 6 rrcurveto
          270 135 rlineto
          -41 -191 -20 -99 0 -5 0 -13 4 -12 9 -11 11 -15 16 -7 21 0 rrcurveto
          endchar
        </CharString>
        <CharString name="slash_greater">
          0 -815 -315 rmoveto
          14 0 14 4 15 8 14 8 12 11 9 14 rrcurveto
          870 1323 699 -416 rlineto
          12 -8 7 -10 0 -12 0 -18 -11 -15 -22 -13 rrcurveto
          -530 -254 rlineto
          -40 -22 -20 -28 0 -34 0 -14 4 -13 9 -11 12 -15 16 -8 20 0 11 0 11 2 12 5 rrcurveto
          769 363 rlineto
          39 21 20 29 0 36 0 22 -10 17 -20 11 rrcurveto
          -898 522 190 290 rlineto
          10 16 5 16 0 15 0 8 -2 8 -3 8 -9 23 -19 11 -28 0 -14 0 -14 -4 -14 -7 -15 -8 -11 -11 -9 -14 rrcurveto
          -1150 -1750 rlineto
          -10 -15 -5 -15 0 -16 0 -8 1 -9 3 -8 10 -23 19 -12 27 0 rrcurveto
          endchar
        </CharString>
        <CharString name="slash_slash">
          0 51 -185 rmoveto
          14 0 14 4 15 8 14 8 11 11 9 14 rrcurveto
          1065 1620 rlineto
          10 16 5 16 0 15 0 8 -2 8 -3 8 -9 23 -19 11 -28 0 -14 0 -14 -4 -14 -7 -15 -8 -11 -11 -9 -14 rrcurveto
          -1065 -1620 rlineto
          -10 -16 -5 -15 0 -15 0 -9 2 -8 3 -8 10 -23 19 -12 27 0 rrcurveto
          -900 hmoveto
          14 0 14 4 15 8 14 8 11 11 9 14 rrcurveto
          1065 1620 rlineto
          10 16 5 16 0 15 0 8 -2 8 -3 8 -9 23 -19 11 -28 0 -14 0 -14 -4 -14 -7 -15 -8 -11 -11 -9 -14 rrcurveto
          -1065 -1620 rlineto
          -10 -16 -5 -15 0 -15 0 -9 2 -8 3 -8 10 -23 19 -12 27 0 rrcurveto
          endchar
        </CharString>
        <CharString name="slash_slash_slash">
          0 -73 -185 rmoveto
          14 0 15 4 15 9 16 8 12 12 9 14 rrcurveto
          1064 1620 rlineto
          11 16 5 16 0 15 0 8 -2 8 -3 8 -9 21 -17 11 -27 0 -14 0 -15 -4 -15 -8 -15 -8 -12 -12 -9 -14 rrcurveto
          -1065 -1620 rlineto
          -10 -16 -5 -15 0 -16 0 -8 1 -8 4 -8 9 -22 17 -11 26 0 rrcurveto
          -930 hmoveto
          14 0 15 4 15 9 16 8 12 12 9 14 rrcurveto
          1064 1620 rlineto
          11 16 5 16 0 15 0 8 -2 8 -3 8 -9 21 -17 11 -27 0 -14 0 -15 -4 -15 -8 -15 -8 -12 -12 -9 -14 rrcurveto
          -1065 -1620 rlineto
          -10 -16 -5 -15 0 -16 0 -8 1 -8 4 -8 9 -22 17 -11 26 0 rrcurveto
          -930 hmoveto
          14 0 15 4 15 9 16 8 12 12 9 14 rrcurveto
          1064 1620 rlineto
          11 16 5 16 0 15 0 8 -2 8 -3 8 -9 21 -17 11 -27 0 -14 0 -15 -4 -15 -8 -15 -8 -12 -12 -9 -14 rrcurveto
          -1065 -1620 rlineto
          -10 -16 -5 -15 0 -16 0 -8 1 -8 4 -8 9 -22 17 -11 26 0 rrcurveto
          endchar
        </CharString>
        <CharString name="southeastarrow">
          0 295 165 rmoveto
          800 800 -130 -383 hlineto
          0 -33 2 -32 4 -30 4 -31 4 -29 4 -26 rrcurveto
          -38 -10 rlineto
          -13 20 -16 21 -18 21 -19 22 -19 20 -19 18 rrcurveto
          -699 706 -101 -105 695 -701 rlineto
          19 -17 19 -17 20 -18 20 -17 18 -15 16 -13 rrcurveto
          -5 -38 rlineto
          -25 5 -26 3 -29 2 -29 2 -31 1 -33 0 rrcurveto
          -375 hlineto
          endchar
        </CharString>
        <CharString name="southwestarrow">
          0 105 165 rmoveto
          800 126 -375 hlineto
          -33 0 -31 -1 -29 -2 -29 -2 -26 -3 -25 -5 rrcurveto
          -5 38 rlineto
          16 13 19 15 20 17 21 18 18 17 17 17 rrcurveto
          696 701 -99 101 -699 -706 rlineto
          -19 -18 -18 -20 -19 -22 -18 -21 -16 -21 -15 -20 rrcurveto
          -37 10 rlineto
          4 27 4 30 3 31 3 32 2 32 0 33 rrcurveto
          383 -130 vlineto
          endchar
        </CharString>
        <CharString name="space">
          -30 endchar
        </CharString>
        <CharString name="t">
          0 584 -15 rmoveto
          83 0 80 22 79 44 78 44 89 75 98 107 7 7 3 11 0 14 0 10 -4 9 -8 8 -8 9 -11 4 -14 0 -13 0 -10 -4 -8 -7 -66 -65 -56 -46 -46 -29 -46 -29 -52 -15 -59 0 rrcurveto
          -64 0 -33 32 -2 63 1 35 19 89 36 141 rrcurveto
          75 290 rlineto
          10 38 21 19 34 0 rrcurveto
          309 hlineto
          24 0 21 8 20 15 25 21 13 27 0 33 0 11 -3 9 -7 9 -11 14 -16 7 -20 0 rrcurveto
          -309 hlineto
          -36 0 -18 15 0 29 0 6 8 35 15 65 rrcurveto
          32 130 rlineto
          0 12 -4 11 -8 9 -11 13 -15 6 -19 0 -21 0 -20 -7 -19 -15 -20 -15 -13 -20 -5 -24 rrcurveto
          -49 -194 rlineto
          -9 -37 -23 -19 -37 0 rrcurveto
          -160 hlineto
          -21 0 -21 -8 -21 -16 -27 -21 -13 -26 -1 -30 0 -12 4 -11 8 -10 10 -13 15 -7 20 0 rrcurveto
          163 hlineto
          33 0 16 -15 0 -31 0 -4 -25 -103 -51 -202 -47 -167 -23 -121 0 -75 0 -105 51 -53 103 0 rrcurveto
          endchar
        </CharString>
        <CharString name="tag_todo">
          0 -533 175 rmoveto
          97 0 81 59 67 119 52 93 41 115 29 139 20 98 11 86 0 74 0 178 -59 89 -116 0 -95 0 -81 -58 -67 -117 -52 -91 -41 -116 -30 -143 -21 -99 -11 -88 0 -75 0 -31 2 -30 4 -27 rrcurveto
          16 -117 56 -58 97 0 rrcurveto
          -1418 30 rmoveto
          151 0 115 34 79 68 78 67 56 115 35 163 30 142 15 107 0 71 0 100 -41 65 -82 30 -34 13 -39 7 -43 3 -43 3 -48 1 -51 0 -12 0 -7 -6 -3 -11 -136 -637 -67 -320 0 -2 rrcurveto
          0 -9 5 -4 10 0 rrcurveto
          -1090 -30 rmoveto
          97 0 81 59 67 119 52 93 41 115 29 139 20 98 11 86 0 74 0 178 -59 89 -116 0 -95 0 -81 -58 -67 -117 -52 -91 -41 -116 -30 -143 -21 -99 -11 -88 0 -75 0 -31 2 -30 4 -27 rrcurveto
          16 -117 56 -58 97 0 rrcurveto
          2491 -230 rmoveto
          -241 0 -120 148 0 297 0 152 30 168 60 185 50 156 69 127 88 99 105 119 129 59 152 0 240 0 120 -149 0 -299 0 -147 -29 -168 -60 -186 -50 -158 -68 -127 -87 -98 -104 -119 -130 -59 -154 0 rrcurveto
          -1418 30 rmoveto
          -161 hlineto
          -31 0 -24 10 -17 21 -16 21 -9 22 0 22 0 7 87 412 174 816 6 31 18 27 29 25 29 24 31 12 31 0 rrcurveto
          200 hlineto
          201 0 133 -42 67 -83 66 -83 33 -98 0 -112 0 -65 -9 -73 -17 -81 rrcurveto
          -28 -136 rlineto
          -35 -161 -51 -130 -68 -99 -68 -99 -87 -73 -105 -46 -106 -46 -126 -23 -147 0 rrcurveto
          -2292 -30 rmoveto
          -30 0 -23 10 -16 21 -16 20 -8 21 0 20 0 8 1 7 2 8 159 746 79 378 0 8 -2 2 -87 1 -173 0 -30 0 -23 10 -16 20 -16 21 -8 20 0 22 0 37 18 34 37 31 rrcurveto
          28 23 29 12 30 0 rrcurveto
          760 hlineto
          30 0 23 -10 16 -21 16 -20 8 -21 0 -20 0 -40 -18 -34 -36 -29 -29 -23 -29 -12 -30 0 -171 0 -87 -1 -3 -2 -3 -3 -3 -5 -2 -7 rrcurveto
          -237 -1117 rlineto
          -7 -29 -17 -27 -28 -23 -29 -24 -29 -12 -30 0 rrcurveto
          1170 hmoveto
          -241 0 -120 148 0 297 0 152 30 168 60 185 50 156 69 127 88 99 105 119 129 59 152 0 240 0 120 -149 0 -299 0 -147 -29 -168 -60 -186 -50 -158 -68 -127 -87 -98 -104 -119 -130 -59 -154 0 rrcurveto
          3236 -215 rmoveto
          198 97 149 103 99 108 173 191 113 217 51 243 rrcurveto
          10 46 rlineto
          17 79 8 77 0 74 0 141 -30 132 -60 125 -69 141 -106 103 -141 65 rrcurveto
          -5487 -2 rlineto
          -26 0 -24 -9 -22 -18 -23 -19 -14 -22 -5 -25 -250 -1176 -125 -591 0 -6 0 -18 5 -15 11 -13 15 -19 20 -9 26 0 rrcurveto
          endchar
        </CharString>
        <CharString name="three">
          0 605 -15 rmoveto
          159 0 127 59 97 118 51 60 37 81 22 103 5 24 3 22 0 21 0 117 -46 78 -91 39 -20 10 -10 15 0 20 0 23 11 18 23 15 146 89 73 118 0 146 0 66 -21 54 -43 42 rrcurveto
          -60 61 -98 31 -135 0 -78 -1 -69 -19 -60 -37 -85 -52 -42 -56 0 -60 0 -24 17 -12 34 0 19 0 24 15 28 31 43 47 65 24 86 0 141 0 71 -57 0 -114 0 -82 -52 -75 -103 -69 rrcurveto
          -62 -41 -91 -20 -118 0 -19 0 -17 -5 -14 -11 -22 -17 -11 -24 0 -31 0 -12 3 -10 6 -8 9 -11 12 -6 16 0 246 -1 123 -71 0 -142 0 -17 -2 -17 -3 -16 -46 -184 -114 -93 -183 -2 rrcurveto
          -142 1 -100 47 -56 91 -19 32 -16 16 -13 0 -15 0 -8 -20 0 -41 0 -28 3 -20 6 -12 66 -141 116 -72 168 -3 rrcurveto
          endchar
        </CharString>
        <CharString name="two">
          0 359 105 rmoveto
          -3 hlineto
          -61 0 -31 21 0 41 0 76 32 38 65 0 29 0 52 -29 73 -58 -75 -59 -52 -30 -29 0 rrcurveto
          -20 -120 rmoveto
          104 0 92 41 81 83 96 -67 80 -34 66 0 104 1 78 23 50 44 44 41 31 55 17 67 1 4 1 4 0 5 0 25 -10 13 -20 0 -11 0 -18 -16 -26 -33 -25 -32 -25 -23 -25 -13 rrcurveto
          -24 -13 -34 -6 -44 0 -52 0 -71 22 -88 44 54 43 34 29 13 14 214 214 112 247 11 280 rrcurveto
          2 79 rlineto
          0 110 -32 78 -63 46 -49 36 -65 18 -80 0 -123 0 -101 -33 -80 -67 -68 -58 -34 -55 0 -53 1 -33 13 -16 27 0 41 0 36 21 31 41 31 41 34 28 36 15 36 15 30 8 24 0 rrcurveto
          132 0 66 -74 0 -147 -11 -289 -133 -245 -255 -200 -79 65 -74 33 -70 0 -68 0 -60 -23 -52 -45 -52 -45 -26 -62 0 -77 0 -52 21 -42 43 -32 42 -32 54 -16 65 0 rrcurveto
          endchar
        </CharString>
        <CharString name="u">
          0 1003 -15 rmoveto
          43 0 38 9 33 19 38 22 19 18 0 15 0 21 -11 10 -22 0 -7 0 -10 -5 -13 -10 -13 -10 -15 -5 -17 0 -45 0 -23 29 0 59 0 11 2 15 3 18 113 534 57 270 0 6 rrcurveto
          0 14 -4 11 -7 10 -10 13 -16 6 -23 0 -25 0 -20 -7 -16 -14 -16 -15 -11 -20 -5 -26 rrcurveto
          -117 -547 rlineto
          -20 -96 -53 -74 -88 -50 -70 -40 -64 -21 -57 -1 -122 0 -61 60 0 120 0 26 3 29 6 31 83 387 41 197 0 7 0 14 -4 11 -7 10 -10 13 -16 6 -23 0 -25 0 -20 -7 -16 -14 rrcurveto
          -15 -15 -11 -20 -5 -26 rrcurveto
          -124 -580 rlineto
          -13 -62 -7 -55 0 -48 0 -69 14 -53 27 -38 43 -61 79 -31 116 0 87 1 100 50 112 97 12 11 11 5 10 0 22 0 12 -14 3 -29 1 -14 1 -11 0 -10 0 -17 6 -16 12 -16 rrcurveto
          13 -15 14 -10 18 -5 17 -5 29 -3 39 0 rrcurveto
          endchar
        </CharString>
        <CharString name="underscore">
          0 863 -255 rmoveto
          21 0 20 8 18 15 19 16 12 18 4 21 4 20 -3 17 -11 14 -11 14 -15 7 -20 0 rrcurveto
          -640 hlineto
          -21 0 -20 -8 -19 -15 -18 -16 -12 -18 -5 -21 -4 -20 3 -17 11 -14 11 -14 16 -7 20 0 rrcurveto
          endchar
        </CharString>
        <CharString name="updownarrow">
          0 600 -320 rmoveto
          565 481 rlineto
          170 vlineto
          -345 -294 rlineto
          -59 -51 -37 -38 -16 -23 rrcurveto
          -45 hlineto
          4 28 3 29 2 30 2 30 1 29 0 29 rrcurveto
          1260 vlineto
          0 29 -1 29 -2 30 -2 30 -3 29 -4 28 rrcurveto
          44 hlineto
          9 -11 14 -15 18 -19 17 -18 24 -22 29 -25 rrcurveto
          347 -295 rlineto
          171 vlineto
          -565 479 -565 -481 rlineto
          -170 vlineto
          345 294 rlineto
          59 51 37 38 16 23 rrcurveto
          44 hlineto
          -2 -28 -2 -29 -3 -30 -3 -30 -1 -29 0 -29 rrcurveto
          -1260 vlineto
          0 -29 1 -29 3 -30 3 -30 2 -29 2 -28 rrcurveto
          -44 hlineto
          -8 12 -13 15 -18 18 -18 18 -24 22 -29 25 rrcurveto
          -347 295 rlineto
          -171 vlineto
          endchar
        </CharString>
        <CharString name="upperhalfblock">
          0 720 vmoveto
          1200 1320 -1200 hlineto
          endchar
        </CharString>
        <CharString name="upperoneeighthblock">
          0 1710 vmoveto
          1200 330 -1200 hlineto
          endchar
        </CharString>
        <CharString name="upwardsarrow">
          0 525 15 rmoveto
          150 1025 hlineto
          0 29 -1 29 -2 30 -2 30 -3 29 -4 28 rrcurveto
          44 hlineto
          9 -11 14 -15 18 -19 17 -18 24 -22 29 -25 rrcurveto
          347 -295 rlineto
          171 vlineto
          -563 479 -567 -481 rlineto
          -170 vlineto
          345 294 rlineto
          59 51 37 38 16 23 rrcurveto
          44 hlineto
          -2 -28 -2 -29 -3 -30 -3 -30 -1 -29 0 -29 rrcurveto
          endchar
        </CharString>
        <CharString name="v">
          0 587 -15 rmoveto
          50 1 43 27 35 53 326 480 163 288 0 98 0 22 -2 14 -4 8 -31 59 -69 30 -107 0 -75 0 -37 -17 0 -34 0 -27 14 -13 29 0 rrcurveto
          71 hlineto
          37 -1 19 -13 0 -26 0 -88 -121 -222 -243 -356 -11 -16 -15 -8 -16 0 -21 0 -12 10 -3 19 rrcurveto
          -99 745 rlineto
          -5 31 -19 16 -35 0 -23 0 -20 -7 -16 -14 -25 -23 -12 -20 0 -19 rrcurveto
          136 -920 rlineto
          9 -51 33 -26 56 0 rrcurveto
          endchar
        </CharString>
        <CharString name="w">
          0 823 -15 rmoveto
          30 0 26 10 22 20 21 20 16 24 9 28 173 476 86 292 0 106 -1 69 -72 35 -142 0 -62 0 -31 -17 0 -34 0 -27 20 -13 39 0 22 0 26 -1 31 -3 29 -2 15 -15 0 -27 rrcurveto
          0 -66 -52 -185 -105 -306 -15 -47 -17 -23 -19 0 -24 0 -14 21 -3 41 rrcurveto
          -25 349 rlineto
          -2 35 -18 18 -35 0 -36 0 -27 -19 -17 -37 rrcurveto
          -154 -339 rlineto
          -17 -40 -18 -20 -20 0 -23 0 -11 18 0 37 rrcurveto
          80 652 rlineto
          0 33 -19 17 -37 0 -19 0 -18 -5 -17 -10 -16 -11 -10 -15 -2 -22 rrcurveto
          -98 -943 rlineto
          0 -19 6 -17 11 -15 12 -15 17 -8 23 0 61 0 42 24 22 49 rrcurveto
          169 373 rlineto
          13 28 17 14 21 0 25 0 13 -14 1 -29 rrcurveto
          15 -373 rlineto
          1 -23 8 -17 16 -13 16 -13 19 -6 23 0 rrcurveto
          endchar
        </CharString>
        <CharString name="x">
          0 912 -15 rmoveto
          39 0 30 5 21 10 60 26 53 54 46 82 1 2 1 4 0 7 0 7 -1 7 -3 5 -8 15 -10 8 -14 0 -15 0 -12 -8 -9 -15 -34 -58 -34 -29 -36 0 -35 0 -26 25 -14 49 rrcurveto
          -61 192 -31 102 0 12 0 25 6 20 13 14 rrcurveto
          341 373 rlineto
          25 27 12 26 0 26 0 16 -5 14 -9 11 -14 17 -19 9 -23 0 -32 0 -27 -13 -22 -25 rrcurveto
          -273 -300 rlineto
          -7 -7 -9 -4 -10 0 -12 0 -8 7 -5 14 rrcurveto
          -54 195 rlineto
          -7 24 -11 22 -16 21 -16 21 -21 17 -27 12 -28 12 -29 6 -32 0 -23 0 -21 -5 -20 -9 -59 -29 -50 -51 -41 -72 -6 -10 -3 -10 0 -11 0 -7 3 -7 5 -6 9 -9 9 -5 10 0 rrcurveto
          16 0 12 7 8 13 39 62 35 31 32 0 33 0 21 -12 7 -23 70 -200 35 -104 0 -10 0 -24 -7 -20 -15 -16 rrcurveto
          -376 -412 rlineto
          -23 -24 -12 -23 0 -21 0 -21 4 -17 8 -11 13 -17 19 -9 25 0 33 0 28 13 23 25 208 233 105 118 4 3 4 2 5 1 5 0 14 0 9 -8 4 -15 rrcurveto
          77 -293 rlineto
          15 -53 45 -26 75 0 rrcurveto
          endchar
        </CharString>
        <CharString name="x_center">
          0 980 314 rmoveto
          21 0 19 7 17 15 22 18 11 24 0 28 0 14 -4 12 -8 9 rrcurveto
          -203 259 313 258 rlineto
          23 20 12 23 0 28 0 14 -4 12 -8 10 -11 14 -17 7 -21 0 -21 0 -19 -7 -18 -15 rrcurveto
          -313 -258 -204 258 rlineto
          -10 15 -16 7 -21 0 -21 0 -19 -7 -17 -14 -24 -20 -12 -23 0 -28 0 -13 4 -12 9 -11 rrcurveto
          203 -258 -313 -259 rlineto
          -23 -17 -12 -23 0 -29 0 -13 4 -12 9 -11 11 -15 16 -7 21 0 21 0 19 7 16 15 rrcurveto
          314 258 203 -258 rlineto
          12 -15 17 -7 22 0 rrcurveto
          endchar
        </CharString>
        <CharString name="xml_comment_begin">
          0 -2883 463 rmoveto
          -12 0 -10 4 -7 9 rrcurveto
          -70 88 rlineto
          -5 7 -3 8 0 9 0 16 8 14 15 11 rrcurveto
          107 89 rlineto
          11 9 11 4 12 0 12 0 10 -4 8 -9 rrcurveto
          71 -89 rlineto
          5 -7 2 -7 0 -8 0 -16 -7 -14 -14 -12 rrcurveto
          -109 -89 rlineto
          -11 -9 -12 -4 -12 0 rrcurveto
          114 -397 rmoveto
          21 0 20 7 17 15 23 19 12 22 0 26 0 13 -5 13 -8 13 rrcurveto
          -89 113 rlineto
          -5 7 -2 7 0 8 0 16 7 14 14 12 rrcurveto
          138 118 rlineto
          13 10 16 9 19 7 19 7 16 3 14 0 rrcurveto
          526 hlineto
          31 150 rlineto
          -525 hlineto
          -15 0 -14 4 -15 7 -15 7 -12 8 -9 10 rrcurveto
          -90 115 rlineto
          -5 7 -3 8 0 9 0 14 7 13 14 12 rrcurveto
          137 113 rlineto
          23 22 12 24 0 26 0 14 -4 12 -9 11 -12 14 -16 7 -19 0 -18 0 -19 -7 -21 -15 rrcurveto
          -553 -458 rlineto
          -24 -20 -13 -23 0 -26 0 -13 5 -14 8 -13 rrcurveto
          359 -456 rlineto
          14 -14 16 -7 19 0 rrcurveto
          970 -81 rmoveto
          39 0 37 15 35 29 45 39 22 47 0 56 0 26 -7 24 -15 20 -22 29 -31 15 -39 0 -43 0 -38 -15 -35 -29 -46 -39 -23 -46 0 -53 0 -28 8 -24 16 -22 22 -29 32 -15 43 0 rrcurveto
          102 499 rmoveto
          17 0 17 6 16 13 15 13 11 15 5 19 132 542 66 274 0 7 0 17 -5 15 -11 14 -15 18 -19 9 -25 0 -25 0 -24 -9 -22 -19 -22 -19 -13 -21 -5 -25 -98 -538 -49 -272 0 -4 rrcurveto
          0 -14 4 -12 9 -10 10 -13 14 -6 17 0 rrcurveto
          2749 41 rmoveto
          21 0 19 7 18 15 23 19 12 23 0 27 0 14 -5 12 -8 11 -12 15 -16 7 -21 0 rrcurveto
          -2425 hlineto
          -31 -150 rlineto
          endchar
        </CharString>
        <CharString name="xml_comment_empty">
          0 -2883 463 rmoveto
          -12 0 -10 4 -7 9 rrcurveto
          -70 88 rlineto
          -5 7 -3 8 0 9 0 16 8 14 15 11 rrcurveto
          107 89 rlineto
          11 9 11 4 12 0 12 0 10 -4 8 -9 rrcurveto
          71 -89 rlineto
          5 -7 2 -7 0 -8 0 -16 -7 -14 -14 -12 rrcurveto
          -109 -89 rlineto
          -11 -9 -12 -4 -12 0 rrcurveto
          4400 62 rmoveto
          -40 12 -21 20 0 28 0 44 29 30 56 16 rrcurveto
          -2883 hlineto
          -31 -150 rlineto
          -1396 -459 rmoveto
          21 0 20 7 17 15 23 19 12 22 0 26 0 13 -5 13 -8 13 rrcurveto
          -89 113 rlineto
          -5 7 -2 7 0 8 0 16 7 14 14 12 rrcurveto
          138 118 rlineto
          13 10 16 9 19 7 19 7 16 3 14 0 rrcurveto
          526 hlineto
          31 150 rlineto
          -525 hlineto
          -15 0 -14 4 -15 7 -15 7 -12 8 -9 10 rrcurveto
          -90 115 rlineto
          -5 7 -3 8 0 9 0 14 7 13 14 12 rrcurveto
          137 113 rlineto
          23 22 12 24 0 26 0 14 -4 12 -9 11 -12 14 -16 7 -19 0 -18 0 -19 -7 -21 -15 rrcurveto
          -553 -458 rlineto
          -24 -20 -13 -23 0 -26 0 -13 5 -14 8 -13 rrcurveto
          359 -456 rlineto
          14 -14 16 -7 19 0 rrcurveto
          endchar
        </CharString>
        <CharString name="y">
          0 423 -465 rmoveto
          126 0 111 38 97 76 96 76 65 104 32 131 161 694 81 350 0 8 0 35 -18 18 -35 0 -22 0 -22 -9 -20 -18 -20 -17 -14 -21 -6 -25 rrcurveto
          -131 -571 rlineto
          -10 -43 -37 -51 -65 -62 -13 -13 -16 -12 -20 -13 -27 -17 -27 -15 -26 -10 -26 -11 -24 -5 -24 0 -107 0 -53 67 0 134 0 128 42 210 85 291 2 7 1 7 0 8 -1 14 -4 13 -10 12 rrcurveto
          -13 16 -16 8 -21 0 -32 0 -22 -16 -13 -31 -98 -319 -49 -240 0 -162 0 -80 11 -62 21 -42 34 -67 65 -33 98 0 23 0 23 1 24 3 58 7 60 26 61 46 50 39 31 19 12 0 rrcurveto
          19 0 10 -9 0 -18 rrcurveto
          -1 -8 rlineto
          -19 -86 -30 -79 -43 -73 -78 -136 -109 -68 -140 0 -59 0 -45 10 -32 19 -32 19 -30 32 -28 43 -9 11 -14 6 -18 0 -29 0 -22 -9 -17 -17 -17 -17 -9 -21 0 -26 0 -15 3 -11 6 -8 rrcurveto
          76 -107 105 -53 134 0 rrcurveto
          endchar
        </CharString>
        <CharString name="z">
          0 976 15 rmoveto
          23 0 20 7 17 13 27 21 13 32 0 41 0 43 -8 37 -17 32 -34 63 -35 32 -36 0 -20 0 -10 -9 0 -17 0 -6 4 -9 7 -14 25 -32 13 -26 0 -21 0 -25 -11 -12 -21 0 rrcurveto
          -416 hlineto
          -33 0 -16 16 0 32 0 20 7 16 14 13 rrcurveto
          669 601 rlineto
          32 29 16 27 0 26 0 23 -6 19 -11 15 -17 22 -25 11 -32 0 rrcurveto
          -631 hlineto
          -69 0 -35 -26 0 -52 0 -49 35 -25 70 -1 rrcurveto
          387 hlineto
          32 0 16 -16 0 -32 0 -17 -8 -16 -15 -13 rrcurveto
          -667 -581 rlineto
          -32 -29 -16 -34 0 -39 0 -21 6 -19 13 -17 16 -22 25 -11 33 0 rrcurveto
          endchar
        </CharString>
        <CharString name="zero">
          0 436 594 rmoveto
          23 128 rlineto
          47 179 57 135 68 91 68 91 77 46 86 0 71 0 51 -18 31 -36 32 -36 18 -58 5 -80 -119 -44 -113 -60 -106 -74 -106 -75 -99 -88 -91 -101 rrcurveto
          194 -458 rmoveto
          -42 0 -35 8 -27 16 -27 15 -20 21 -12 24 -12 25 -6 26 0 26 0 170 204 194 408 219 -38 -253 -57 -187 -74 -122 -74 -121 -87 -61 -101 0 rrcurveto
          -49 -151 rmoveto
          133 0 116 57 99 115 84 99 65 121 48 144 47 143 30 145 12 147 50 23 37 19 25 16 25 15 12 16 0 15 0 5 -3 5 -7 4 -7 4 -10 2 -13 0 -29 0 -36 -3 -42 -5 rrcurveto
          -7 124 -29 88 -50 52 -50 53 -73 26 -95 0 -138 0 -117 -54 -97 -108 -88 -107 -69 -139 -51 -172 -51 -171 -26 -156 0 -140 1 -255 101 -128 203 0 rrcurveto
          endchar
        </CharString>
</ttFont>
